<svg width="35" height="35" viewBox="0 0 35 35" fill="none" xmlns="http://www.w3.org/2000/svg">
<rect x="0.227051" width="34.622" height="34.622" rx="12.2195" fill="#E8E8E8"/>
<path d="M24.9667 14.472C24.3413 13.7813 23.3985 13.3799 22.0917 13.2399V12.5305C22.0917 11.2517 21.5503 10.0196 20.5982 9.16079C19.6367 8.28336 18.3859 7.87265 17.0885 7.994C14.8576 8.20869 12.9814 10.3649 12.9814 12.6985V13.2399C11.6746 13.3799 10.7318 13.7813 10.1064 14.472C9.20099 15.4801 9.229 16.8243 9.33167 17.7577L9.98508 22.9569C10.1811 24.7771 10.9185 26.644 14.9323 26.644H20.1408C24.1546 26.644 24.892 24.7771 25.088 22.9663L25.7414 17.7484C25.8441 16.8243 25.8721 15.4801 24.9667 14.472ZM17.2192 9.29147C18.1526 9.20746 19.0394 9.49683 19.7301 10.1222C20.4115 10.7383 20.7942 11.6157 20.7942 12.5305V13.1839H14.2789V12.6985C14.2789 11.037 15.651 9.44082 17.2192 9.29147ZM17.5365 23.4516C15.5857 23.4516 13.9988 21.8648 13.9988 19.9139C13.9988 17.963 15.5857 16.3762 17.5365 16.3762C19.4874 16.3762 21.0742 17.963 21.0742 19.9139C21.0742 21.8648 19.4874 23.4516 17.5365 23.4516Z" fill="#1A2B88"/>
<path d="M17.0032 21.6425C16.8258 21.6425 16.6485 21.5772 16.5085 21.4371L15.5844 20.513C15.3137 20.2423 15.3137 19.7943 15.5844 19.5236C15.8551 19.2529 16.3031 19.2529 16.5738 19.5236L17.0219 19.9717L18.5153 18.5902C18.7954 18.3288 19.2434 18.3475 19.5048 18.6275C19.7661 18.9075 19.7475 19.3556 19.4675 19.6169L17.4792 21.4558C17.3392 21.5772 17.1712 21.6425 17.0032 21.6425Z" fill="#1A2B88"/>
</svg>
