<svg width="36" height="35" viewBox="0 0 36 35" fill="none" xmlns="http://www.w3.org/2000/svg">
<rect x="0.606445" width="34.622" height="34.622" rx="12.2195" fill="#E8E8E8"/>
<path d="M28.2043 17.6201V19.6801C28.2043 20.2401 27.7443 20.7001 27.1743 20.7001H25.2443C24.1643 20.7001 23.1743 19.9101 23.0843 18.8301C23.0243 18.2001 23.2643 17.6101 23.6843 17.2001C24.0543 16.8201 24.5643 16.6001 25.1243 16.6001H27.1743C27.7443 16.6001 28.2043 17.0601 28.2043 17.6201Z" fill="#1A2B88"/>
<path d="M21.5841 18.9599C21.4941 17.9099 21.8741 16.8799 22.6341 16.1299C23.2741 15.4799 24.1641 15.0999 25.1241 15.0999H25.6941C25.9741 15.0999 26.2041 14.8699 26.1641 14.5899C25.8941 12.6499 24.2141 11.1499 22.2041 11.1499H12.2041C9.9941 11.1499 8.2041 12.9399 8.2041 15.1499V22.1499C8.2041 24.3599 9.9941 26.1499 12.2041 26.1499H22.2041C24.2241 26.1499 25.8941 24.6499 26.1641 22.7099C26.2041 22.4299 25.9741 22.1999 25.6941 22.1999H25.2441C23.3441 22.1999 21.7441 20.7799 21.5841 18.9599ZM19.2041 16.8999H13.2041C12.7941 16.8999 12.4541 16.5699 12.4541 16.1499C12.4541 15.7299 12.7941 15.3999 13.2041 15.3999H19.2041C19.6141 15.3999 19.9541 15.7399 19.9541 16.1499C19.9541 16.5599 19.6141 16.8999 19.2041 16.8999Z" fill="#1A2B88"/>
<path d="M20.4143 8.9801C20.6743 9.2501 20.4443 9.6501 20.0643 9.6501H12.2343C11.1443 9.6501 10.1243 9.9701 9.27425 10.5201C8.88425 10.7701 8.35425 10.5001 8.54425 10.0701C9.10425 8.7601 10.4143 7.8501 11.9243 7.8501H17.5443C18.7043 7.8501 19.7343 8.2601 20.4143 8.9801Z" fill="#1A2B88"/>
</svg>
