<svg width="84" height="35" viewBox="0 0 84 35" fill="none" xmlns="http://www.w3.org/2000/svg">
<path d="M83.47 0C81.6066 0.0706175 79.7771 0.519222 78.0924 1.31857C76.4078 2.11792 74.9032 3.25134 73.67 4.65C71.83 6.89 69.47 11.72 74.33 18.87C75.72 20.87 77.16 23.72 76.21 25.57C75.05 27.8 70.84 28.63 69.75 28.67H69.46V34.61H69.76C71.53 34.61 78.69 33.49 81.38 28.41C83.27 24.84 82.54 20.54 79.19 15.62C77.27 12.78 76.84 10.5 77.93 8.83C79.28 6.75 82.43 5.92 83.47 5.92H83.77V0.0599976L83.47 0Z" fill="#294B6C"/>
<path d="M17.26 0.0200195C13.8448 0.0219971 10.5068 1.03654 7.66804 2.93539C4.82932 4.83425 2.61733 7.53214 1.31174 10.688C0.00614357 13.8438 -0.334428 17.316 0.333068 20.6654C1.00056 24.0147 2.64615 27.091 5.0618 29.5053C7.47746 31.9195 10.5547 33.5634 13.9045 34.2289C17.2542 34.8945 20.7262 34.5519 23.8813 33.2445C27.0364 31.937 29.733 29.7235 31.6302 26.8837C33.5274 24.0438 34.54 20.7053 34.54 17.29C34.5347 12.7096 32.7121 8.31849 29.4724 5.0806C26.2326 1.8427 21.8404 0.0226656 17.26 0.0200195ZM28.64 17.29C28.642 19.5412 27.9762 21.7424 26.727 23.6151C25.4777 25.4879 23.7011 26.948 21.6219 27.8109C19.5426 28.6738 17.2542 28.9005 15.046 28.4626C12.8379 28.0246 10.8092 26.9416 9.21667 25.3504C7.62415 23.7593 6.53932 21.7316 6.09941 19.5238C5.6595 17.316 5.88428 15.0274 6.74531 12.9474C7.60634 10.8674 9.06494 9.08948 10.9366 7.83858C12.8082 6.58769 15.0088 5.92001 17.26 5.92001C20.2764 5.92001 23.1695 7.1176 25.3034 9.2496C27.4372 11.3816 28.6374 14.2736 28.64 17.29Z" fill="#294B6C"/>
<path d="M61.19 16.66C62.4475 15.1968 63.2587 13.4034 63.5272 11.4928C63.7957 9.58226 63.5102 7.63476 62.7047 5.88161C61.8992 4.12845 60.6075 2.6433 58.983 1.6025C57.3584 0.561706 55.4693 0.00899726 53.54 0.0100112H39.23V5.90001H53.54C54.6512 5.88542 55.7228 6.31288 56.5189 7.08834C57.315 7.86381 57.7704 8.92376 57.785 10.035C57.7996 11.1463 57.3721 12.2178 56.5966 13.0139C55.8212 13.81 54.7612 14.2654 53.65 14.28H39.23V34.54H54.7C56.7797 34.5412 58.8092 33.9017 60.5125 32.7085C62.2158 31.5152 63.5102 29.8262 64.2194 27.8712C64.9286 25.9162 65.0183 23.7901 64.4762 21.7823C63.9342 19.7745 62.7867 17.9825 61.19 16.65V16.66ZM58.92 24.43C58.9173 25.5484 58.4719 26.6202 57.681 27.4111C56.8902 28.2019 55.8184 28.6474 54.7 28.65H45.13V20.19H54.7C55.2555 20.1913 55.8053 20.302 56.318 20.5158C56.8307 20.7296 57.2962 21.0423 57.6881 21.436C58.08 21.8297 58.3905 22.2968 58.6018 22.8105C58.8132 23.3242 58.9213 23.8745 58.92 24.43Z" fill="#294B6C"/>
</svg>
