<svg width="24" height="25" viewBox="0 0 24 25" fill="none" xmlns="http://www.w3.org/2000/svg">
<path d="M10.8 23C8.25167 22.3583 6.1481 20.8961 4.4893 18.6132C2.82977 16.3311 2 13.7967 2 11.01V4.3L10.8 1L19.6 4.3V10.5425C19.2517 10.3958 18.8942 10.2627 18.5275 10.1432C18.1608 10.0244 17.785 9.9375 17.4 9.8825V5.84L10.8 3.365L4.2 5.84V11.01C4.2 11.8717 4.3144 12.7333 4.5432 13.595C4.77273 14.4567 5.09393 15.2773 5.5068 16.0568C5.91893 16.8356 6.41833 17.555 7.005 18.215C7.59167 18.875 8.2425 19.425 8.9575 19.865C9.15917 20.4517 9.425 21.0108 9.755 21.5425C10.085 22.0742 10.4608 22.5508 10.8825 22.9725C10.8642 22.9725 10.8506 22.9773 10.8418 22.9868C10.8323 22.9956 10.8183 23 10.8 23ZM16.3 17.5C16.7583 17.5 17.1477 17.3394 17.4682 17.0182C17.7894 16.6977 17.95 16.3083 17.95 15.85C17.95 15.3917 17.7894 15.0023 17.4682 14.6818C17.1477 14.3606 16.7583 14.2 16.3 14.2C15.8417 14.2 15.4523 14.3606 15.1318 14.6818C14.8106 15.0023 14.65 15.3917 14.65 15.85C14.65 16.3083 14.8106 16.6977 15.1318 17.0182C15.4523 17.3394 15.8417 17.5 16.3 17.5ZM16.3 20.8C16.8683 20.8 17.3908 20.6669 17.8675 20.4007C18.3442 20.1352 18.7292 19.7825 19.0225 19.3425C18.6192 19.1042 18.1883 18.9208 17.73 18.7925C17.2717 18.6642 16.795 18.6 16.3 18.6C15.805 18.6 15.3283 18.6642 14.87 18.7925C14.4117 18.9208 13.9808 19.1042 13.5775 19.3425C13.8708 19.7825 14.2558 20.1352 14.7325 20.4007C15.2092 20.6669 15.7317 20.8 16.3 20.8ZM16.3 23C14.7783 23 13.4814 22.4639 12.4093 21.3918C11.3364 20.3189 10.8 19.0217 10.8 17.5C10.8 15.9783 11.3364 14.6811 12.4093 13.6082C13.4814 12.5361 14.7783 12 16.3 12C17.8217 12 19.1189 12.5361 20.1918 13.6082C21.2639 14.6811 21.8 15.9783 21.8 17.5C21.8 19.0217 21.2639 20.3189 20.1918 21.3918C19.1189 22.4639 17.8217 23 16.3 23Z" fill="#335471"/>
</svg>
