<svg width="22" height="28" viewBox="0 0 18 23" fill="none" xmlns="http://www.w3.org/2000/svg">
<path d="M12.0459 18.53C12.0459 20.18 10.6959 21.53 9.0459 21.53C8.2259 21.53 7.4659 21.19 6.9259 20.65C6.3859 20.11 6.0459 19.35 6.0459 18.53" stroke="#53B9EA" stroke-width="1.5" stroke-miterlimit="10"/>
<path d="M9.04597 2.37988C5.73597 2.37988 3.04597 5.06988 3.04597 8.37988L3.04597 11.2699C3.04597 11.8799 2.78597 12.8099 2.47597 13.3299L1.32597 15.2399C0.615967 16.4199 1.10597 17.7299 2.40597 18.1699C6.71597 19.6099 11.366 19.6099 15.676 18.1699C16.886 17.7699 17.416 16.3399 16.756 15.2399L15.606 13.3299C15.306 12.8099 15.046 11.8799 15.046 11.2699L15.046 8.37988C15.046 5.07988 12.346 2.37988 9.04597 2.37988Z" stroke="#53B9EA" stroke-width="1.5" stroke-miterlimit="10" stroke-linecap="round"/>
<circle cx="13" cy="3.46997" r="3" fill="#C91D30"/>
</svg>
