<svg width="20" height="22" viewBox="0 0 24 25" fill="none" xmlns="http://www.w3.org/2000/svg">
<path d="M16.4444 8.18877V4.20187C16.4444 3.25425 16.4444 2.78044 16.2498 2.48926C16.0797 2.23486 15.8163 2.06204 15.5197 2.0103C15.1803 1.95107 14.7608 2.14963 13.9217 2.54674L4.06557 7.21122C3.31723 7.56538 2.94306 7.74246 2.66901 8.01709C2.42673 8.25988 2.2418 8.55626 2.12834 8.88356C2 9.2538 2 9.67636 2 10.5215V16.164M17 15.5944H17.0111M2 11.8346L2 19.3542C2 20.6303 2 21.2684 2.24221 21.7558C2.45526 22.1846 2.79522 22.5332 3.21335 22.7516C3.68871 23 4.31099 23 5.55556 23H18.4444C19.689 23 20.3113 23 20.7866 22.7516C21.2048 22.5332 21.5447 22.1846 21.7578 21.7558C22 21.2684 22 20.6303 22 19.3542V11.8346C22 10.5584 22 9.92037 21.7578 9.43293C21.5447 9.00418 21.2048 8.65559 20.7866 8.43713C20.3113 8.18877 19.689 8.18877 18.4444 8.18877L5.55556 8.18877C4.31099 8.18877 3.68871 8.18877 3.21335 8.43713C2.79522 8.65559 2.45526 9.00418 2.24221 9.43293C2 9.92036 2 10.5584 2 11.8346ZM17.5556 15.5944C17.5556 15.909 17.3068 16.164 17 16.164C16.6932 16.164 16.4444 15.909 16.4444 15.5944C16.4444 15.2798 16.6932 15.0247 17 15.0247C17.3068 15.0247 17.5556 15.2798 17.5556 15.5944Z" stroke="#335471" stroke-width="2" stroke-linecap="round" stroke-linejoin="round"/>
</svg>
