<svg width="9" height="18" viewBox="0 0 9 18" fill="none" xmlns="http://www.w3.org/2000/svg">
<path d="M7.1959 17.3992C7.01663 17.3998 6.8395 17.3602 6.67752 17.2834C6.51555 17.2065 6.37285 17.0944 6.2599 16.9552L0.463904 9.75516C0.287405 9.54044 0.190918 9.27111 0.190918 8.99316C0.190918 8.71521 0.287405 8.44588 0.463904 8.23116L6.4639 1.03116C6.66759 0.786099 6.96028 0.63199 7.27759 0.602734C7.59491 0.573478 7.91084 0.671473 8.1559 0.875159C8.40096 1.07885 8.55507 1.37154 8.58433 1.68885C8.61358 2.00616 8.51559 2.3221 8.3119 2.56716L2.9479 8.99916L8.1319 15.4312C8.27864 15.6073 8.37185 15.8218 8.40051 16.0492C8.42917 16.2767 8.39207 16.5076 8.2936 16.7146C8.19513 16.9217 8.03942 17.0962 7.84489 17.2175C7.65035 17.3388 7.42514 17.4018 7.1959 17.3992Z" fill="#335471"/>
</svg>
