<svg width="26" height="28" viewBox="0 0 24 24" fill="none" xmlns="http://www.w3.org/2000/svg">
<path d="M11 12.975C11 12.4365 11.4365 12 11.975 12H12.025C12.5635 12 13 12.4365 13 12.975C13 13.5135 12.5635 13.95 12.025 13.95H11.975C11.4365 13.95 11 13.5135 11 12.975Z" fill="#53B9EA"/>
<path d="M11.975 17C11.4365 17 11 17.4365 11 17.975C11 18.5135 11.4365 18.95 11.975 18.95H12.025C12.5635 18.95 13 18.5135 13 17.975C13 17.4365 12.5635 17 12.025 17H11.975Z" fill="#53B9EA"/>
<path d="M16 12.975C16 12.4365 16.4365 12 16.975 12H17.025C17.5635 12 18 12.4365 18 12.975C18 13.5135 17.5635 13.95 17.025 13.95H16.975C16.4365 13.95 16 13.5135 16 12.975Z" fill="#53B9EA"/>
<path d="M16.975 17C16.4365 17 16 17.4365 16 17.975C16 18.5135 16.4365 18.95 16.975 18.95H17.025C17.5635 18.95 18 18.5135 18 17.975C18 17.4365 17.5635 17 17.025 17H16.975Z" fill="#53B9EA"/>
<path d="M6 12.975C6 12.4365 6.43652 12 6.975 12H7.025C7.56348 12 8 12.4365 8 12.975C8 13.5135 7.56348 13.95 7.025 13.95H6.975C6.43652 13.95 6 13.5135 6 12.975Z" fill="#53B9EA"/>
<path d="M6.975 17C6.43652 17 6 17.4365 6 17.975C6 18.5135 6.43652 18.95 6.975 18.95H7.025C7.56348 18.95 8 18.5135 8 17.975C8 17.4365 7.56348 17 7.025 17H6.975Z" fill="#53B9EA"/>
<path fill-rule="evenodd" clip-rule="evenodd" d="M7 1.25C7.41421 1.25 7.75 1.58579 7.75 2V3.25H16.25V2C16.25 1.58579 16.5858 1.25 17 1.25C17.4142 1.25 17.75 1.58579 17.75 2V3.25996C17.9078 3.26443 18.055 3.2709 18.1925 3.28028C18.6491 3.31144 19.0528 3.37711 19.4351 3.53545C20.3539 3.91605 21.0839 4.64608 21.4645 5.56494C21.6229 5.94721 21.6886 6.35092 21.7197 6.80748C21.75 7.25148 21.75 7.79704 21.75 8.47336V17.5266C21.75 18.203 21.75 18.7485 21.7197 19.1925C21.6886 19.6491 21.6229 20.0528 21.4645 20.4351C21.0839 21.3539 20.3539 22.0839 19.4351 22.4645C19.0528 22.6229 18.6491 22.6886 18.1925 22.7197C17.7485 22.75 17.203 22.75 16.5266 22.75H7.47336C6.79704 22.75 6.25148 22.75 5.80748 22.7197C5.35092 22.6886 4.94721 22.6229 4.56494 22.4645C3.64608 22.0839 2.91605 21.3539 2.53545 20.4351C2.37711 20.0528 2.31144 19.6491 2.28029 19.1925C2.24999 18.7485 2.24999 18.203 2.25 17.5266V8.47337C2.24999 7.79704 2.24999 7.25149 2.28029 6.80748C2.31144 6.35092 2.37711 5.94721 2.53545 5.56494C2.91605 4.64608 3.64608 3.91605 4.56494 3.53545C4.94721 3.37711 5.35092 3.31144 5.80748 3.28028C5.94496 3.2709 6.09218 3.26443 6.25 3.25996V2C6.25 1.58579 6.58579 1.25 7 1.25ZM16.25 4.75V6C16.25 6.41421 16.5858 6.75 17 6.75C17.4142 6.75 17.75 6.41421 17.75 6V4.76056C17.8728 4.7644 17.9855 4.76965 18.0904 4.77681C18.4706 4.80275 18.692 4.85125 18.861 4.92127C19.4124 5.14963 19.8504 5.58765 20.0787 6.13896C20.1487 6.308 20.1973 6.5294 20.2232 6.90959C20.2496 7.29651 20.25 7.79083 20.25 8.5V9.25H3.75V8.5C3.75 7.79083 3.75041 7.29651 3.77681 6.90959C3.80275 6.5294 3.85125 6.308 3.92127 6.13896C4.14963 5.58765 4.58765 5.14963 5.13896 4.92127C5.308 4.85125 5.5294 4.80275 5.90959 4.77681C6.01446 4.76965 6.12721 4.7644 6.25 4.76056V6C6.25 6.41421 6.58579 6.75 7 6.75C7.41421 6.75 7.75 6.41421 7.75 6V4.75H16.25ZM3.75 10.75H20.25V17.5C20.25 18.2092 20.2496 18.7035 20.2232 19.0904C20.1973 19.4706 20.1487 19.692 20.0787 19.861C19.8504 20.4124 19.4124 20.8504 18.861 21.0787C18.692 21.1487 18.4706 21.1973 18.0904 21.2232C17.7035 21.2496 17.2092 21.25 16.5 21.25H7.5C6.79083 21.25 6.29651 21.2496 5.90959 21.2232C5.5294 21.1973 5.308 21.1487 5.13896 21.0787C4.58765 20.8504 4.14963 20.4124 3.92127 19.861C3.85125 19.692 3.80275 19.4706 3.77681 19.0904C3.75041 18.7035 3.75 18.2092 3.75 17.5V10.75Z" fill="#53B9EA"/>
</svg>
