<svg width="127" height="122" viewBox="0 0 127 122" fill="none" xmlns="http://www.w3.org/2000/svg">
<path fill-rule="evenodd" clip-rule="evenodd" d="M97.3321 22.8178C97.5812 23.2815 98.0172 23.6127 98.5778 23.6127C113.526 23.6127 125.733 36.5949 125.733 52.4915V91.8356C125.733 107.732 113.526 120.714 98.5778 120.714H28.3217C13.3113 120.714 1.16602 107.732 1.16602 91.8356V52.4915C1.16602 36.5949 13.3113 23.6127 28.3217 23.6127C28.82 23.6127 29.3183 23.3477 29.5051 22.8178L29.8788 22.023C30.0935 21.5419 30.3139 21.0478 30.5376 20.5461C32.1309 16.973 33.8938 13.0199 34.9861 10.6967C37.8511 4.73545 42.7093 1.42366 48.7508 1.35742H78.0864C84.1279 1.42366 89.0484 4.73545 91.9134 10.6967C92.8944 12.7831 94.389 16.144 95.8295 19.3834C96.1267 20.0517 96.4216 20.7149 96.7093 21.3606L97.3321 22.8178ZM92.7855 48.2576C92.7855 51.5694 95.2768 54.2188 98.391 54.2188C101.505 54.2188 104.059 51.5694 104.059 48.2576C104.059 44.9458 101.505 42.2301 98.391 42.2301C95.2768 42.2301 92.7855 44.9458 92.7855 48.2576ZM52.677 58.5199C55.6044 55.4068 59.4037 53.7509 63.4521 53.7509C67.5006 53.7509 71.2999 55.4068 74.1649 58.4536C77.03 61.5005 78.5871 65.5409 78.5871 69.8462C78.5248 78.7218 71.7981 85.9415 63.4521 85.9415C59.4037 85.9415 55.6044 84.2856 52.7393 81.2388C49.8743 78.1919 48.3172 74.1515 48.3172 69.8462V69.78C48.2549 65.6071 49.812 61.5667 52.677 58.5199ZM80.6995 88.2583C76.2774 92.961 70.1736 95.8754 63.4469 95.8754C56.9071 95.8754 50.8033 93.1597 46.132 88.2583C41.523 83.2906 38.9694 76.7995 38.9694 69.8447C38.9071 62.9562 41.4608 56.4651 46.0698 51.4974C50.741 46.5297 56.9071 43.814 63.4469 43.814C69.9867 43.814 76.1528 46.5297 80.7618 51.4311C85.3708 56.3988 87.9244 62.9562 87.9244 69.8447C87.8621 77.0644 85.1217 83.5555 80.6995 88.2583Z" stroke="#223263" stroke-opacity="0.5" stroke-width="1.5"/>
</svg>
