<svg width="47" height="47" viewBox="0 0 47 47" fill="none" xmlns="http://www.w3.org/2000/svg">
<rect y="0.0546875" width="46.1267" height="46.1267" rx="23.0634" fill="#EDF4FC"/>
<rect x="4.25781" y="3.65332" width="37.8793" height="38.4204" rx="18.9396" fill="#335471"/>
<g clip-path="url(#clip0_1_7839)">
<path fill-rule="evenodd" clip-rule="evenodd" d="M27.719 16.2928C27.8077 15.9568 28.1482 15.7574 28.4795 15.8474C29.1396 16.0269 29.723 16.4222 30.139 16.9722C30.5551 17.5221 30.7806 18.196 30.7806 18.8892C30.7806 19.5824 30.5551 20.2562 30.139 20.8062C29.723 21.3561 29.1396 21.7515 28.4795 21.9309C28.1482 22.0209 27.8077 21.8215 27.719 21.4856C27.6302 21.1496 27.8268 20.8042 28.158 20.7142C28.5541 20.6066 28.9042 20.3694 29.1538 20.0394C29.4034 19.7094 29.5387 19.3051 29.5387 18.8892C29.5387 18.4732 29.4034 18.0689 29.1538 17.739C28.9042 17.409 28.5541 17.1718 28.158 17.0641C27.8268 16.9741 27.6302 16.6288 27.719 16.2928Z" fill="white"/>
<path fill-rule="evenodd" clip-rule="evenodd" d="M28.7108 24.7674C28.7108 24.4195 28.9888 24.1376 29.3317 24.1376H29.5863C30.6865 24.1376 31.6759 24.817 32.0845 25.8531C32.7915 27.6458 31.4899 29.5959 29.5863 29.5959H29.3317C28.9888 29.5959 28.7108 29.3139 28.7108 28.9661C28.7108 28.6182 28.9888 28.3363 29.3317 28.3363H29.5863C30.6113 28.3363 31.3122 27.2862 30.9315 26.3209C30.7115 25.763 30.1787 25.3972 29.5863 25.3972H29.3317C28.9888 25.3972 28.7108 25.1152 28.7108 24.7674Z" fill="white"/>
<path fill-rule="evenodd" clip-rule="evenodd" d="M17.6979 16.2928C17.6091 15.9568 17.2686 15.7574 16.9374 15.8474C16.2772 16.0269 15.6939 16.4222 15.2778 16.9722C14.8618 17.5221 14.6362 18.196 14.6362 18.8892C14.6362 19.5824 14.8618 20.2562 15.2778 20.8062C15.6939 21.3561 16.2772 21.7515 16.9374 21.9309C17.2686 22.0209 17.6091 21.8215 17.6979 21.4856C17.7866 21.1496 17.59 20.8042 17.2588 20.7142C16.8627 20.6066 16.5127 20.3694 16.2631 20.0394C16.0134 19.7094 15.8781 19.3051 15.8781 18.8892C15.8781 18.4732 16.0134 18.0689 16.2631 17.739C16.5127 17.409 16.8627 17.1718 17.2588 17.0641C17.59 16.9741 17.7866 16.6288 17.6979 16.2928Z" fill="white"/>
<path fill-rule="evenodd" clip-rule="evenodd" d="M16.706 24.7674C16.706 24.4195 16.428 24.1376 16.0851 24.1376H15.8306C14.7303 24.1376 13.7409 24.817 13.3323 25.8531C12.6253 27.6458 13.927 29.5959 15.8306 29.5959H16.0851C16.428 29.5959 16.706 29.3139 16.706 28.9661C16.706 28.6182 16.428 28.3363 16.0851 28.3363H15.8306C14.8056 28.3363 14.1047 27.2862 14.4854 26.3209C14.7054 25.763 15.2381 25.3972 15.8306 25.3972H16.0851C16.428 25.3972 16.706 25.1152 16.706 24.7674Z" fill="white"/>
<path fill-rule="evenodd" clip-rule="evenodd" d="M22.7084 16.16C21.2224 16.16 20.0177 17.3819 20.0177 18.8892C20.0177 20.3964 21.2224 21.6183 22.7084 21.6183C24.1945 21.6183 25.3991 20.3964 25.3991 18.8892C25.3991 17.3819 24.1945 16.16 22.7084 16.16ZM18.7758 18.8892C18.7758 16.6862 20.5365 14.9004 22.7084 14.9004C24.8803 14.9004 26.641 16.6862 26.641 18.8892C26.641 21.0921 24.8803 22.8779 22.7084 22.8779C20.5365 22.8779 18.7758 21.0921 18.7758 18.8892Z" fill="white"/>
<path fill-rule="evenodd" clip-rule="evenodd" d="M19.9843 23.951H25.4325C25.4841 23.9509 25.5196 23.9509 25.5532 23.9517C26.7464 23.9778 27.8191 24.6953 28.3128 25.7973C28.3267 25.8284 28.3407 25.8615 28.361 25.9096L28.3702 25.9313C28.4126 26.0317 28.441 26.0989 28.4615 26.1528C29.2292 28.1704 27.8093 30.3544 25.6786 30.4335C25.6216 30.4356 25.5495 30.4356 25.4418 30.4356H19.9751C19.8673 30.4356 19.7952 30.4356 19.7382 30.4335C17.6075 30.3544 16.1877 28.1704 16.9553 26.1528C16.9759 26.0989 17.0043 26.0317 17.0467 25.9312L17.0558 25.9096C17.0762 25.8614 17.0901 25.8284 17.1041 25.7973C17.5977 24.6953 18.6705 23.9778 19.8636 23.9517C19.8972 23.9509 19.9327 23.9509 19.9843 23.951ZM19.9913 25.2106C19.9301 25.2106 19.9089 25.2106 19.8904 25.211C19.1746 25.2267 18.5309 25.6572 18.2347 26.3184C18.227 26.3355 18.2187 26.3552 18.1946 26.4123C18.1434 26.5332 18.1251 26.577 18.1139 26.6063C17.6533 27.8169 18.5052 29.1273 19.7837 29.1748C19.8147 29.1759 19.8616 29.176 19.9913 29.176H25.4255C25.5553 29.176 25.6022 29.1759 25.6332 29.1748C26.9116 29.1273 27.7635 27.8169 27.3029 26.6063C27.2918 26.577 27.2734 26.5332 27.2223 26.4123C27.1982 26.3552 27.1898 26.3355 27.1822 26.3184C26.8859 25.6572 26.2423 25.2267 25.5264 25.211C25.5079 25.2106 25.4867 25.2106 25.4255 25.2106H19.9913Z" fill="white"/>
</g>
<defs>
<clipPath id="clip0_1_7839">
<rect width="19.87" height="20.1538" fill="white" transform="translate(12.7734 13.0107)"/>
</clipPath>
</defs>
</svg>
