<svg width="20" height="22" viewBox="0 0 28 27" fill="none" xmlns="http://www.w3.org/2000/svg">
<path d="M8.792 11.3319V8.23334C8.792 8.18059 8.76983 8.13013 8.73084 8.09496L6.09254 5.738C6.05891 5.70283 6.01151 5.68066 5.95876 5.68066C5.95187 5.68066 5.94499 5.68219 5.93811 5.68296H2.26927C2.16683 5.68296 2.0835 5.76629 2.0835 5.86873V11.3319C2.0835 11.4343 2.16683 11.5176 2.26927 11.5176H8.60546C8.70867 11.5176 8.792 11.4351 8.792 11.3319ZM2.45504 6.05451H5.77222V11.1461H2.45504V6.05451ZM8.42045 11.1461H6.14453V6.28233L8.08789 8.01622L8.42045 8.31514V11.1461Z" fill="#335471"/>
<path d="M20.5372 3.2579C20.7298 3.2579 20.8873 3.10118 20.8873 2.90776C20.8873 2.7151 20.7306 2.55762 20.5372 2.55762C20.3445 2.55762 20.187 2.71434 20.187 2.90776C20.187 3.10041 20.3437 3.2579 20.5372 3.2579ZM20.5372 2.88635C20.5494 2.88635 20.5586 2.89629 20.5586 2.90776C20.5586 2.91999 20.5486 2.92917 20.5372 2.92917C20.5249 2.92917 20.5157 2.91923 20.5157 2.90776C20.515 2.89553 20.5249 2.88635 20.5372 2.88635Z" fill="#335471"/>
<path d="M17.3977 17.0464H19.8403C19.9427 17.0464 20.026 16.9631 20.026 16.8607V14.2346C20.026 14.1322 19.9427 14.0488 19.8403 14.0488H17.3977C17.2952 14.0488 17.2119 14.1322 17.2119 14.2346V16.8614C17.2119 16.9639 17.2952 17.0464 17.3977 17.0464ZM17.5835 14.4204H19.6545V16.6757H17.5835V14.4204Z" fill="#335471"/>
<path d="M21.2854 17.0464H23.728C23.8304 17.0464 23.9137 16.9631 23.9137 16.8607V14.2346C23.9137 14.1322 23.8304 14.0488 23.728 14.0488H21.2854C21.1829 14.0488 21.0996 14.1322 21.0996 14.2346V16.8614C21.0996 16.9639 21.1829 17.0464 21.2854 17.0464ZM21.4712 14.4204H23.5422V16.6757H21.4712V14.4204Z" fill="#335471"/>
<path d="M13.829 20.5322H11.3865C11.284 20.5322 11.2007 20.6156 11.2007 20.718V23.3448C11.2007 23.4473 11.284 23.5306 11.3865 23.5306H13.829C13.9315 23.5306 14.0148 23.4473 14.0148 23.3448V20.718C14.0148 20.6156 13.9315 20.5322 13.829 20.5322ZM13.6433 23.1591H11.5722V20.9038H13.6433V23.1591Z" fill="#335471"/>
<path d="M17.4453 20.5322H15.0027C14.9002 20.5322 14.8169 20.6156 14.8169 20.718V23.3448C14.8169 23.4473 14.9002 23.5306 15.0027 23.5306H17.4453C17.5477 23.5306 17.631 23.4473 17.631 23.3448V20.718C17.631 20.6156 17.5485 20.5322 17.4453 20.5322ZM17.2595 23.1591H15.1884V20.9038H17.2595V23.1591Z" fill="#335471"/>
<path d="M19.5744 23.5306H22.017C22.1195 23.5306 22.2028 23.4473 22.2028 23.3448V20.718C22.2028 20.6156 22.1195 20.5322 22.017 20.5322H19.5744C19.472 20.5322 19.3887 20.6156 19.3887 20.718V23.3448C19.3887 23.4473 19.472 23.5306 19.5744 23.5306ZM19.7602 20.9038H21.8313V23.1591H19.7602V20.9038Z" fill="#335471"/>
<path d="M23.4621 23.5306H25.9047C26.0072 23.5306 26.0905 23.4473 26.0905 23.3448V20.718C26.0905 20.6156 26.0072 20.5322 25.9047 20.5322H23.4621C23.3597 20.5322 23.2764 20.6156 23.2764 20.718V23.3448C23.2764 23.4473 23.3597 23.5306 23.4621 23.5306ZM23.6479 20.9038H25.7189V23.1591H23.6479V20.9038Z" fill="#335471"/>
<path d="M1.18577 23.8976C1.08333 23.8976 1 23.9809 1 24.0834V25.3142C1 25.4167 1.08333 25.5 1.18577 25.5H26.8073C26.9097 25.5 26.9931 25.4167 26.9931 25.3142V24.0834V19.9795C26.9931 19.8771 26.9097 19.7938 26.8073 19.7938H18.6195H10.4317C10.3292 19.7938 10.2459 19.8771 10.2459 19.9795V23.8976H6.94018V12.45H9.68933C9.79177 12.45 9.8751 12.3666 9.8751 12.2642V8.10759C9.8751 8.05484 9.85293 8.00438 9.81394 7.96921L9.45845 7.64889L19.8144 4.11001C19.9765 4.21092 20.1592 4.27514 20.3518 4.30037V13.3085H16.4437C16.3413 13.3085 16.2579 13.3918 16.2579 13.4943V17.5981C16.2579 17.7006 16.3413 17.7839 16.4437 17.7839H24.6315C24.734 17.7839 24.8173 17.7006 24.8173 17.5981V13.4943C24.8173 13.3918 24.734 13.3085 24.6315 13.3085H20.7234V4.30037C21.4114 4.20863 21.9451 3.61996 21.9451 2.90668C21.9451 2.13071 21.3136 1.5 20.5376 1.5C19.965 1.5 19.4589 1.83944 19.2487 2.34936L6.91036 5.36914L6.2613 4.79042C6.2269 4.75984 6.18332 4.74302 6.13745 4.74302H1.18577C1.08333 4.74378 1 4.82711 1 4.92955V12.2642C1 12.3666 1.08333 12.45 1.18577 12.45H3.9418V23.8976H1.18577ZM24.445 17.4139H16.6279V13.6816H24.4442L24.445 17.4139ZM26.6215 25.1292H1.37155V24.2699H4.12758H6.7544H10.4317H18.6195H26.6215V25.1292ZM26.6215 23.8976H18.8052V20.1653H26.6215V23.8976ZM10.6167 20.1653H18.4329V23.8976H10.6167V20.1653ZM20.5368 1.87155C21.1079 1.87155 21.5727 2.33636 21.5727 2.90668C21.5727 3.47777 21.1079 3.94258 20.5368 3.94258C20.3174 3.94258 20.1202 3.87989 19.9459 3.75222C19.6676 3.5611 19.5009 3.24459 19.5009 2.90745C19.5009 2.79507 19.5216 2.67886 19.5636 2.56495C19.7005 2.15059 20.0911 1.87155 20.5368 1.87155ZM19.1378 2.75913C19.137 2.76601 19.137 2.77213 19.1363 2.77901C19.1355 2.78666 19.1347 2.79507 19.134 2.80271C19.1309 2.83788 19.1294 2.87228 19.1294 2.90668C19.1294 2.94491 19.1317 2.98313 19.1347 3.02059C19.1355 3.02977 19.1363 3.03971 19.137 3.04888C19.1447 3.12457 19.1584 3.19949 19.1783 3.27211C19.1806 3.27976 19.1829 3.2874 19.1852 3.29581C19.2066 3.36997 19.2341 3.4426 19.2678 3.51217C19.2701 3.51676 19.2724 3.52134 19.2746 3.52593C19.3098 3.59779 19.3519 3.6666 19.3993 3.73158L19.4023 3.73617C19.4268 3.76904 19.452 3.80115 19.4795 3.83249L9.14118 7.36526L8.60908 6.88897L7.24598 5.67036L19.1378 2.75913ZM1.37155 5.11533H6.06635L8.94547 7.68788L8.97452 7.71387L9.50355 8.19015V12.0784H6.7544H4.12758H1.37155V5.11533ZM4.31335 12.45H6.56863V23.8976H4.31335V12.45Z" stroke="#335471" stroke-width="1.5"/>
</svg>
