<svg width="20" height="22" viewBox="0 0 24 25" fill="none" xmlns="http://www.w3.org/2000/svg">
<g clip-path="url(#clip0_1_6676)">
<path d="M-1 25H22.4284" stroke="#335471" stroke-width="2" stroke-miterlimit="10"/>
<path d="M9.8429 22.1426H4.71436" stroke="#335471" stroke-width="2" stroke-miterlimit="10"/>
<path d="M22.4284 2.14285V7.8571C22.4284 8.16021 22.308 8.45089 22.0936 8.66522C21.8793 8.87955 21.5886 8.99995 21.2855 8.99995H17.3713L13.2856 11.2857V8.99995H12.7141C12.411 8.99995 12.1203 8.87955 11.906 8.66522C11.6917 8.45089 11.5713 8.16021 11.5713 7.8571V2.14285C11.5713 1.83975 11.6917 1.54906 11.906 1.33473C12.1203 1.12041 12.411 1 12.7141 1H21.2855C21.5886 1 21.8793 1.12041 22.0936 1.33473C22.308 1.54906 22.4284 1.83975 22.4284 2.14285Z" stroke="#335471" stroke-width="2" stroke-miterlimit="10"/>
<path d="M1.85742 25.0001V19.2858C1.85742 18.5281 2.15844 17.8014 2.69425 17.2655C3.23007 16.7297 3.95679 16.4287 4.71455 16.4287H9.28595C10.0437 16.4287 10.7704 16.7297 11.3062 17.2655C11.8421 17.8014 12.1431 18.5281 12.1431 19.2858" stroke="#335471" stroke-width="2" stroke-miterlimit="10"/>
<path d="M7.00019 14.143C8.57814 14.143 9.85732 12.8638 9.85732 11.2858C9.85732 9.70789 8.57814 8.42871 7.00019 8.42871C5.42225 8.42871 4.14307 9.70789 4.14307 11.2858C4.14307 12.8638 5.42225 14.143 7.00019 14.143Z" stroke="#335471" stroke-width="2" stroke-miterlimit="10"/>
<path d="M18.1716 24.9994L19.8002 19.2852H10.6574L9.02881 24.9994" stroke="#335471" stroke-width="2" stroke-miterlimit="10"/>
</g>
<defs>
<clipPath id="clip0_1_6676">
<rect width="24" height="24" fill="white" transform="translate(0 0.5)"/>
</clipPath>
</defs>
</svg>
