<svg width="20" height="22" viewBox="0 0 24 25" fill="none" xmlns="http://www.w3.org/2000/svg">
<path d="M21.5177 15.1125C20.2199 19.1094 16.4493 22.0004 12 22.0004C6.47715 22.0004 2 17.546 2 12.0513C2 7.62463 4.90575 3.87321 8.92308 2.58203" stroke="#335471" stroke-width="2" stroke-linecap="round"/>
<path d="M21.7842 9.19894C21.0131 5.71699 18.256 2.97639 14.7548 2.21293C13.9283 2.03269 13.515 1.94257 13.1423 2.24277C12.7695 2.54298 12.7695 3.02865 12.7695 4V9.18379C12.7695 10.1266 12.7695 10.598 13.0624 10.8909C13.3553 11.1838 13.8267 11.1838 14.7695 11.1838H20.0003C20.9718 11.1838 21.4576 11.1838 21.7578 10.8098C22.058 10.4358 21.9667 10.0235 21.7842 9.19894Z" stroke="#335471" stroke-width="2" stroke-linejoin="round"/>
</svg>
