<svg width="13" height="8" viewBox="0 0 13 8" fill="none" xmlns="http://www.w3.org/2000/svg">
<path d="M1.66117 -1.62125e-05C1.44856 -1.62125e-05 1.23594 0.0783157 1.06809 0.246167C0.743579 0.57068 0.743579 1.1078 1.06809 1.43232L4.64889 5.01315C4.82793 5.19219 5.06292 5.28171 5.3203 5.25933C5.56648 5.23695 5.79028 5.10267 5.93575 4.89006L7.15547 3.05488L11.128 7.02737C11.4525 7.35188 11.9896 7.35188 12.3141 7.02737C12.6386 6.70285 12.6386 6.16573 12.3141 5.84122L7.61427 1.14137C7.43523 0.962333 7.20023 0.872813 6.94286 0.895193C6.69668 0.917573 6.47288 1.05185 6.3274 1.26447L5.10768 3.09964L2.25424 0.246167C2.08639 0.0783157 1.87378 -1.62125e-05 1.66117 -1.62125e-05Z" fill="#C91D30"/>
<path d="M11.7311 3.35739C11.2723 3.35739 10.8918 3.73785 10.8918 4.19665V5.59541H9.49307C9.03427 5.59541 8.65381 5.97587 8.65381 6.43467C8.65381 6.89346 9.03427 7.27393 9.49307 7.27393H11.7311C12.1899 7.27393 12.5703 6.89346 12.5703 6.43467V4.19665C12.5703 3.73785 12.1899 3.35739 11.7311 3.35739Z" fill="#C91D30"/>
</svg>
