<svg width="21" height="21" viewBox="0 0 21 21" fill="none" xmlns="http://www.w3.org/2000/svg">
<path d="M12.2912 5.06143V3.61543C12.2912 3.23193 12.1388 2.86413 11.8676 2.59296C11.5965 2.32178 11.2287 2.16943 10.8452 2.16943H9.39917" stroke="#606060" stroke-width="1.446" stroke-linecap="round" stroke-linejoin="round"/>
<path d="M5.78366 15.1834H2.16866C1.78515 15.1834 1.41736 15.0311 1.14618 14.7599C0.875002 14.4887 0.722656 14.1209 0.722656 13.7374V3.61543C0.722656 3.23193 0.875002 2.86413 1.14618 2.59296C1.41736 2.32178 1.78515 2.16943 2.16866 2.16943H3.61466" stroke="#606060" stroke-width="1.446" stroke-linecap="round" stroke-linejoin="round"/>
<path d="M18.0752 7.9541H10.8452C10.0466 7.9541 9.39917 8.6015 9.39917 9.4001V18.0761C9.39917 18.8747 10.0466 19.5221 10.8452 19.5221H18.0752C18.8738 19.5221 19.5212 18.8747 19.5212 18.0761V9.4001C19.5212 8.6015 18.8738 7.9541 18.0752 7.9541Z" stroke="#606060" stroke-width="1.446" stroke-linecap="round" stroke-linejoin="round"/>
<path d="M9.76017 0.723633H3.25317L3.84603 3.06615C3.88215 3.22294 3.97055 3.36276 4.0967 3.46263C4.22285 3.5625 4.37922 3.61646 4.54011 3.61563H8.47323C8.63412 3.61646 8.7905 3.5625 8.91665 3.46263C9.0428 3.36276 9.1312 3.22294 9.16731 3.06615L9.76017 0.723633Z" stroke="#606060" stroke-width="1.446" stroke-linecap="round" stroke-linejoin="round"/>
<path d="M12.291 12.2915H16.629" stroke="#606060" stroke-width="1.446" stroke-linecap="round" stroke-linejoin="round"/>
<path d="M12.291 15.1831H16.629" stroke="#606060" stroke-width="1.446" stroke-linecap="round" stroke-linejoin="round"/>
</svg>
