<svg width="47" height="48" viewBox="0 0 47 48" fill="none" xmlns="http://www.w3.org/2000/svg">
<rect y="0.889648" width="46.1267" height="46.1267" rx="23.0634" fill="#EDF4FC"/>
<rect x="3.98975" y="4.9668" width="37.8793" height="38.4204" rx="18.9396" fill="#CA79C6"/>
<path d="M17 22.5C16.1716 22.5 15.5 23.1716 15.5 24C15.5 24.8284 16.1716 25.5 17 25.5C17.8284 25.5 18.5 24.8284 18.5 24C18.5 23.1716 17.8284 22.5 17 22.5Z" fill="white"/>
<path d="M21.5 24C21.5 23.1716 22.1716 22.5 23 22.5C23.8284 22.5 24.5 23.1716 24.5 24C24.5 24.8284 23.8284 25.5 23 25.5C22.1716 25.5 21.5 24.8284 21.5 24Z" fill="white"/>
<path d="M27.5 24C27.5 23.1716 28.1716 22.5 29 22.5C29.8284 22.5 30.5 23.1716 30.5 24C30.5 24.8284 29.8284 25.5 29 25.5C28.1716 25.5 27.5 24.8284 27.5 24Z" fill="white"/>
</svg>
