<svg width="26" height="28" viewBox="0 0 23 20" fill="none" xmlns="http://www.w3.org/2000/svg">
<path d="M4.28059 7.55556C3.96609 7.28599 3.49262 7.32241 3.22305 7.6369C2.95349 7.9514 2.98991 8.42487 3.3044 8.69444L7.48868 12.281C8.30133 12.9782 8.8595 13.4571 9.49145 13.6908C10.331 14.0014 11.254 14.0014 12.0935 13.6908C12.7255 13.4571 13.2837 12.9782 14.0963 12.281L18.2806 8.69444C18.5951 8.42487 18.6315 7.9514 18.3619 7.6369C18.0924 7.32241 17.6189 7.28599 17.3044 7.55556L13.233 11.0454C12.2624 11.8773 11.9198 12.1558 11.5731 12.284C11.0694 12.4704 10.5156 12.4704 10.0119 12.284C9.66517 12.1558 9.32262 11.8773 8.35203 11.0454L4.28059 7.55556Z" fill="#53B9EA"/>
<path fill-rule="evenodd" clip-rule="evenodd" d="M16.3191 2.375H5.26585C4.58953 2.37499 4.04397 2.37499 3.59996 2.40529C3.1434 2.43644 2.73969 2.50211 2.35742 2.66045C1.43856 3.04105 0.708535 3.77108 0.327933 4.68994C0.169589 5.07221 0.103916 5.47592 0.0727657 5.93248C0.0424715 6.37648 0.0424756 6.92204 0.0424806 7.59836V14.6516C0.0424756 15.328 0.0424715 15.8735 0.0727657 16.3175C0.103916 16.7741 0.169589 17.1778 0.327933 17.5601C0.708535 18.4789 1.43856 19.2089 2.35742 19.5895C2.73969 19.7479 3.1434 19.8136 3.59996 19.8447C4.04397 19.875 4.58952 19.875 5.26584 19.875H16.3191C16.9954 19.875 17.541 19.875 17.985 19.8447C18.4416 19.8136 18.8453 19.7479 19.2275 19.5895C20.1464 19.2089 20.8764 18.4789 21.257 17.5601C21.4154 17.1778 21.481 16.7741 21.5122 16.3175C21.5425 15.8735 21.5425 15.328 21.5425 14.6516V7.59836C21.5425 6.92204 21.5425 6.37648 21.5122 5.93248C21.481 5.47592 21.4154 5.07221 21.257 4.68994C20.8764 3.77108 20.1464 3.04105 19.2275 2.66045C18.8453 2.50211 18.4416 2.43644 17.985 2.40529C17.541 2.37499 16.9954 2.37499 16.3191 2.375ZM2.93144 4.04627C3.10048 3.97625 3.32188 3.92775 3.70207 3.90181C4.08899 3.87541 4.58331 3.875 5.29248 3.875H16.2925C17.0017 3.875 17.496 3.87541 17.8829 3.90181C18.2631 3.92775 18.4845 3.97625 18.6535 4.04627C19.2048 4.27463 19.6428 4.71265 19.8712 5.26396C19.9412 5.433 19.9897 5.6544 20.0157 6.03459C20.0421 6.42151 20.0425 6.91583 20.0425 7.625V14.625C20.0425 15.3342 20.0421 15.8285 20.0157 16.2154C19.9897 16.5956 19.9412 16.817 19.8712 16.986C19.6428 17.5374 19.2048 17.9754 18.6535 18.2037C18.4845 18.2737 18.2631 18.3223 17.8829 18.3482C17.496 18.3746 17.0017 18.375 16.2925 18.375H5.29248C4.58331 18.375 4.08899 18.3746 3.70207 18.3482C3.32188 18.3223 3.10048 18.2737 2.93144 18.2037C2.38013 17.9754 1.94211 17.5374 1.71375 16.986C1.64373 16.817 1.59523 16.5956 1.56929 16.2154C1.54289 15.8285 1.54248 15.3342 1.54248 14.625V7.625C1.54248 6.91583 1.54289 6.42151 1.56929 6.03459C1.59523 5.6544 1.64373 5.433 1.71375 5.26396C1.94211 4.71265 2.38013 4.27463 2.93144 4.04627Z" fill="#53B9EA"/>
<circle cx="19.75" cy="3.125" r="3" fill="#C91D30"/>
<circle cx="19.75" cy="3.125" r="3" fill="#C91D30"/>
</svg>
