<svg width="35" height="35" viewBox="0 0 35 35" fill="none" xmlns="http://www.w3.org/2000/svg">
<rect x="0.00488281" width="34.622" height="34.622" rx="12.2195" fill="#E8E8E8"/>
<path d="M17.5427 7.21008L15.1327 12.8201H12.7227C12.3227 12.8201 11.9327 12.8501 11.5527 12.9301L12.5527 10.5301L12.5927 10.4401L12.6527 10.2801C12.6827 10.2101 12.7027 10.1501 12.7327 10.1001C13.8927 7.41007 15.1927 6.57008 17.5427 7.21008Z" fill="#1A2B88"/>
<path d="M24.3327 13.09L24.3127 13.08C23.7127 12.91 23.1027 12.82 22.4827 12.82H16.2227L18.4727 7.59002L18.5027 7.52002C18.6427 7.57002 18.7927 7.64002 18.9427 7.69002L21.1527 8.62002C22.3827 9.13002 23.2427 9.66002 23.7727 10.3C23.8627 10.42 23.9427 10.53 24.0227 10.66C24.1127 10.8 24.1827 10.94 24.2227 11.09C24.2627 11.18 24.2927 11.26 24.3127 11.35C24.4627 11.86 24.4727 12.44 24.3327 13.09Z" fill="#1A2B88"/>
<path d="M18.1226 22.6601H18.3726C18.6726 22.6601 18.9226 22.3901 18.9226 22.0601C18.9226 21.6401 18.8026 21.5801 18.5426 21.4801L18.1226 21.3301V22.6601Z" fill="#1A2B88"/>
<path d="M23.8928 14.5201C23.4428 14.3901 22.9728 14.3201 22.4828 14.3201H12.7228C12.0428 14.3201 11.4028 14.4501 10.8028 14.7101C9.06277 15.4601 7.84277 17.1901 7.84277 19.2001V21.1501C7.84277 21.3901 7.86277 21.6201 7.89277 21.8601C8.11277 25.0401 9.81277 26.7401 12.9928 26.9501C13.2228 26.9801 13.4528 27.0001 13.7028 27.0001H21.5028C25.2028 27.0001 27.1528 25.2401 27.3428 21.7401C27.3528 21.5501 27.3628 21.3501 27.3628 21.1501V19.2001C27.3628 16.9901 25.8928 15.1301 23.8928 14.5201ZM18.8828 20.5001C19.3428 20.6601 19.9628 21.0001 19.9628 22.0601C19.9628 22.9701 19.2528 23.7001 18.3728 23.7001H18.1228V23.9201C18.1228 24.2101 17.8928 24.4401 17.6028 24.4401C17.3128 24.4401 17.0828 24.2101 17.0828 23.9201V23.7001H16.9928C16.0328 23.7001 15.2428 22.8901 15.2428 21.8901C15.2428 21.6001 15.4728 21.3701 15.7628 21.3701C16.0528 21.3701 16.2828 21.6001 16.2828 21.8901C16.2828 22.3101 16.6028 22.6601 16.9928 22.6601H17.0828V20.9701L16.3228 20.7001C15.8628 20.5401 15.2428 20.2001 15.2428 19.1401C15.2428 18.2301 15.9528 17.5001 16.8328 17.5001H17.0828V17.2801C17.0828 16.9901 17.3128 16.7601 17.6028 16.7601C17.8928 16.7601 18.1228 16.9901 18.1228 17.2801V17.5001H18.2128C19.1728 17.5001 19.9628 18.3101 19.9628 19.3101C19.9628 19.6001 19.7328 19.8301 19.4428 19.8301C19.1528 19.8301 18.9228 19.6001 18.9228 19.3101C18.9228 18.8901 18.6028 18.5401 18.2128 18.5401H18.1228V20.2301L18.8828 20.5001Z" fill="#1A2B88"/>
<path d="M16.2827 19.14C16.2827 19.56 16.4027 19.62 16.6627 19.72L17.0827 19.87V18.54H16.8327C16.5227 18.54 16.2827 18.81 16.2827 19.14Z" fill="#1A2B88"/>
</svg>
