<svg width="26" height="28" viewBox="0 0 24 24" fill="none" xmlns="http://www.w3.org/2000/svg">
<path d="M12 8.25003C12.4142 8.25003 12.75 8.58582 12.75 9.00003V11.25H15C15.4142 11.25 15.75 11.5858 15.75 12C15.75 12.4142 15.4142 12.75 15 12.75H12.75V15C12.75 15.4142 12.4142 15.75 12 15.75C11.5858 15.75 11.25 15.4142 11.25 15V12.75H9C8.58579 12.75 8.25 12.4142 8.25 12C8.25 11.5858 8.58579 11.25 9 11.25H11.25V9.00003C11.25 8.58582 11.5858 8.25003 12 8.25003Z" fill="#53B9EA"/>
<path fill-rule="evenodd" clip-rule="evenodd" d="M14.4889 1.32208C14.1255 1.24979 13.7501 1.24988 13.2072 1.25001L8.47337 1.25002C7.79705 1.25002 7.25149 1.25001 6.80748 1.28031C6.35092 1.31146 5.94721 1.37713 5.56494 1.53547C4.64608 1.91608 3.91605 2.6461 3.53545 3.56496C3.37711 3.94723 3.31144 4.35095 3.28029 4.8075C3.24999 5.25151 3.24999 5.79707 3.25 6.47339V17.5267C3.24999 18.203 3.24999 18.7485 3.28029 19.1925C3.31144 19.6491 3.37711 20.0528 3.53545 20.4351C3.91605 21.3539 4.64608 22.084 5.56494 22.4646C5.94721 22.6229 6.35092 22.6886 6.80748 22.7197C7.25148 22.75 7.79704 22.75 8.47336 22.75H15.5266C16.203 22.75 16.7485 22.75 17.1925 22.7197C17.6491 22.6886 18.0528 22.6229 18.4351 22.4646C19.3539 22.084 20.0839 21.3539 20.4645 20.4351C20.6229 20.0528 20.6886 19.6491 20.7197 19.1925C20.75 18.7485 20.75 18.203 20.75 17.5267L20.75 8.7928C20.7501 8.24998 20.7502 7.8745 20.6779 7.51107C20.5819 7.02808 20.3916 6.56874 20.118 6.15927C19.9121 5.85118 19.6466 5.58575 19.2627 5.20201L16.798 2.73735C16.4143 2.35344 16.1488 2.08787 15.8407 1.88201C15.4313 1.60842 14.9719 1.41815 14.4889 1.32208ZM13.136 2.75002C13.7768 2.75002 13.9958 2.75337 14.1963 2.79326C14.2143 2.79683 14.2322 2.80061 14.25 2.80462V7.00003C14.25 7.41424 14.5858 7.75003 15 7.75003H19.1954C19.1994 7.76787 19.2032 7.78576 19.2068 7.80371C19.2466 8.00421 19.25 8.22318 19.25 8.86398V17.5C19.25 18.2092 19.2496 18.7035 19.2232 19.0904C19.1973 19.4706 19.1487 19.692 19.0787 19.8611C18.8504 20.4124 18.4124 20.8504 17.861 21.0788C17.692 21.1488 17.4706 21.1973 17.0904 21.2232C16.7035 21.2496 16.2092 21.25 15.5 21.25H8.5C7.79083 21.25 7.29651 21.2496 6.90959 21.2232C6.5294 21.1973 6.308 21.1488 6.13896 21.0788C5.58765 20.8504 5.14963 20.4124 4.92127 19.8611C4.85125 19.692 4.80275 19.4706 4.77681 19.0904C4.75041 18.7035 4.75 18.2092 4.75 17.5V6.50002C4.75 5.79085 4.75041 5.29653 4.77681 4.90961C4.80275 4.52943 4.85125 4.30802 4.92127 4.13898C5.14963 3.58767 5.58765 3.14965 6.13896 2.92129C6.308 2.85128 6.5294 2.80277 6.90959 2.77683C7.29651 2.75043 7.79083 2.75002 8.5 2.75002H13.136ZM18.1893 6.25003L15.75 3.81069V6.25003H18.1893Z" fill="#53B9EA"/>
</svg>
