<svg width="20" height="22" viewBox="0 0 24 25" fill="none" xmlns="http://www.w3.org/2000/svg">
<g clip-path="url(#clip0_1_7914)">
<path d="M18.0435 6.47978L20.2462 8.68251L22.4609 6.46777" stroke="#335471" stroke-width="1.7" stroke-miterlimit="10"/>
<path d="M20.2463 8.68254V6.28175C20.2463 3.36478 17.8815 1 14.9645 1H14.4844" stroke="#335471" stroke-width="1.7" stroke-miterlimit="10"/>
<path d="M7.7619 13.5238C10.9441 13.5238 13.5238 10.9441 13.5238 7.7619C13.5238 4.57969 10.9441 2 7.7619 2C4.57969 2 2 4.57969 2 7.7619C2 10.9441 4.57969 13.5238 7.7619 13.5238Z" stroke="#335471" stroke-width="1.7" stroke-miterlimit="10"/>
<path d="M7.76221 3.44043V7.76186L10.4511 10.4507" stroke="#335471" stroke-width="1.7" stroke-miterlimit="10"/>
<path d="M6.42346 18.2087L4.21473 16L2 18.2147" stroke="#335471" stroke-width="1.7" stroke-miterlimit="10"/>
<path d="M4.21436 16V18.4008C4.21436 21.3178 6.57914 23.6825 9.4961 23.6825H9.97626" stroke="#335471" stroke-width="1.7" stroke-miterlimit="10"/>
<path d="M17.1906 23.0004C20.3728 23.0004 22.9525 20.4207 22.9525 17.2385C22.9525 14.0563 20.3728 11.4766 17.1906 11.4766C14.0084 11.4766 11.4287 14.0563 11.4287 17.2385C11.4287 20.4207 14.0084 23.0004 17.1906 23.0004Z" stroke="#335471" stroke-width="1.7" stroke-miterlimit="10"/>
<path d="M17.1909 21.9523V20.3809" stroke="#335471" stroke-width="1.5" stroke-miterlimit="10"/>
<path d="M17.1909 12.5244V14.0959" stroke="#335471" stroke-width="1.5" stroke-miterlimit="10"/>
<path d="M19.8099 16.191V15.6671C19.8099 15.2504 19.6444 14.8507 19.3497 14.556C19.055 14.2613 18.6553 14.0957 18.2385 14.0957H16.1432C15.7264 14.0957 15.3267 14.2613 15.032 14.556C14.7373 14.8507 14.5718 15.2504 14.5718 15.6671C14.5718 16.0839 14.7373 16.4836 15.032 16.7783C15.3267 17.073 15.7264 17.2386 16.1432 17.2386H18.2385C18.6553 17.2386 19.055 17.4042 19.3497 17.6989C19.6444 17.9936 19.8099 18.3933 19.8099 18.81C19.8099 19.2268 19.6444 19.6265 19.3497 19.9212C19.055 20.2159 18.6553 20.3815 18.2385 20.3815H16.1432C15.7264 20.3815 15.3267 20.2159 15.032 19.9212C14.7373 19.6265 14.5718 19.2268 14.5718 18.81V18.2862" stroke="#335471" stroke-width="1.5" stroke-miterlimit="10"/>
</g>
<defs>
<clipPath id="clip0_1_7914">
<rect width="24" height="24" fill="white" transform="translate(0 0.5)"/>
</clipPath>
</defs>
</svg>
