<svg width="47" height="47" viewBox="0 0 47 47" fill="none" xmlns="http://www.w3.org/2000/svg">
<rect y="0.663086" width="46.1267" height="46.1267" rx="23.0634" fill="#EDF4FC"/>
<rect x="3.98975" y="4.74023" width="37.8793" height="38.4204" rx="18.9396" fill="#F5640D"/>
<path d="M31.9339 29.8438C32.3481 29.8438 32.6839 29.508 32.6839 29.0938C32.6839 28.6795 32.3481 28.3438 31.9339 28.3438V29.8438ZM26.6772 28.3438C26.263 28.3438 25.9272 28.6795 25.9272 29.0938C25.9272 29.508 26.263 29.8438 26.6772 29.8438V28.3438ZM31.9339 28.3438H26.6772V29.8438H31.9339V28.3438Z" fill="white"/>
<path d="M28.5557 31.6137C28.5557 32.0279 28.8915 32.3637 29.3057 32.3637C29.7199 32.3637 30.0557 32.0279 30.0557 31.6137H28.5557ZM30.0557 26.5752C30.0557 26.161 29.7199 25.8252 29.3057 25.8252C28.8915 25.8252 28.5557 26.161 28.5557 26.5752H30.0557ZM30.0557 31.6137V26.5752H28.5557V31.6137H30.0557Z" fill="white"/>
<path d="M23.3913 31.6134H16.1929C15.0883 31.6134 14.1929 30.718 14.1929 29.6134V18.498C14.1929 17.3935 15.0883 16.498 16.1929 16.498H19.4993C20.0923 16.498 20.6547 16.7612 21.0347 17.2165L22.4637 18.9286C22.8437 19.3839 23.4062 19.6471 23.9992 19.6471H29.9339C31.0385 19.6471 31.9339 20.5425 31.9339 21.6471V23.43" stroke="white" stroke-width="1.5" stroke-linecap="round" stroke-linejoin="round"/>
</svg>
