<svg width="20" height="22" viewBox="0 0 24 25" fill="none" xmlns="http://www.w3.org/2000/svg">
<g clip-path="url(#clip0_1_7893)">
<path d="M17.0001 22.9999C20.3138 22.9999 23.0001 20.045 23.0001 16.3998C23.0001 12.7547 20.3138 9.7998 17.0001 9.7998C13.6863 9.7998 11 12.7547 11 16.3998C11 20.045 13.6863 22.9999 17.0001 22.9999Z" stroke="#335471" stroke-width="2" stroke-miterlimit="10"/>
<path d="M12.5251 20.8006H1V15.8506H11.0188" stroke="#335471" stroke-width="2" stroke-miterlimit="10"/>
<path d="M2.5 15.8504V10.9004H13.6814" stroke="#335471" stroke-width="2" stroke-miterlimit="10"/>
<path d="M17.5001 5.95003V1H2V5.95003H4.00002" stroke="#335471" stroke-width="2" stroke-miterlimit="10"/>
<path d="M4 10.9002V5.9502H19.5001V10.3984" stroke="#335471" stroke-width="2" stroke-miterlimit="10"/>
<path d="M17 21.3502V19.7002" stroke="#335471" stroke-width="1.5" stroke-miterlimit="10"/>
<path d="M17 11.4502V13.1002" stroke="#335471" stroke-width="1.5" stroke-miterlimit="10"/>
<path d="M19.5 15.3006V14.7506C19.5 14.313 19.342 13.8933 19.0607 13.5839C18.7794 13.2744 18.3979 13.1006 18 13.1006H16C15.6022 13.1006 15.2207 13.2744 14.9393 13.5839C14.658 13.8933 14.5 14.313 14.5 14.7506C14.5 15.1882 14.658 15.6079 14.9393 15.9173C15.2207 16.2268 15.6022 16.4006 16 16.4006H18C18.3979 16.4006 18.7794 16.5744 19.0607 16.8839C19.342 17.1933 19.5 17.613 19.5 18.0506C19.5 18.4882 19.342 18.9079 19.0607 19.2174C18.7794 19.5268 18.3979 19.7006 18 19.7006H16C15.6022 19.7006 15.2207 19.5268 14.9393 19.2174C14.658 18.9079 14.5 18.4882 14.5 18.0506V17.5006" stroke="#335471" stroke-width="1.5" stroke-miterlimit="10"/>
</g>
<defs>
<clipPath id="clip0_1_7893">
<rect width="24" height="24" fill="white" transform="translate(0 0.5)"/>
</clipPath>
</defs>
</svg>
