<svg width="26" height="28" viewBox="0 0 20 20" fill="none" xmlns="http://www.w3.org/2000/svg">
<g clip-path="url(#clip0_1_2809)">
<path d="M10 18.7501H13.5C14.9001 18.7501 15.6002 18.7501 16.135 18.4776C16.6054 18.238 16.9879 17.8555 17.2275 17.3851C17.5 16.8503 17.5 16.1502 17.5 14.7501V8.75008H2.5V14.7501C2.5 16.1502 2.5 16.8503 2.77249 17.3851C3.01216 17.8555 3.39461 18.238 3.86503 18.4776C4.3998 18.7501 5.09986 18.7501 6.5 18.7501H10ZM10 18.7501V5.00008M10 5.00008H16.875C17.4574 5.00008 17.7486 5.00008 17.9784 5.09523C18.2846 5.2221 18.528 5.46545 18.6549 5.77173C18.75 6.00145 18.75 6.29266 18.75 6.87508C18.75 7.45751 18.75 7.74872 18.6549 7.97843C18.528 8.28472 18.2846 8.52807 17.9784 8.65493C17.7486 8.75008 17.4574 8.75008 16.875 8.75008H3.125C2.54258 8.75008 2.25136 8.75008 2.02165 8.65493C1.71536 8.52807 1.47201 8.28472 1.34515 7.97843C1.25 7.74872 1.25 7.45751 1.25 6.87508C1.25 6.29266 1.25 6.00145 1.34515 5.77173C1.47201 5.46545 1.71536 5.2221 2.02165 5.09523C2.25136 5.00008 2.54258 5.00008 3.125 5.00008H5M10 5.00008C10 1.87976 7.62064 1.04596 6.25981 1.39206C4.38495 1.8689 4.53416 4.19122 5 5.00008M10 5.00008H5M10 5.00008C10 1.87976 12.3794 1.04596 13.7401 1.39206C15.615 1.8689 15.4659 4.19122 15 5.00008H10Z" stroke="#53B9EA" stroke-width="1.5" stroke-linecap="round" stroke-linejoin="round"/>
</g>
<defs>
<clipPath id="clip0_1_2809">
<rect width="20" height="20" fill="white"/>
</clipPath>
</defs>
</svg>
