<svg width="47" height="47" viewBox="0 0 47 47" fill="none" xmlns="http://www.w3.org/2000/svg">
<rect width="46.1267" height="46.1267" rx="23.0634" fill="#EDF4FC"/>
<rect x="4.25781" y="3.59863" width="37.8793" height="38.4204" rx="18.9396" fill="#335471"/>
<path d="M17.6323 32.8362C17.3667 32.8362 17.2008 32.5483 17.3341 32.3185L21.0037 25.9911C21.0654 25.8847 21.179 25.8193 21.3019 25.8193L34.6547 25.8182C34.9201 25.8182 35.086 26.1054 34.9533 26.3352L31.302 32.6638C31.2404 32.7705 31.1266 32.8362 31.0034 32.8362H17.6323Z" fill="white"/>
<path d="M17.7408 14.0496C17.8733 13.82 18.2046 13.8197 18.3376 14.049L21.9985 20.3615C22.0604 20.4683 22.0606 20.6 21.9989 20.7068L15.2968 32.319C15.1642 32.5489 14.8324 32.5489 14.6997 32.319L11.0462 25.9917C10.9846 25.8851 10.9846 25.7536 11.0462 25.647L17.7408 14.0496Z" fill="white"/>
<path d="M33.9823 23.6198C34.115 23.8496 33.9491 24.1369 33.6837 24.1369H26.3802C26.257 24.1369 26.1432 24.0712 26.0816 23.9645L19.3485 12.3003C19.2158 12.0705 19.3817 11.7832 19.647 11.7832H26.9506C27.0737 11.7832 27.1876 11.8489 27.2491 11.9556L33.9823 23.6198Z" fill="white"/>
</svg>
