<svg width="20" height="22" viewBox="0 0 26 23" fill="none" xmlns="http://www.w3.org/2000/svg">
<path d="M20.3044 21.4134H2.56522C2.1501 21.4134 1.75198 21.2485 1.45844 20.955C1.16491 20.6615 1 20.2633 1 19.8482V6.28299C1 5.86787 1.16491 5.46975 1.45844 5.17622C1.75198 4.88268 2.1501 4.71777 2.56522 4.71777H6.3087C6.58527 4.71825 6.85033 4.8285 7.04566 5.0243L9.04131 7.01995C9.23664 7.21575 9.50171 7.326 9.77827 7.32647H20.3044C20.7195 7.32647 21.1176 7.49138 21.4111 7.78491C21.7047 8.07845 21.8696 8.47657 21.8696 8.89169V19.8482C21.8696 20.2633 21.7047 20.6615 21.4111 20.955C21.1176 21.2485 20.7195 21.4134 20.3044 21.4134Z" stroke="#335471" stroke-width="2" stroke-miterlimit="10"/>
<path d="M4.13086 4.71735V3.15213C4.13086 2.73701 4.29577 2.33889 4.5893 2.04536C4.88284 1.75182 5.28096 1.58691 5.69608 1.58691H9.43956C9.71613 1.58739 9.98119 1.69764 10.1765 1.89344L12.1722 3.88909C12.3675 4.08489 12.6326 4.19514 12.9091 4.19561H23.4352C23.8504 4.19561 24.2485 4.36052 24.542 4.65405C24.8355 4.94759 25.0005 5.34571 25.0005 5.76083V16.7174C25.0005 17.1325 24.8355 17.5306 24.542 17.8241C24.2485 18.1177 23.8504 18.2826 23.4352 18.2826H21.87" stroke="#335471" stroke-width="2" stroke-miterlimit="10"/>
<path d="M13 9.93457H19.7826" stroke="#335471" stroke-width="2" stroke-miterlimit="10"/>
<path d="M13 12.543H19.7826" stroke="#335471" stroke-width="2" stroke-miterlimit="10"/>
<path d="M7.26079 13.587C8.41338 13.587 9.34775 12.6526 9.34775 11.5C9.34775 10.3474 8.41338 9.41309 7.26079 9.41309C6.10819 9.41309 5.17383 10.3474 5.17383 11.5C5.17383 12.6526 6.10819 13.587 7.26079 13.587Z" stroke="#335471" stroke-width="2" stroke-miterlimit="10"/>
<path d="M3.6084 19.326V17.4999C3.6084 17.0156 3.80079 16.5511 4.14325 16.2087C4.48571 15.8662 4.95018 15.6738 5.43449 15.6738H9.08666C9.57097 15.6738 10.0354 15.8662 10.3779 16.2087C10.7204 16.5511 10.9128 17.0156 10.9128 17.4999V19.326" stroke="#335471" stroke-width="2" stroke-miterlimit="10"/>
</svg>
