<svg width="47" height="47" viewBox="0 0 47 47" fill="none" xmlns="http://www.w3.org/2000/svg">
<rect width="46.1267" height="46.1267" rx="23.0634" fill="#EDF4FC"/>
<rect x="3.98975" y="4.07715" width="37.8793" height="38.4204" rx="18.9397" fill="#53B9EA"/>
<path d="M24.9919 19.9895L19.5918 25.6295C19.2372 26.0015 19.0396 26.4956 19.0396 27.0095C19.0396 27.5234 19.2372 28.0176 19.5918 28.3895C19.9637 28.7441 20.458 28.9419 20.9719 28.9419C21.4858 28.9419 21.9799 28.7441 22.3518 28.3895L28.8718 21.6495C29.6016 20.9184 30.0115 19.9275 30.0115 18.8945C30.0115 17.8615 29.6016 16.8707 28.8718 16.1395C28.1407 15.4098 27.15 15 26.1169 15C25.0839 15 24.093 15.4098 23.3618 16.1395L16.7119 23.0195C15.6158 24.1165 15 25.6038 15 27.1545C15 28.7053 15.6158 30.1926 16.7119 31.2896C17.2542 31.832 17.8981 32.2623 18.6067 32.5559C19.3153 32.8495 20.0748 33.0005 20.8418 33.0005C21.6088 33.0005 22.3683 32.8495 23.0769 32.5559C23.7855 32.2623 24.4296 31.832 24.9719 31.2896L30.9719 24.9995" stroke="white" stroke-width="1.5" stroke-miterlimit="10"/>
</svg>
