<svg width="20" height="22" viewBox="0 0 24 25" fill="none" xmlns="http://www.w3.org/2000/svg">
<g clip-path="url(#clip0_1_7933)">
<path d="M2.52624 17.5144C2.11732 17.5195 1.83012 17.2447 1.8155 16.8345C1.79887 16.3641 2.15341 15.952 2.57675 15.9492C3.06827 15.9463 3.44808 16.2472 3.45129 16.6411C3.45469 17.0664 2.98596 17.5084 2.52624 17.5144Z" fill="#335471" stroke="#335471" stroke-width="0.5"/>
<path d="M5.45261 21.6861C5.31081 22.2908 5.23159 22.4617 5.08905 23.0215C5.04921 23.2099 4.9625 23.3795 4.84015 23.5088C4.71781 23.6381 4.56546 23.7209 4.40283 23.7466C3.47642 23.9078 2.54896 24.0991 1.60676 23.9412C0.742353 23.7959 0.190294 23.1545 0.147093 22.1229C0.0735469 20.366 0.0476418 18.6065 0.00935675 16.8478C-0.00189281 16.3319 -0.00764694 15.8139 0.0196731 15.2994C0.075258 14.2547 0.489478 13.6981 1.37146 13.6271C2.33786 13.5488 3.31052 13.568 4.28051 13.5665C4.66147 13.5659 4.89713 13.8668 5.06511 14.2379C5.14801 14.421 5.20691 14.6191 5.27251 14.7969C5.87611 14.6963 6.46004 14.5693 7.04879 14.5071C8.12578 14.3935 9.18643 14.5295 10.1894 15.0232C11.3571 15.5986 12.5616 15.7212 13.8049 15.5807C14.1106 15.5482 14.4186 15.5599 14.7219 15.6158C15.7169 15.7946 16.1952 16.6684 15.9466 17.8138C15.9267 17.9051 15.897 17.9927 15.8432 18.1855C16.1924 18.1555 16.5015 18.1416 16.808 18.1007C18.1216 17.9249 19.3465 17.3712 20.5799 16.853C21.1276 16.6229 21.6699 16.3672 22.2291 16.1861C22.5574 16.087 22.8969 16.0517 23.2346 16.0813C23.8329 16.1262 24.1118 16.6404 23.9587 17.3207C23.8331 17.8797 23.5443 18.3063 23.1908 18.6847C22.1662 19.7805 20.9661 20.512 19.6723 21.0464C17.8509 21.7985 15.9905 22.3622 14.0712 22.6252C11.5258 22.992 8.90787 22.9956 6.48263 22.0109C6.13656 21.8692 5.77629 21.8111 5.45261 21.6861ZM5.47047 20.6018C6.05657 20.7846 6.59966 20.957 7.14369 21.1229C8.84469 21.6408 10.5739 21.9351 12.3285 21.7953C14.947 21.5868 17.4562 20.7876 19.8892 19.6468C20.8263 19.2163 21.6919 18.5942 22.4469 17.8092C22.6113 17.6166 22.7658 17.4126 22.9097 17.1983L22.8289 17.0546C22.4806 17.1767 22.1282 17.2845 21.7848 17.4235C20.5931 17.906 19.4132 18.4317 18.2123 18.8783C17.2642 19.2308 16.2865 19.3754 15.2912 19.1204C15.15 19.0933 15.0051 19.1201 14.8776 19.1967C13.6133 19.956 12.248 20.0928 10.8669 20.1016C10.545 20.0837 10.2265 20.0146 9.9202 19.8959C9.87171 19.8836 9.82596 19.8599 9.78559 19.8258C9.74522 19.7918 9.7111 19.7485 9.68547 19.6984C9.65977 19.6483 9.64303 19.5926 9.63623 19.5345C9.62952 19.4766 9.63282 19.4173 9.64605 19.3609C9.69427 19.1685 9.79891 19.0025 9.94129 18.8932C10.1171 18.7959 10.3084 18.7438 10.5026 18.74C11.0345 18.6901 11.568 18.6618 12.1009 18.6269C12.8477 18.5773 13.5871 18.4622 14.2707 18.0891C14.5478 17.9399 14.7955 17.7235 14.9979 17.4542C15.2456 17.113 15.1137 16.7776 14.7331 16.7319C14.4268 16.7064 14.1192 16.7103 13.8135 16.7442C12.5562 16.8398 11.3253 16.7374 10.1526 16.1287C9.93004 16.0149 9.70211 15.9164 9.46985 15.834C8.30466 15.4034 7.05954 15.3769 5.88206 15.7579C5.42415 15.9032 5.42831 15.9267 5.45261 16.4701C5.49118 17.3484 5.54214 18.2266 5.55575 19.1058C5.56321 19.5799 5.50421 20.0551 5.47047 20.6018ZM4.12339 14.6457C3.34822 14.6457 2.60785 14.6372 1.86747 14.6482C1.20433 14.6581 1.039 14.8579 1.02453 15.6408C0.987479 17.6469 0.932177 19.6529 0.930002 21.659C0.929152 22.5087 1.28592 22.7857 1.79582 22.7405C2.47192 22.6808 3.14763 22.6084 3.8209 22.5126C4.17605 22.4622 4.23863 22.3319 4.2323 21.8908C4.21146 21.5287 4.2106 21.1651 4.22974 20.8028C4.40934 18.9487 4.28247 17.0983 4.20458 15.2471C4.18626 15.0451 4.15935 14.8443 4.12339 14.6457Z" fill="#335471" stroke="#335471"/>
<path d="M10.5 13C12.433 13 14 11.433 14 9.5C14 7.567 12.433 6 10.5 6C8.567 6 7 7.567 7 9.5C7 11.433 8.567 13 10.5 13Z" stroke="#335471" stroke-width="2" stroke-miterlimit="10"/>
<path d="M10.5977 11.2504V10.667" stroke="#335471" stroke-width="0.7" stroke-miterlimit="10"/>
<path d="M10.5977 7.75V8.33338" stroke="#335471" stroke-width="0.7" stroke-miterlimit="10"/>
<path d="M11.5696 9.11085V8.91639C11.5696 8.76167 11.5081 8.61328 11.3987 8.50388C11.2893 8.39447 11.1409 8.33301 10.9862 8.33301H10.2084C10.0537 8.33301 9.90527 8.39447 9.79587 8.50388C9.68646 8.61328 9.625 8.76167 9.625 8.91639C9.625 9.07111 9.68646 9.2195 9.79587 9.3289C9.90527 9.43831 10.0537 9.49977 10.2084 9.49977H10.9862C11.1409 9.49977 11.2893 9.56123 11.3987 9.67064C11.5081 9.78004 11.5696 9.92843 11.5696 10.0832C11.5696 10.2379 11.5081 10.3863 11.3987 10.4957C11.2893 10.6051 11.1409 10.6665 10.9862 10.6665H10.2084C10.0537 10.6665 9.90527 10.6051 9.79587 10.4957C9.68646 10.3863 9.625 10.2379 9.625 10.0832V9.88869" stroke="#335471" stroke-width="0.7" stroke-miterlimit="10"/>
<path d="M19.5 9C21.433 9 23 7.433 23 5.5C23 3.567 21.433 2 19.5 2C17.567 2 16 3.567 16 5.5C16 7.433 17.567 9 19.5 9Z" stroke="#335471" stroke-width="2" stroke-miterlimit="10"/>
<path d="M19.5977 7.25037V6.66699" stroke="#335471" stroke-width="0.7" stroke-miterlimit="10"/>
<path d="M19.5977 3.75V4.33338" stroke="#335471" stroke-width="0.7" stroke-miterlimit="10"/>
<path d="M20.5696 5.11085V4.91639C20.5696 4.76167 20.5081 4.61328 20.3987 4.50388C20.2893 4.39447 20.1409 4.33301 19.9862 4.33301H19.2084C19.0537 4.33301 18.9053 4.39447 18.7959 4.50388C18.6865 4.61328 18.625 4.76167 18.625 4.91639C18.625 5.07111 18.6865 5.2195 18.7959 5.3289C18.9053 5.43831 19.0537 5.49977 19.2084 5.49977H19.9862C20.1409 5.49977 20.2893 5.56123 20.3987 5.67064C20.5081 5.78004 20.5696 5.92843 20.5696 6.08315C20.5696 6.23787 20.5081 6.38626 20.3987 6.49566C20.2893 6.60507 20.1409 6.66653 19.9862 6.66653H19.2084C19.0537 6.66653 18.9053 6.60507 18.7959 6.49566C18.6865 6.38626 18.625 6.23787 18.625 6.08315V5.88869" stroke="#335471" stroke-width="0.7" stroke-miterlimit="10"/>
</g>
<defs>
<clipPath id="clip0_1_7933">
<rect width="24" height="24" fill="white" transform="translate(0 0.5)"/>
</clipPath>
</defs>
</svg>
