<svg width="20" height="22" viewBox="0 0 24 25" fill="none" xmlns="http://www.w3.org/2000/svg">
<path d="M11.9668 19.118H4.49168C4.0332 19.118 3.66113 18.8203 3.66113 18.4535V6.49338C3.66113 6.12659 4.03324 5.82894 4.49168 5.82894H11.9668C12.4261 5.82894 12.7973 5.53194 12.7973 5.1645C12.7973 4.79706 12.4261 4.5 11.9668 4.5H4.49168C3.11793 4.5 2 5.39438 2 6.49338V18.4535C2 19.5525 3.11793 20.4468 4.49168 20.4468H11.9668C12.4261 20.4468 12.7973 20.1498 12.7973 19.7824C12.7973 19.415 12.4261 19.118 11.9668 19.118Z" fill="#335471"/>
<path d="M21.7525 12.0003L16.7027 8.01356C16.3771 7.75574 15.8505 7.75909 15.5282 8.02021C15.206 8.28134 15.2093 8.70193 15.5366 8.95974L19.1453 11.8089H14.3102H9.47508C9.01578 11.8089 8.64453 12.1059 8.64453 12.4733C8.64453 12.8408 9.01578 13.1378 9.47508 13.1378H19.1453L15.5366 15.987C15.2093 16.2448 15.2068 16.6654 15.5282 16.9265C15.691 17.0581 15.9053 17.1245 16.1196 17.1245C16.3306 17.1245 16.5415 17.0607 16.7027 16.9331L21.7525 12.9464C21.9103 12.8215 22 12.6514 22 12.4733C22 12.2953 21.9111 12.1259 21.7525 12.0003Z" fill="#335471"/>
</svg>
