<svg width="28" height="28" viewBox="0 0 25 24" fill="none" xmlns="http://www.w3.org/2000/svg">
<path fill-rule="evenodd" clip-rule="evenodd" d="M12.0425 3.75C7.48613 3.75 3.79248 7.44365 3.79248 12C3.79248 14.151 4.61466 16.1082 5.96321 17.5773C6.15354 17.7846 6.21176 18.081 6.11399 18.345L5.4714 20.0796L7.75068 19.3245C7.94016 19.2617 8.14686 19.2771 8.32499 19.3671C9.44126 19.9316 10.7036 20.25 12.0425 20.25C16.5988 20.25 20.2925 16.5563 20.2925 12C20.2925 7.44365 16.5988 3.75 12.0425 3.75ZM2.29248 12C2.29248 6.61522 6.6577 2.25 12.0425 2.25C17.4273 2.25 21.7925 6.61522 21.7925 12C21.7925 17.3848 17.4273 21.75 12.0425 21.75C10.5757 21.75 9.18284 21.4256 7.9333 20.8442L4.46193 21.9942C4.18826 22.0849 3.88685 22.0106 3.68657 21.8033C3.4863 21.5959 3.42262 21.2921 3.52277 21.0217L4.55242 18.2423C3.14193 16.5515 2.29248 14.3742 2.29248 12Z" fill="#53B9EA"/>
<path d="M9.04248 12C9.04248 12.5523 8.59477 13 8.04248 13C7.4902 13 7.04248 12.5523 7.04248 12C7.04248 11.4477 7.4902 11 8.04248 11C8.59477 11 9.04248 11.4477 9.04248 12Z" fill="#53B9EA"/>
<path d="M13.0425 12C13.0425 12.5523 12.5948 13 12.0425 13C11.4902 13 11.0425 12.5523 11.0425 12C11.0425 11.4477 11.4902 11 12.0425 11C12.5948 11 13.0425 11.4477 13.0425 12Z" fill="#53B9EA"/>
<path d="M17.0425 12C17.0425 12.5523 16.5948 13 16.0425 13C15.4902 13 15.0425 12.5523 15.0425 12C15.0425 11.4477 15.4902 11 16.0425 11C16.5948 11 17.0425 11.4477 17.0425 12Z" fill="#53B9EA"/>
<circle cx="18" cy="5" r="3" fill="#C91D30"/>
<circle cx="18" cy="5" r="3" fill="#C91D30"/>
</svg>
