<svg width="20" height="22" viewBox="0 0 28 27" fill="none" xmlns="http://www.w3.org/2000/svg">
<path d="M16.7895 16.6572V16.0256C16.7895 14.9756 15.9447 14.1309 14.8947 14.1309H12.3684C11.3184 14.1309 10.4736 14.9756 10.4736 16.0256C10.4736 17.0756 11.3184 17.9204 12.3684 17.9204H14.8947C15.9447 17.9204 16.7895 18.7651 16.7895 19.8151C16.7895 20.8651 15.9447 21.7099 14.8947 21.7099H12.3684C11.3184 21.7099 10.4736 20.8651 10.4736 19.8151V19.1835" stroke="#335471" stroke-width="2" stroke-miterlimit="10"/>
<path d="M20.5792 1.5L15.602 6.47714C15.2115 6.86767 14.5784 6.86766 14.1878 6.47714L11.181 3.47027C10.7904 3.07975 10.1573 3.07975 9.76675 3.47027L5.67383 7.5632" stroke="#335471" stroke-width="2" stroke-miterlimit="10"/>
<path d="M15.5264 1.5H19.579C20.1313 1.5 20.579 1.94772 20.579 2.5V6.55267" stroke="#335471" stroke-width="2" stroke-miterlimit="10"/>
<path d="M25.2633 10.3418H2C1.44772 10.3418 1 10.7895 1 11.3418V24.4998C1 25.0521 1.44772 25.4998 2 25.4998H25.2633C25.8156 25.4998 26.2633 25.0521 26.2633 24.4998V11.3418C26.2633 10.7895 25.8156 10.3418 25.2633 10.3418Z" stroke="#335471" stroke-width="2" stroke-miterlimit="10"/>
<path d="M13.6318 23.6057V21.7109" stroke="#335471" stroke-width="2" stroke-miterlimit="10"/>
<path d="M13.6318 12.2363V14.1311" stroke="#335471" stroke-width="2" stroke-miterlimit="10"/>
<path d="M21.2104 25.4999V24.8683C21.2104 22.4289 23.192 20.4473 25.6315 20.4473H26.2631" stroke="#335471" stroke-width="2" stroke-miterlimit="10"/>
<path d="M21.2104 10.3418V10.9734C21.2104 13.4129 23.192 15.3945 25.6315 15.3945H26.2631" stroke="#335471" stroke-width="2" stroke-miterlimit="10"/>
<path d="M6.05266 25.4999V24.8683C6.05266 22.4289 4.07107 20.4473 1.63158 20.4473H1" stroke="#335471" stroke-width="2" stroke-miterlimit="10"/>
<path d="M6.05266 10.3418V10.9734C6.05266 13.4129 4.07107 15.3945 1.63158 15.3945H1" stroke="#335471" stroke-width="2" stroke-miterlimit="10"/>
</svg>
