<svg width="20" height="22" viewBox="0 0 24 25" fill="none" xmlns="http://www.w3.org/2000/svg">
<path d="M9.33333 20.7497C11.8646 20.7497 13.9167 18.6976 13.9167 16.1663C13.9167 13.635 11.8646 11.583 9.33333 11.583C6.80203 11.583 4.75 13.635 4.75 16.1663C4.75 18.6976 6.80203 20.7497 9.33333 20.7497Z" stroke="#335471" stroke-width="2" stroke-linejoin="round"/>
<path d="M17.5835 9.75C19.1023 9.75 20.3335 8.51878 20.3335 7C20.3335 5.48122 19.1023 4.25 17.5835 4.25C16.0647 4.25 14.8335 5.48122 14.8335 7C14.8335 8.51878 16.0647 9.75 17.5835 9.75Z" stroke="#335471" stroke-width="2" stroke-linejoin="round"/>
<path d="M9.3335 11.583V8.83301" stroke="#335471" stroke-width="2" stroke-linejoin="round"/>
<path d="M9.3335 23.5V20.75" stroke="#335471" stroke-width="2" stroke-linejoin="round"/>
<path d="M13.9165 16.167H16.6665" stroke="#335471" stroke-width="2" stroke-linejoin="round"/>
<path d="M2 16.167H4.75" stroke="#335471" stroke-width="2" stroke-linejoin="round"/>
<path d="M12.5781 12.9219L14.5215 10.9785" stroke="#335471" stroke-width="2" stroke-linejoin="round"/>
<path d="M4.1543 21.3548L6.09762 19.4023" stroke="#335471" stroke-width="2" stroke-linejoin="round"/>
<path d="M12.5781 19.4023L14.5215 21.3548" stroke="#335471" stroke-width="2" stroke-linejoin="round"/>
<path d="M4.1543 10.9785L6.09762 12.9219" stroke="#335471" stroke-width="2" stroke-linejoin="round"/>
<path d="M17.5835 4.25V1.5" stroke="#335471" stroke-width="2" stroke-linejoin="round"/>
<path d="M17.5835 12.5V9.75" stroke="#335471" stroke-width="2" stroke-linejoin="round"/>
<path d="M19.9668 5.625L22.3501 4.25" stroke="#335471" stroke-width="2" stroke-linejoin="round"/>
<path d="M12.8257 9.75L15.209 8.375" stroke="#335471" stroke-width="2" stroke-linejoin="round"/>
<path d="M15.209 5.625L12.8257 4.25" stroke="#335471" stroke-width="2" stroke-linejoin="round"/>
<path d="M22.3501 9.75L19.9668 8.375" stroke="#335471" stroke-width="2" stroke-linejoin="round"/>
</svg>
