<svg width="20" height="22" viewBox="0 0 24 25" fill="none" xmlns="http://www.w3.org/2000/svg">
<path d="M12 19.333V18.083" stroke="#335471" stroke-width="1.5" stroke-miterlimit="10"/>
<path d="M12 11V12.25" stroke="#335471" stroke-width="1.5" stroke-miterlimit="10"/>
<path d="M14.5 13.9167V13.5C14.5 13.1685 14.3683 12.8505 14.1339 12.6161C13.8995 12.3817 13.5815 12.25 13.25 12.25H10.75C10.4185 12.25 10.1005 12.3817 9.86612 12.6161C9.6317 12.8505 9.5 13.1685 9.5 13.5V13.9167C9.5 14.2482 9.6317 14.5661 9.86612 14.8005C10.1005 15.035 10.4185 15.1667 10.75 15.1667H13.25C13.5815 15.1667 13.8995 15.2984 14.1339 15.5328C14.3683 15.7672 14.5 16.0851 14.5 16.4167V16.8333C14.5 17.1649 14.3683 17.4828 14.1339 17.7172C13.8995 17.9516 13.5815 18.0833 13.25 18.0833H10.75C10.4185 18.0833 10.1005 17.9516 9.86612 17.7172C9.6317 17.4828 9.5 17.1649 9.5 16.8333V16.4167" stroke="#335471" stroke-width="1.5" stroke-miterlimit="10"/>
<path d="M16.0742 5.48145C16.0742 5.01004 16.0742 4.77434 16.2207 4.62789C16.3671 4.48145 16.6028 4.48145 17.0742 4.48145H18.0372C18.5086 4.48145 18.7443 4.48145 18.8907 4.62789C19.0372 4.77434 19.0372 5.01004 19.0372 5.48145V10.4074L16.66 8.03019C16.371 7.74116 16.2265 7.59665 16.1503 7.41288C16.0742 7.22911 16.0742 7.02473 16.0742 6.61598V5.48145Z" fill="#335471"/>
<path d="M2 12.6296L10.2154 4.41421C10.8821 3.74755 11.2154 3.41421 11.6296 3.41421C12.0438 3.41421 12.3772 3.74755 13.0438 4.41421L21.2593 12.6296" stroke="#335471" stroke-width="2" stroke-linecap="round"/>
<path d="M3.77434 22.7074L3.06723 23.4145L3.77434 22.7074ZM19.4848 22.7074L18.7777 22.0003L19.4848 22.7074ZM18.7777 11.1484V21.0003H20.7777V11.1484H18.7777ZM17.7777 22.0003H5.48144V24.0003H17.7777V22.0003ZM4.48145 21.0003V11.1484H2.48145V21.0003H4.48145ZM5.48144 22.0003C4.98177 22.0003 4.70761 21.9982 4.51742 21.9726C4.356 21.9509 4.41112 21.93 4.48145 22.0003L3.06723 23.4145C3.43045 23.7777 3.86772 23.9032 4.25093 23.9548C4.60536 24.0024 5.03831 24.0003 5.48144 24.0003V22.0003ZM2.48145 21.0003C2.48145 21.4434 2.47932 21.8764 2.52697 22.2308C2.57849 22.614 2.70402 23.0513 3.06723 23.4145L4.48145 22.0003C4.55177 22.0706 4.53084 22.1257 4.50914 21.9643C4.48357 21.7741 4.48145 21.5 4.48145 21.0003H2.48145ZM18.7777 21.0003C18.7777 21.5 18.7756 21.7741 18.75 21.9643C18.7283 22.1257 18.7074 22.0706 18.7777 22.0003L20.192 23.4145C20.5552 23.0513 20.6807 22.614 20.7322 22.2308C20.7799 21.8764 20.7777 21.4434 20.7777 21.0003H18.7777ZM17.7777 24.0003C18.2209 24.0003 18.6538 24.0024 19.0083 23.9548C19.3915 23.9032 19.8287 23.7777 20.192 23.4145L18.7777 22.0003C18.8481 21.93 18.9032 21.9509 18.7418 21.9726C18.5516 21.9982 18.2774 22.0003 17.7777 22.0003V24.0003Z" fill="#335471"/>
</svg>
