<svg width="20" height="22" viewBox="0 0 21 23" fill="none" xmlns="http://www.w3.org/2000/svg">
<path d="M3 3.99512H18C18.3044 3.99497 18.6048 4.06436 18.8784 4.19794C19.152 4.33152 19.3915 4.52577 19.5786 4.76593C19.7657 5.00609 19.8956 5.28581 19.9583 5.58374C20.0209 5.88167 20.0145 6.19 19.9399 6.48517L18.9399 12.4852C18.8308 12.9169 18.5807 13.2999 18.2292 13.5734C17.8778 13.847 17.4453 13.9953 17 13.9951H5C4.46957 13.9951 3.96077 13.7844 3.58569 13.4094C3.21062 13.0343 3 12.5256 3 11.9951V3.99512ZM3 3.99512C3 3.46468 2.78914 2.95601 2.41406 2.58093C2.03899 2.20586 1.53043 1.99512 1 1.99512H0" stroke="#335471" stroke-width="2" stroke-linejoin="round"/>
<path d="M16 21.0049C17.1046 21.0049 18 20.1095 18 19.0049C18 17.9003 17.1046 17.0049 16 17.0049C14.8954 17.0049 14 17.9003 14 19.0049C14 20.1095 14.8954 21.0049 16 21.0049Z" stroke="#335471" stroke-width="2" stroke-miterlimit="10"/>
<path d="M6 21.0049C7.10457 21.0049 8 20.1095 8 19.0049C8 17.9003 7.10457 17.0049 6 17.0049C4.89543 17.0049 4 17.9003 4 19.0049C4 20.1095 4.89543 21.0049 6 21.0049Z" stroke="#335471" stroke-width="2" stroke-miterlimit="10"/>
</svg>
