<svg width="47" height="47" viewBox="0 0 47 47" fill="none" xmlns="http://www.w3.org/2000/svg">
<rect width="46.1267" height="46.1267" rx="23.0634" fill="#EDF4FC"/>
<rect x="3.98975" y="4.07715" width="37.8793" height="38.4204" rx="18.9397" fill="#53B9EA"/>
<path d="M23 13C17.486 13 13 17.486 13 23C13 28.514 17.486 33 23 33C28.514 33 33 28.514 33 23C33 17.486 28.514 13 23 13ZM23 31C18.589 31 15 27.411 15 23C15 18.589 18.589 15 23 15C27.411 15 31 18.589 31 23C31 27.411 27.411 31 23 31Z" fill="white"/>
<path d="M24 18H22V24H28V22H24V18Z" fill="white"/>
</svg>
