<svg width="47" height="47" viewBox="0 0 47 47" fill="none" xmlns="http://www.w3.org/2000/svg">
<rect y="0.501953" width="46.1267" height="46.1267" rx="23.0634" fill="#EDF4FC"/>
<rect x="3.98975" y="4.5791" width="37.8793" height="38.4204" rx="18.9396" fill="#45B020"/>
<path d="M16.2964 19.5879C17.6771 19.5879 18.7964 18.4686 18.7964 17.0879C18.7964 15.7072 17.6771 14.5879 16.2964 14.5879C14.9157 14.5879 13.7964 15.7072 13.7964 17.0879C13.7964 18.4686 14.9157 19.5879 16.2964 19.5879Z" stroke="white" stroke-width="2" stroke-miterlimit="10"/>
<path d="M16.2964 27.0879C17.6771 27.0879 18.7964 25.9686 18.7964 24.5879C18.7964 23.2072 17.6771 22.0879 16.2964 22.0879C14.9157 22.0879 13.7964 23.2072 13.7964 24.5879C13.7964 25.9686 14.9157 27.0879 16.2964 27.0879Z" stroke="white" stroke-width="2" stroke-miterlimit="10"/>
<path d="M16.2964 34.5879C17.6771 34.5879 18.7964 33.4686 18.7964 32.0879C18.7964 30.7072 17.6771 29.5879 16.2964 29.5879C14.9157 29.5879 13.7964 30.7072 13.7964 32.0879C13.7964 33.4686 14.9157 34.5879 16.2964 34.5879Z" stroke="white" stroke-width="2" stroke-miterlimit="10"/>
<path d="M20.7964 17.0879H33.2964" stroke="white" stroke-width="2" stroke-miterlimit="10"/>
<path d="M20.7964 24.5879H33.2964" stroke="white" stroke-width="2" stroke-miterlimit="10"/>
<path d="M20.7964 32.0879H33.2964" stroke="white" stroke-width="2" stroke-miterlimit="10"/>
</svg>
