<svg width="35" height="35" viewBox="0 0 35 35" fill="none" xmlns="http://www.w3.org/2000/svg">
<path d="M0 12.2195C0 5.47086 5.47086 0 12.2195 0H22.4024C29.1511 0 34.622 5.47086 34.622 12.2195V22.4024C34.622 29.1511 29.1511 34.622 22.4024 34.622H12.2195C5.47086 34.622 0 29.1511 0 22.4024V12.2195Z" fill="#E8E8E8"/>
<path d="M28.2969 27.5937H5.70312C5.31448 27.5937 5 27.9082 5 28.2969C5 28.6855 5.31448 29 5.70312 29H28.2969C28.6855 29 29 28.6855 29 28.2969C29 27.9082 28.6855 27.5937 28.2969 27.5937Z" fill="#1A2B88"/>
<path d="M11.375 16.2969H7.10937C6.72073 16.2969 6.40625 16.6114 6.40625 17V20.5156H12.0781V17C12.0781 16.6114 11.7636 16.2969 11.375 16.2969Z" fill="#1A2B88"/>
<path d="M12.0781 21.9219H6.40625V26.1875H12.0781V21.9219Z" fill="#1A2B88"/>
<path d="M19.1094 10.6719H14.8906C14.502 10.6719 14.1875 10.9864 14.1875 11.375V20.5156H19.8125V11.375C19.8125 10.9864 19.498 10.6719 19.1094 10.6719Z" fill="#1A2B88"/>
<path d="M19.8125 21.9219H14.1875V26.1875H19.8125V21.9219Z" fill="#1A2B88"/>
<path d="M26.8906 5H22.625C22.2364 5 21.9219 5.31448 21.9219 5.70312V12.0781H27.5937V5.70312C27.5937 5.31448 27.2793 5 26.8906 5Z" fill="#1A2B88"/>
<path d="M27.5937 13.4844H21.9219V26.1875H27.5937V13.4844Z" fill="#1A2B88"/>
</svg>
