<svg xmlns="http://www.w3.org/2000/svg" xmlns:xlink="http://www.w3.org/1999/xlink" width="256" height="256" viewBox="0 0 256 256"><defs><linearGradient id="c" x1="50%" x2="50%" y1="1.983%" y2="84.301%"><stop offset="0%" stop-color="#1FD7DB"/><stop offset="100%" stop-color="#00F9FF" stop-opacity="0"/></linearGradient><linearGradient id="e" x1="95.808%" x2="4.193%" y1="24.318%" y2="75.681%"><stop offset="0%" stop-color="#74ABFD"/><stop offset="100%" stop-color="#5094F9" stop-opacity="0"/></linearGradient><path id="a" d="M128,0 C198.692448,-1.2985992e-14 256,57.307552 256,128 C256,198.692448 198.692448,256 128,256 C57.307552,256 8.65732801e-15,198.692448 0,128 C-8.65732801e-15,57.307552 57.307552,1.2985992e-14 128,0 Z"/><path id="b" d="M75.4446785,33.0981227 C79.7190029,33.5325502 79.8151844,36.7357624 79.6103673,39.8989086 L79.5840469,40.2858414 L79.5562997,40.6712277 C79.542333,40.8633432 79.5284244,41.054449 79.5154637,41.2439006 C78.0764884,62.3888422 61.2779253,78.1839094 40.0509369,78.3501069 C19.0174949,78.5142005 1.21543582,62.7654161 0.291883001,42.9689879 C0.123581805,39.3547197 -1.24596918,34.1457976 3.84934954,33.2895653 C7.84305146,32.6186234 8.61769394,35.0715025 8.9511462,37.8018208 L8.99153194,38.1516599 C8.99793479,38.2101445 9.00419144,38.2686999 9.01032862,38.3272986 L9.04813755,38.7016575 L9.10214965,39.2619378 L9.13861179,39.6323086 C9.2007585,40.2463935 9.2719352,40.8422787 9.38435513,41.3869566 C12.8829163,58.2928118 21.4725886,67.0129175 36.6701866,68.9820415 C49.2906726,70.6166669 61.9469225,63.5143564 67.1852973,51.3924627 C68.6726591,47.9464957 69.1060347,44.014559 69.8002771,40.2656499 C69.8347638,40.079354 69.8676928,39.8910234 69.8998854,39.7014872 L69.9635318,39.3210527 C70.0161577,39.0030937 70.0682587,38.6833207 70.1236366,38.3655717 L70.1919063,37.9854899 L70.2268684,37.8008243 L70.2268684,37.8008243 L70.3007774,37.4346318 C70.8391256,34.8883425 71.8515882,32.7340311 75.4446785,33.0981227 Z M56.6567952,33.0034533 C60.2037429,33.4052724 60.8495987,36.1675158 61.03473,39.1127867 C61.6911047,49.4969705 51.4184204,59.481439 40.0496746,59.5193953 C28.4852787,59.552967 18.5513005,49.985044 19.110902,39.3420971 L19.1367878,38.9638936 C19.1497915,38.7744496 19.1631285,38.5846747 19.1778877,38.3953913 L19.2096252,38.0177232 C19.4267265,35.6330608 19.9884993,33.4151834 23.1080554,33.0350097 C26.1921749,32.6605396 27.3997359,34.8484551 27.8857057,37.4466049 C29.1143044,44.0313892 31.4642098,50.0397419 39.2839042,50.1491376 C46.9331935,50.2543259 50.0004829,44.8686876 51.1849025,38.0188289 C51.6961174,35.0588316 53.0888098,32.5995304 56.6567952,33.0034533 Z M72.7482829,18.8838244 C72.8674366,18.884272 72.9873636,18.8852339 73.1077826,18.8869641 L73.4702347,18.8947135 C76.0743563,18.9704102 78.7759284,19.518669 78.7797868,23.0640054 C78.7860884,26.781358 75.710384,27.515572 72.8555749,27.551336 C62.0169779,27.6838732 51.1762771,27.6039301 40.3355763,27.6039301 L40.3355763,27.6880807 C29.4948755,27.6880807 18.6520709,27.7743351 7.81347384,27.6354866 C7.46448261,27.6310453 7.10785549,27.6229939 6.75007693,27.6060743 L6.39215472,27.5860039 C3.64882438,27.4064821 0.964861827,26.6026939 1.26234977,22.8052423 C1.54425428,19.2057004 4.90186315,18.904862 7.7019743,18.8943432 C29.3833759,18.8207115 51.0668813,18.8165039 72.7482829,18.8838244 Z M71.5474539,0.0730100587 L72.2707124,0.0738584591 C72.4548316,0.0740933013 72.6410158,0.0747493514 72.8283353,0.0767359496 L73.2042122,0.0827526444 C75.9048942,0.142448307 78.7114209,0.600043637 78.8853861,4.13327642 C79.0981342,8.41962776 76.026733,8.85808944 73.0536538,8.90901458 L72.6975728,8.91348688 L72.6975728,8.91348688 L72.3296459,8.91561989 C71.963419,8.91695776 71.6030223,8.91665758 71.2550306,8.92144546 C60.7404133,9.06660524 50.2236923,8.97403958 39.7069713,8.97403958 C29.541579,8.97403958 19.374083,9.08133159 9.21079453,8.91092663 C9.03951904,8.90809743 8.86447254,8.90694549 8.68652577,8.906605 L8.32702321,8.90674944 C8.26654761,8.90686833 8.20581426,8.90701325 8.14485541,8.90715212 L7.59100794,8.90737318 C7.52898633,8.90718723 7.46683596,8.90689904 7.40458909,8.90647654 L7.03020786,8.90207338 C4.15502959,8.85202622 1.21213508,8.38208365 1.34060983,4.37100186 C1.46351399,0.496198988 4.41732237,0.073814268 7.28390072,0.0594231539 L7.66533806,0.059654804 C8.29935147,0.0631795387 8.92265254,0.0801702412 9.50321785,0.0772175886 C30.1853311,-0.0363857189 50.8674444,-0.0132443044 71.5474539,0.0730100587 Z"/></defs><g fill="none" fill-rule="evenodd"><use xlink:href="#a" fill="#FFF"/><use xlink:href="#a" fill="#5241CE" fill-opacity=".08"/><g transform="translate(57 52)"><g transform="translate(30.785)"><mask id="d" fill="#fff"><use xlink:href="#b"/></mask><use xlink:href="#b" fill="#5241CE"/><path fill="url(#c)" fill-rule="nonzero" d="M14.0842537,72.656657 C6.08466573,72.656657 -0.400281615,66.1717097 -0.400281615,58.1721217 L-0.400281615,1.66696222 C-0.400281615,-6.33262574 6.08466573,-12.8175731 14.0842537,-12.8175731 C22.0838417,-12.8175731 28.568789,-6.33262574 28.568789,1.66696222 L28.568789,58.1721217 C28.568789,66.1717097 22.0838417,72.656657 14.0842537,72.656657 Z" mask="url(#d)"/><path fill="url(#e)" fill-rule="nonzero" d="M26.8345951,73.0290072 C19.3992899,73.0384721 12.8370539,68.1723658 10.6866783,61.0548003 C8.53630271,53.9372348 11.3063852,46.2516264 17.5031143,42.142563 L66.9111202,9.35813177 C71.9263871,6.03043738 78.3359887,5.63113404 83.7254901,8.31063548 C89.1149914,10.9901369 92.665599,16.3413631 93.0398333,22.3485589 C93.4140676,28.3557547 90.5550735,34.1062841 85.5398064,37.4339783 L36.1318005,70.2184096 C33.377622,72.0514314 30.1429887,73.0290072 26.8345951,73.0290072 Z" mask="url(#d)"/></g><path fill="#1E1483" fill-rule="nonzero" d="M122.900879,123.3246 L128.233014,137.750297 L133.523814,123.3246 L141.170673,123.3246 L129.164074,151.555925 L121.705074,151.555925 L124.388917,145.603829 L115.006013,123.3246 L122.900879,123.3246 Z M98.3069251,122.993925 C99.9327439,122.993925 101.35878,123.3246 102.585033,123.98595 C103.709098,124.592187 104.595826,125.372087 105.245216,126.325648 L105.416438,126.590016 L105.416438,123.3246 L112.484616,123.3246 L112.484616,146.389182 L105.416438,146.389182 L105.416438,143.123766 L105.238614,143.388134 C104.566069,144.341695 103.667764,145.121594 102.543699,145.727832 C101.317445,146.389182 99.8914095,146.719857 98.2655907,146.719857 C96.3917656,146.719857 94.6832781,146.230733 93.140128,145.252487 C91.596978,144.27424 90.3776139,142.882649 89.4820357,141.077715 C88.5864576,139.27278 88.1386685,137.185394 88.1386685,134.815557 C88.1386685,132.445719 88.5864576,130.365222 89.4820357,128.574066 C90.3776139,126.782909 91.596978,125.405097 93.140128,124.440628 C94.6832781,123.476159 96.4055438,122.993925 98.3069251,122.993925 Z M58.4192519,123.3246 L61.6846676,139.817016 L65.570099,123.3246 L73.0516211,123.3246 L76.9783869,139.734347 L80.2024682,123.3246 L86.8573028,123.3246 L80.615812,146.389182 L72.8036149,146.389182 L69.1661898,131.426138 L65.4047615,146.389182 L57.6338988,146.389182 L51.3510736,123.3246 L58.4192519,123.3246 Z M100.373644,129.152747 C98.9682751,129.152747 97.7764673,129.655649 96.7982203,130.661452 C95.8199734,131.667255 95.33085,133.051956 95.33085,134.815557 C95.33085,136.579157 95.8199734,137.977636 96.7982203,139.010996 C97.7764673,140.044355 98.9682751,140.561035 100.373644,140.561035 C101.779013,140.561035 102.970821,140.051244 103.949067,139.031663 C104.927314,138.012082 105.416438,136.620491 105.416438,134.856891 C105.416438,133.093291 104.927314,131.7017 103.949067,130.682119 C102.970821,129.662538 101.779013,129.152747 100.373644,129.152747 Z M98.293147,95.437674 C99.9189658,95.437674 101.345002,95.768349 102.571255,96.429699 C103.797508,97.091049 104.74131,97.959071 105.40266,99.0337647 L105.40266,99.0337647 L105.40266,95.768349 L112.470838,95.768349 L112.470838,118.832931 L105.40266,118.832931 L105.40266,115.567515 L105.224836,115.831883 C104.552291,116.785444 103.653986,117.565343 102.529921,118.171581 C101.303667,118.832931 99.8776314,119.163606 98.2518126,119.163606 C96.3779875,119.163606 94.6695,118.674483 93.1263499,117.696236 C91.5831999,116.717989 90.3638358,115.326398 89.4682576,113.521464 C88.5726795,111.716529 88.1248904,109.629143 88.1248904,107.259306 C88.1248904,104.889468 88.5726795,102.808971 89.4682576,101.017815 C90.3638358,99.2266585 91.5831999,97.8488459 93.1263499,96.8843772 C94.6695,95.9199084 96.3917656,95.437674 98.293147,95.437674 Z M7.02684398,95.6070632 L7.02684398,108.292665 C7.02684398,109.835815 7.42640962,111.034512 8.22554089,111.888756 C9.02467217,112.743 10.099366,113.170121 11.4496222,113.170121 C12.8274348,113.170121 13.9159067,112.743 14.715038,111.888756 C15.5141693,111.034512 15.9137349,109.835815 15.9137349,108.292665 L15.9137349,108.292665 L15.9137349,95.7545709 L22.9819133,95.7545709 L22.9819133,118.832931 L15.9137349,118.832931 L15.9137349,115.691518 C15.1972724,116.7111 14.2259145,117.530898 12.9996614,118.150914 C11.7734082,118.770929 10.4162628,119.080937 8.92822529,119.080937 C7.16462523,119.080937 5.60769706,118.688261 4.25744076,117.902908 C2.90718447,117.117554 1.86004694,115.980859 1.11602816,114.492821 C0.372009387,113.004784 0,111.254962 0,109.243356 L0,109.243356 L0,95.6070632 L7.02684398,95.6070632 Z M57.4961175,95.5203427 C60.3619676,95.5203427 62.6422474,96.3883647 64.3369568,98.1244085 C66.0316662,99.8604523 66.8790209,102.271624 66.8790209,105.357924 L66.8790209,105.357924 L66.8790209,118.832931 L59.852177,118.832931 L59.852177,106.308615 L59.8469413,106.015508 C59.7980748,104.668681 59.4071435,103.61591 58.6741472,102.857195 C57.8887941,102.044285 56.8072112,101.63783 55.4293987,101.63783 C54.0515861,101.63783 52.9700033,102.044285 52.1846501,102.857195 C51.399297,103.670104 51.0066204,104.820577 51.0066204,106.308615 L51.0066204,106.308615 L51.0066204,118.832931 L43.9797764,118.832931 L43.9797764,106.308615 L43.9745407,106.015508 C43.9256743,104.668681 43.534743,103.61591 42.8017467,102.857195 C42.0163936,102.044285 40.9348107,101.63783 39.5569982,101.63783 C38.1791856,101.63783 37.0976028,102.044285 36.3122496,102.857195 C35.5268965,103.670104 35.1342199,104.820577 35.1342199,106.308615 L35.1342199,106.308615 L35.1342199,118.832931 L28.0660415,118.832931 L28.0660415,95.768349 L35.1342199,95.768349 L35.1342199,98.6617554 L35.3350845,98.4036717 C36.0228521,97.5599039 36.8928097,96.8812458 37.9449575,96.3676975 C39.10232,95.8027943 40.4112419,95.5203427 41.8717232,95.5203427 C43.607767,95.5203427 45.1578062,95.8923521 46.5218406,96.6363709 C47.885875,97.3803897 48.9536797,98.4413053 49.7252547,99.8191179 C50.524386,98.5515303 51.6128579,97.5181709 52.9906705,96.7190397 C54.368483,95.9199084 55.8702987,95.5203427 57.4961175,95.5203427 Z M86.1408403,95.5203427 L86.1408403,103.001865 L84.1981246,103.001865 L83.8726164,103.006305 C82.2709093,103.050707 81.056712,103.428126 80.2300245,104.13856 C79.3482245,104.896357 78.9073245,106.225946 78.9073245,108.127328 L78.9073245,108.127328 L78.9073245,118.832931 L71.8391461,118.832931 L71.8391461,95.768349 L78.9073245,95.768349 L78.9073245,99.612446 L79.118302,99.3011465 C79.9076738,98.1802386 80.8707073,97.285091 82.0074027,96.6157037 C83.247434,95.8854631 84.6252465,95.5203427 86.1408403,95.5203427 L86.1408403,95.5203427 Z M124.664479,88.2454925 L124.664479,98.8684272 L124.849049,98.6178376 C125.545801,97.7147963 126.462524,96.9854168 127.59922,96.429699 C128.839251,95.8234615 130.230842,95.5203427 131.773992,95.5203427 C134.419392,95.5203427 136.541223,96.3952537 138.139486,98.1450756 C139.737748,99.8948976 140.53688,102.29918 140.53688,105.357924 L140.53688,105.357924 L140.53688,118.832931 L133.510036,118.832931 L133.510036,106.308615 L133.504708,106.004578 C133.454984,104.60717 133.057195,103.509818 132.311339,102.712524 C131.512207,101.85828 130.437514,101.431159 129.087257,101.431159 C127.737001,101.431159 126.662307,101.85828 125.863176,102.712524 C125.064045,103.566768 124.664479,104.765465 124.664479,106.308615 L124.664479,106.308615 L124.664479,118.832931 L117.596301,118.832931 L117.596301,88.2454925 L124.664479,88.2454925 Z M100.359866,101.596496 C98.954497,101.596496 97.7626891,102.099398 96.7844422,103.105201 C95.8061953,104.111004 95.3170719,105.495706 95.3170719,107.259306 C95.3170719,109.022906 95.8061953,110.421385 96.7844422,111.454745 C97.7626891,112.488104 98.954497,113.004784 100.359866,113.004784 C101.765235,113.004784 102.957042,112.494993 103.935289,111.475412 C104.913536,110.455831 105.40266,109.06424 105.40266,107.30064 C105.40266,105.53704 104.913536,104.145449 103.935289,103.125868 C102.957042,102.106287 101.765235,101.596496 100.359866,101.596496 Z"/></g></g></svg>