<svg width="20" height="24" viewBox="0 0 24 25" fill="none" xmlns="http://www.w3.org/2000/svg">
<path fill-rule="evenodd" clip-rule="evenodd" d="M18.5 2.74999C18.5 2.33578 18.8358 2 19.25 2H22.25C22.6642 2 23 2.33578 23 2.74999V5.74993C23 6.16414 22.6642 6.49992 22.25 6.49992C21.8358 6.49992 21.5 6.16414 21.5 5.74993V4.42009L15.9983 9.31042C15.7495 9.53155 15.3848 9.56227 15.1026 9.38586L9.47767 5.87035L3.11436 9.40548C2.75228 9.60664 2.29568 9.47618 2.09452 9.1141C1.89336 8.75202 2.02382 8.29543 2.3859 8.09427L9.13586 4.34434C9.37442 4.2118 9.66616 4.21932 9.89758 4.36396L15.4214 7.81632L20.2774 3.49997H19.25C18.8358 3.49997 18.5 3.16419 18.5 2.74999Z" fill="#335471"/>
<path fill-rule="evenodd" clip-rule="evenodd" d="M17.3571 19.8688C17.4312 19.8393 17.5098 19.8393 17.5839 19.8688C17.9855 20.0286 18.4984 20.128 19.0641 20.128C19.6298 20.128 20.1427 20.0286 20.5442 19.8688C20.6183 19.8393 20.697 19.8393 20.7711 19.8688C21.1207 20.008 21.4375 20.1987 21.6762 20.4462C21.9093 20.6879 22.1281 21.0516 22.1281 21.5348C22.1281 21.9421 21.9707 22.267 21.7858 22.4986C21.6009 22.7301 21.3562 22.9128 21.0885 23.0547C20.5503 23.3398 19.8344 23.5042 19.0641 23.5042C18.2937 23.5042 17.5779 23.3398 17.0397 23.0547C16.7719 22.9128 16.5272 22.7301 16.3424 22.4986C16.1574 22.267 16 21.9421 16 21.5348C16 21.0516 16.2189 20.6879 16.4519 20.4462C16.6906 20.1987 17.0074 20.008 17.3571 19.8688ZM16.8175 21.5353C16.8203 21.549 16.8339 21.5931 16.8921 21.666C16.976 21.7711 17.1202 21.8915 17.333 22.0043C17.7559 22.2283 18.3678 22.3788 19.0641 22.3788C19.7603 22.3788 20.3722 22.2283 20.7952 22.0043C21.008 21.8915 21.1522 21.7711 21.2361 21.666C21.2943 21.5931 21.3078 21.549 21.3106 21.5353C21.3074 21.5192 21.2882 21.4526 21.1847 21.3453C21.07 21.2263 20.8917 21.1029 20.6513 20.9952C20.1892 21.1605 19.6434 21.2534 19.0641 21.2534C18.4848 21.2534 17.9389 21.1605 17.4768 20.9952C17.2364 21.1029 17.0581 21.2263 16.9435 21.3453C16.8399 21.4526 16.8207 21.5192 16.8175 21.5353ZM21.3113 21.5306C21.3113 21.5306 21.3113 21.5313 21.3111 21.5327C21.3112 21.5313 21.3113 21.5306 21.3113 21.5306ZM16.817 21.5327C16.8168 21.5313 16.8168 21.5306 16.8168 21.5306C16.8169 21.5306 16.817 21.5313 16.817 21.5327Z" fill="#335471"/>
<path fill-rule="evenodd" clip-rule="evenodd" d="M17.3571 17.3375C17.4312 17.3081 17.5098 17.3081 17.5839 17.3375C17.9855 17.4974 18.4984 17.5968 19.0641 17.5968C19.6298 17.5968 20.1427 17.4974 20.5442 17.3375C20.6183 17.3081 20.697 17.3081 20.7711 17.3375C21.1207 17.4767 21.4375 17.6674 21.6762 17.915C21.9093 18.1567 22.1281 18.5203 22.1281 19.0035C22.1281 19.4108 21.9707 19.7357 21.7858 19.9674C21.6009 20.1989 21.3562 20.3816 21.0885 20.5234C20.5503 20.8085 19.8344 20.9729 19.0641 20.9729C18.2937 20.9729 17.5779 20.8085 17.0397 20.5234C16.7719 20.3816 16.5272 20.1989 16.3424 19.9674C16.1574 19.7357 16 19.4108 16 19.0035C16 18.5203 16.2189 18.1567 16.4519 17.915C16.6906 17.6674 17.0074 17.4767 17.3571 17.3375ZM16.8175 19.004C16.8203 19.0178 16.8339 19.0618 16.8921 19.1348C16.976 19.2398 17.1202 19.3603 17.333 19.473C17.7559 19.6971 18.3678 19.8475 19.0641 19.8475C19.7603 19.8475 20.3722 19.6971 20.7952 19.473C21.008 19.3603 21.1522 19.2398 21.2361 19.1348C21.2943 19.0618 21.3078 19.0178 21.3106 19.004C21.3074 18.988 21.2882 18.9214 21.1847 18.814C21.07 18.6951 20.8917 18.5716 20.6513 18.4639C20.1892 18.6292 19.6434 18.7222 19.0641 18.7222C18.4848 18.7222 17.9389 18.6292 17.4768 18.4639C17.2364 18.5716 17.0581 18.6951 16.9435 18.814C16.8399 18.9214 16.8207 18.988 16.8175 19.004ZM21.3113 18.9993C21.3113 18.9993 21.3113 19 21.3111 19.0015C21.3112 19 21.3113 18.9993 21.3113 18.9993ZM16.817 19.0015C16.8168 19 16.8168 18.9993 16.8168 18.9993C16.8169 18.9993 16.817 19 16.817 19.0015Z" fill="#335471"/>
<path fill-rule="evenodd" clip-rule="evenodd" d="M17.3571 15.0866C17.4312 15.0571 17.5098 15.0571 17.5839 15.0866C17.9855 15.2464 18.4984 15.3458 19.0641 15.3458C19.6298 15.3458 20.1427 15.2464 20.5442 15.0866C20.6183 15.0571 20.697 15.0571 20.7711 15.0866C21.1207 15.2257 21.4375 15.4165 21.6762 15.664C21.9093 15.9057 22.1281 16.2694 22.1281 16.7525C22.1281 17.1598 21.9707 17.4847 21.7858 17.7164C21.6009 17.9479 21.3562 18.1306 21.0885 18.2724C20.5503 18.5575 19.8344 18.722 19.0641 18.722C18.2937 18.722 17.5779 18.5575 17.0397 18.2724C16.7719 18.1306 16.5272 17.9479 16.3424 17.7164C16.1574 17.4847 16 17.1598 16 16.7525C16 16.2694 16.2189 15.9057 16.4519 15.664C16.6906 15.4165 17.0074 15.2257 17.3571 15.0866ZM16.8175 16.753C16.8203 16.7668 16.8339 16.8109 16.8921 16.8838C16.976 16.9889 17.1202 17.1093 17.333 17.2221C17.7559 17.4461 18.3678 17.5966 19.0641 17.5966C19.7603 17.5966 20.3722 17.4461 20.7952 17.2221C21.008 17.1093 21.1522 16.9889 21.2361 16.8838C21.2943 16.8109 21.3078 16.7668 21.3106 16.753C21.3074 16.737 21.2882 16.6704 21.1847 16.563C21.07 16.4441 20.8917 16.3206 20.6513 16.2129C20.1892 16.3783 19.6434 16.4712 19.0641 16.4712C18.4848 16.4712 17.9389 16.3783 17.4768 16.2129C17.2364 16.3206 17.0581 16.4441 16.9435 16.563C16.8399 16.6704 16.8207 16.737 16.8175 16.753ZM21.3113 16.7484C21.3113 16.7484 21.3113 16.7491 21.3111 16.7505C21.3112 16.7491 21.3113 16.7484 21.3113 16.7484ZM16.817 16.7505C16.8168 16.7491 16.8168 16.7484 16.8168 16.7484C16.8169 16.7484 16.817 16.7491 16.817 16.7505Z" fill="#335471"/>
<path fill-rule="evenodd" clip-rule="evenodd" d="M17.3571 12.8356C17.4312 12.8061 17.5098 12.8061 17.5839 12.8356C17.9855 12.9954 18.4984 13.0948 19.0641 13.0948C19.6298 13.0948 20.1427 12.9954 20.5442 12.8356C20.6183 12.8061 20.697 12.8061 20.7711 12.8356C21.1207 12.9748 21.4375 13.1655 21.6762 13.413C21.9093 13.6547 22.1281 14.0184 22.1281 14.5016C22.1281 14.9089 21.9707 15.2338 21.7858 15.4654C21.6009 15.6969 21.3562 15.8796 21.0885 16.0214C20.5503 16.3066 19.8344 16.471 19.0641 16.471C18.2937 16.471 17.5779 16.3066 17.0397 16.0214C16.7719 15.8796 16.5272 15.6969 16.3424 15.4654C16.1574 15.2338 16 14.9089 16 14.5016C16 14.0184 16.2189 13.6547 16.4519 13.413C16.6906 13.1655 17.0074 12.9748 17.3571 12.8356ZM16.8175 14.5021C16.8203 14.5158 16.8339 14.5599 16.8921 14.6328C16.976 14.7379 17.1202 14.8583 17.333 14.9711C17.7559 15.1951 18.3678 15.3456 19.0641 15.3456C19.7603 15.3456 20.3722 15.1951 20.7952 14.9711C21.008 14.8583 21.1522 14.7379 21.2361 14.6328C21.2943 14.5599 21.3078 14.5158 21.3106 14.5021C21.3074 14.486 21.2882 14.4194 21.1847 14.312C21.07 14.1931 20.8917 14.0697 20.6513 13.962C20.1892 14.1273 19.6434 14.2202 19.0641 14.2202C18.4848 14.2202 17.9389 14.1273 17.4768 13.962C17.2364 14.0697 17.0581 14.1931 16.9435 14.312C16.8399 14.4194 16.8207 14.486 16.8175 14.5021Z" fill="#335471"/>
<path fill-rule="evenodd" clip-rule="evenodd" d="M16.8174 11.9694C16.82 11.9562 16.8331 11.912 16.8921 11.8382C16.976 11.7331 17.1202 11.6126 17.333 11.4999C17.7559 11.2759 18.3678 11.1254 19.0641 11.1254C19.7603 11.1254 20.3723 11.2759 20.7952 11.4999C21.008 11.6126 21.1522 11.7331 21.2361 11.8382C21.295 11.912 21.3081 11.9562 21.3107 11.9694C21.3081 11.9826 21.295 12.0268 21.2361 12.1007C21.1522 12.2058 21.008 12.3262 20.7952 12.4389C20.3723 12.663 19.7603 12.8135 19.0641 12.8135C18.3678 12.8135 17.7559 12.663 17.333 12.4389C17.1202 12.3262 16.976 12.2058 16.8921 12.1007C16.8331 12.0268 16.82 11.9826 16.8174 11.9694ZM17.0397 10.4495C17.5779 10.1644 18.2937 10 19.0641 10C19.8344 10 20.5503 10.1644 21.0885 10.4495C21.3562 10.5914 21.6009 10.774 21.7858 11.0056C21.9707 11.2372 22.1281 11.5621 22.1281 11.9694C22.1281 12.3767 21.9707 12.7016 21.7858 12.9333C21.6009 13.1648 21.3562 13.3475 21.0885 13.4893C20.5503 13.7744 19.8344 13.9388 19.0641 13.9388C18.2937 13.9388 17.5779 13.7744 17.0397 13.4893C16.7719 13.3475 16.5272 13.1648 16.3424 12.9333C16.1574 12.7016 16 12.3767 16 11.9694C16 11.5621 16.1574 11.2372 16.3424 11.0056C16.5272 10.774 16.7719 10.5914 17.0397 10.4495Z" fill="#335471"/>
<path fill-rule="evenodd" clip-rule="evenodd" d="M10.3571 19.9958C10.4312 19.9663 10.5098 19.9663 10.5839 19.9958C10.9855 20.1556 11.4984 20.255 12.0641 20.255C12.6298 20.255 13.1427 20.1556 13.5442 19.9958C13.6183 19.9663 13.697 19.9663 13.7711 19.9958C14.1207 20.1349 14.4375 20.3257 14.6762 20.5732C14.9093 20.8149 15.1281 21.1785 15.1281 21.6617C15.1281 22.069 14.9707 22.3939 14.7858 22.6256C14.6009 22.8571 14.3562 23.0398 14.0885 23.1816C13.5503 23.4667 12.8344 23.6311 12.0641 23.6311C11.2937 23.6311 10.5779 23.4667 10.0397 23.1816C9.77193 23.0398 9.52723 22.8571 9.34237 22.6256C9.1574 22.3939 9 22.069 9 21.6617C9 21.1785 9.21889 20.8149 9.45195 20.5732C9.69063 20.3256 10.0074 20.1349 10.3571 19.9958ZM9.81751 21.6622C9.82034 21.676 9.83385 21.72 9.89208 21.793C9.97598 21.898 10.1202 22.0185 10.333 22.1312C10.7559 22.3553 11.3678 22.5057 12.0641 22.5057C12.7603 22.5057 13.3722 22.3553 13.7952 22.1312C14.008 22.0185 14.1522 21.898 14.2361 21.793C14.2943 21.72 14.3078 21.676 14.3106 21.6622C14.3074 21.6462 14.2882 21.5796 14.1847 21.4722C14.07 21.3533 13.8917 21.2298 13.6513 21.1221C13.1892 21.2874 12.6434 21.3804 12.0641 21.3804C11.4848 21.3804 10.9389 21.2874 10.4768 21.1221C10.2364 21.2298 10.0581 21.3533 9.94345 21.4722C9.83994 21.5796 9.82073 21.6462 9.81751 21.6622ZM14.3113 21.6575C14.3113 21.6575 14.3113 21.6582 14.3111 21.6597C14.3112 21.6582 14.3113 21.6575 14.3113 21.6575ZM9.81705 21.6597C9.81683 21.6582 9.8168 21.6575 9.81684 21.6575C9.81688 21.6575 9.81699 21.6582 9.81705 21.6597Z" fill="#335471"/>
<path fill-rule="evenodd" clip-rule="evenodd" d="M10.3571 17.4635C10.4312 17.434 10.5098 17.434 10.5839 17.4635C10.9855 17.6233 11.4984 17.7228 12.0641 17.7228C12.6298 17.7228 13.1427 17.6233 13.5442 17.4635C13.6183 17.434 13.697 17.434 13.7711 17.4635C14.1207 17.6027 14.4375 17.7934 14.6762 18.041C14.9093 18.2827 15.1281 18.6463 15.1281 19.1295C15.1281 19.5368 14.9707 19.8617 14.7858 20.0934C14.6009 20.3249 14.3562 20.5075 14.0885 20.6494C13.5503 20.9345 12.8344 21.0989 12.0641 21.0989C11.2937 21.0989 10.5779 20.9345 10.0397 20.6494C9.77193 20.5075 9.52723 20.3249 9.34237 20.0934C9.1574 19.8617 9 19.5368 9 19.1295C9 18.6463 9.21889 18.2827 9.45195 18.041C9.69063 17.7934 10.0074 17.6027 10.3571 17.4635ZM9.81751 19.13C9.82034 19.1437 9.83385 19.1878 9.89208 19.2607C9.97598 19.3658 10.1202 19.4863 10.333 19.599C10.7559 19.823 11.3678 19.9735 12.0641 19.9735C12.7603 19.9735 13.3722 19.823 13.7952 19.599C14.008 19.4863 14.1522 19.3658 14.2361 19.2607C14.2943 19.1878 14.3078 19.1437 14.3106 19.13C14.3074 19.1139 14.2882 19.0473 14.1847 18.94C14.07 18.8211 13.8917 18.6976 13.6513 18.5899C13.1892 18.7552 12.6434 18.8481 12.0641 18.8481C11.4848 18.8481 10.9389 18.7552 10.4768 18.5899C10.2364 18.6976 10.0581 18.8211 9.94345 18.94C9.83994 19.0473 9.82073 19.1139 9.81751 19.13Z" fill="#335471"/>
<path fill-rule="evenodd" clip-rule="evenodd" d="M10.3571 14.8356C10.4312 14.8061 10.5098 14.8061 10.5839 14.8356C10.9855 14.9954 11.4984 15.0948 12.0641 15.0948C12.6298 15.0948 13.1427 14.9954 13.5442 14.8356C13.6183 14.8061 13.697 14.8061 13.7711 14.8356C14.1207 14.9748 14.4375 15.1655 14.6762 15.413C14.9093 15.6547 15.1281 16.0184 15.1281 16.5016C15.1281 16.9089 14.9707 17.2338 14.7858 17.4654C14.6009 17.6969 14.3562 17.8796 14.0885 18.0214C13.5503 18.3066 12.8344 18.471 12.0641 18.471C11.2937 18.471 10.5779 18.3066 10.0397 18.0214C9.77193 17.8796 9.52723 17.6969 9.34237 17.4654C9.1574 17.2338 9 16.9089 9 16.5016C9 16.0184 9.21889 15.6547 9.45195 15.413C9.69063 15.1655 10.0074 14.9748 10.3571 14.8356ZM9.81751 16.5021C9.82034 16.5158 9.83385 16.5599 9.89208 16.6328C9.97598 16.7379 10.1202 16.8583 10.333 16.9711C10.7559 17.1951 11.3678 17.3456 12.0641 17.3456C12.7603 17.3456 13.3722 17.1951 13.7952 16.9711C14.008 16.8583 14.1522 16.7379 14.2361 16.6328C14.2943 16.5599 14.3078 16.5158 14.3106 16.5021C14.3074 16.486 14.2882 16.4194 14.1847 16.312C14.07 16.1931 13.8917 16.0697 13.6513 15.962C13.1892 16.1273 12.6434 16.2202 12.0641 16.2202C11.4848 16.2202 10.9389 16.1273 10.4768 15.962C10.2364 16.0697 10.0581 16.1931 9.94345 16.312C9.83994 16.4194 9.82073 16.486 9.81751 16.5021Z" fill="#335471"/>
<path fill-rule="evenodd" clip-rule="evenodd" d="M9.81741 13.9694C9.82001 13.9562 9.83313 13.912 9.89208 13.8382C9.97598 13.7331 10.1202 13.6126 10.333 13.4999C10.7559 13.2759 11.3678 13.1254 12.0641 13.1254C12.7603 13.1254 13.3723 13.2759 13.7952 13.4999C14.008 13.6126 14.1522 13.7331 14.2361 13.8382C14.295 13.912 14.3081 13.9562 14.3107 13.9694C14.3081 13.9826 14.295 14.0268 14.2361 14.1007C14.1522 14.2058 14.008 14.3262 13.7952 14.4389C13.3723 14.663 12.7603 14.8135 12.0641 14.8135C11.3678 14.8135 10.7559 14.663 10.333 14.4389C10.1202 14.3262 9.97598 14.2058 9.89208 14.1007C9.83313 14.0268 9.82001 13.9826 9.81741 13.9694ZM10.0397 12.4495C10.5779 12.1644 11.2937 12 12.0641 12C12.8344 12 13.5503 12.1644 14.0885 12.4495C14.3562 12.5914 14.6009 12.774 14.7858 13.0056C14.9707 13.2372 15.1281 13.5621 15.1281 13.9694C15.1281 14.3767 14.9707 14.7016 14.7858 14.9333C14.6009 15.1648 14.3562 15.3475 14.0885 15.4893C13.5503 15.7744 12.8344 15.9388 12.0641 15.9388C11.2937 15.9388 10.5779 15.7744 10.0397 15.4893C9.77193 15.3475 9.52723 15.1648 9.34237 14.9333C9.1574 14.7016 9 14.3767 9 13.9694C9 13.5621 9.1574 13.2372 9.34237 13.0056C9.52723 12.774 9.77193 12.5914 10.0397 12.4495Z" fill="#335471"/>
<path fill-rule="evenodd" clip-rule="evenodd" d="M3.35708 19.9958C3.43118 19.9663 3.50982 19.9663 3.58391 19.9958C3.98545 20.1556 4.49838 20.255 5.06407 20.255C5.62977 20.255 6.14269 20.1556 6.54423 19.9958C6.61833 19.9663 6.69697 19.9663 6.77106 19.9958C7.12074 20.1349 7.43751 20.3257 7.6762 20.5732C7.90926 20.8149 8.12815 21.1785 8.12815 21.6617C8.12815 22.069 7.97075 22.3939 7.78577 22.6256C7.60092 22.8571 7.35621 23.0398 7.08847 23.1816C6.55027 23.4667 5.83441 23.6311 5.06407 23.6311C4.29373 23.6311 3.57788 23.4667 3.03967 23.1816C2.77193 23.0398 2.52723 22.8571 2.34237 22.6256C2.1574 22.3939 2 22.069 2 21.6617C2 21.1785 2.21889 20.8149 2.45195 20.5732C2.69063 20.3256 3.0074 20.1349 3.35708 19.9958ZM2.81751 21.6622C2.82034 21.676 2.83385 21.72 2.89208 21.793C2.97598 21.898 3.12017 22.0185 3.33299 22.1312C3.7559 22.3553 4.3678 22.5057 5.06407 22.5057C5.76034 22.5057 6.37225 22.3553 6.79516 22.1312C7.00797 22.0185 7.15216 21.898 7.23606 21.793C7.29429 21.72 7.30781 21.676 7.31064 21.6622C7.30741 21.6462 7.28821 21.5796 7.18469 21.4722C7.07003 21.3533 6.89175 21.2298 6.6513 21.1221C6.18925 21.2874 5.64337 21.3804 5.06407 21.3804C4.48478 21.3804 3.9389 21.2874 3.47684 21.1221C3.2364 21.2298 3.05812 21.3533 2.94345 21.4722C2.83994 21.5796 2.82073 21.6462 2.81751 21.6622ZM7.31131 21.6575C7.31135 21.6575 7.31132 21.6582 7.3111 21.6597C7.31116 21.6582 7.31127 21.6575 7.31131 21.6575ZM2.81705 21.6597C2.81683 21.6582 2.8168 21.6575 2.81684 21.6575C2.81688 21.6575 2.81699 21.6582 2.81705 21.6597Z" fill="#335471"/>
<path fill-rule="evenodd" clip-rule="evenodd" d="M2.81741 18.9694C2.82001 18.9562 2.83313 18.912 2.89208 18.8382C2.97598 18.7331 3.12017 18.6126 3.33299 18.4999C3.7559 18.2759 4.3678 18.1254 5.06407 18.1254C5.76034 18.1254 6.37225 18.2759 6.79516 18.4999C7.00797 18.6126 7.15216 18.7331 7.23606 18.8382C7.29501 18.912 7.30814 18.9562 7.31074 18.9694C7.30814 18.9826 7.29501 19.0268 7.23606 19.1007C7.15216 19.2058 7.00797 19.3262 6.79516 19.4389C6.37225 19.663 5.76034 19.8135 5.06407 19.8135C4.3678 19.8135 3.7559 19.663 3.33299 19.4389C3.12017 19.3262 2.97598 19.2058 2.89208 19.1007C2.83313 19.0268 2.82001 18.9826 2.81741 18.9694ZM3.03967 17.4495C3.57788 17.1644 4.29373 17 5.06407 17C5.83441 17 6.55027 17.1644 7.08848 17.4495C7.35622 17.5914 7.60092 17.774 7.78577 18.0056C7.97075 18.2372 8.12815 18.5621 8.12815 18.9694C8.12815 19.3767 7.97075 19.7016 7.78577 19.9333C7.60092 20.1648 7.35622 20.3475 7.08848 20.4893C6.55027 20.7744 5.83441 20.9388 5.06407 20.9388C4.29373 20.9388 3.57788 20.7744 3.03967 20.4893C2.77193 20.3475 2.52723 20.1648 2.34237 19.9333C2.1574 19.7016 2 19.3767 2 18.9694C2 18.5621 2.1574 18.2372 2.34237 18.0056C2.52723 17.774 2.77193 17.5914 3.03967 17.4495Z" fill="#335471"/>
</svg>
