<svg width="20" height="22" viewBox="0 0 24 25" fill="none" xmlns="http://www.w3.org/2000/svg">
<path d="M17.0045 11.1663L13.8328 7.99471L17.6277 4.1997C17.0017 3.95887 16.337 3.83459 15.6662 3.83301C14.2075 3.83301 12.8085 4.41255 11.7771 5.444C10.7456 6.47545 10.1662 7.87432 10.1662 9.33301C10.1649 9.87364 10.245 10.4114 10.4043 10.928L3.59353 17.7389C3.35185 17.9791 3.15999 18.2647 3.02911 18.5793C2.89824 18.894 2.83105 19.2314 2.83105 19.5722C2.83105 19.913 2.89824 20.2503 3.02911 20.565C3.15999 20.8796 3.35185 21.1653 3.59353 21.4055C3.83376 21.6472 4.11947 21.839 4.4341 21.9698C4.74874 22.1007 5.08609 22.1681 5.42686 22.1681C5.76763 22.1681 6.10498 22.1007 6.41962 21.9698C6.73425 21.839 7.01996 21.6472 7.26019 21.4055L14.071 14.5947C14.5878 14.7532 15.1256 14.8336 15.6662 14.833C17.1249 14.833 18.5236 14.2536 19.5551 13.2221C20.5865 12.1907 21.1662 10.7917 21.1662 9.33301C21.1676 8.66196 21.0431 7.99657 20.7994 7.37133L17.0045 11.1663Z" stroke="#335471" stroke-width="2" stroke-linejoin="round"/>
<path d="M11.5415 17.1243L15.8223 21.4052C16.0625 21.6469 16.3482 21.8386 16.6628 21.9695C16.9775 22.1004 17.3148 22.1678 17.6556 22.1678C17.9964 22.1678 18.3337 22.1004 18.6484 21.9695C18.963 21.8386 19.2487 21.6469 19.4889 21.4052C19.7306 21.165 19.9225 20.8793 20.0533 20.5646C20.1842 20.25 20.2514 19.9126 20.2514 19.5719C20.2514 19.2311 20.1842 18.8936 20.0533 18.579C19.9225 18.2644 19.7306 17.9788 19.4889 17.7385L16.5189 14.7686" stroke="#335471" stroke-width="2" stroke-linejoin="round"/>
<path d="M3.75 5.66602L9.70833 11.6243" stroke="#335471" stroke-width="2" stroke-linejoin="round"/>
<path d="M4.77639 6.693C4.90499 6.56596 5.00704 6.41467 5.07672 6.24787C5.14641 6.08108 5.18235 5.90216 5.18235 5.72139C5.18235 5.54063 5.14641 5.3616 5.07672 5.1948C5.00704 5.02801 4.90499 4.87671 4.77639 4.74967L3.85972 3.83301L1.9165 5.77634L2.83317 6.693C2.96021 6.8216 3.11151 6.92376 3.2783 6.99345C3.44509 7.06313 3.6239 7.09897 3.80467 7.09897C3.98543 7.09897 4.16446 7.06313 4.33126 6.99345C4.49805 6.92376 4.64935 6.8216 4.77639 6.693Z" fill="#335471"/>
</svg>
