<svg width="47" height="47" viewBox="0 0 47 47" fill="none" xmlns="http://www.w3.org/2000/svg">
<rect width="46.1267" height="46.1267" rx="23.0634" fill="#EDF4FC"/>
<rect x="4" y="3.87988" width="37.8793" height="38.4204" rx="18.9397" fill="#53B9EA"/>
<path fill-rule="evenodd" clip-rule="evenodd" d="M29.4833 30.7902L29.484 30.7885L29.5014 30.745L32.5002 15.6259V15.5768C32.5002 15.2001 32.361 14.8713 32.0581 14.674C31.793 14.5013 31.4882 14.489 31.2745 14.5053C31.0485 14.5224 30.8354 14.5788 30.6879 14.6258C30.612 14.6499 30.5484 14.6732 30.503 14.6908C30.4802 14.6997 30.4617 14.7072 30.4483 14.7128L30.4351 14.7183L13.7153 21.2772L13.7107 21.2789C13.7016 21.2822 13.6897 21.2866 13.6753 21.2923C13.6465 21.3034 13.6074 21.3195 13.5614 21.3403C13.4711 21.3812 13.3464 21.4444 13.2199 21.531C13.005 21.6781 12.5959 22.0264 12.665 22.5787C12.7222 23.0361 13.0375 23.3266 13.2501 23.477C13.364 23.5576 13.473 23.6157 13.5529 23.6538C13.5933 23.673 13.6277 23.6878 13.6533 23.6982C13.6661 23.7034 13.6768 23.7076 13.6851 23.7107L13.6957 23.7147L13.7025 23.7172L16.6278 24.702C16.6179 24.8856 16.6361 25.0727 16.6848 25.2573L18.1501 30.8157C18.3238 31.4748 18.92 31.9339 19.6016 31.9334C20.2125 31.9329 20.7544 31.5633 20.9845 31.0119L23.2722 28.5658L27.2012 31.5781L27.2571 31.6025C27.614 31.7582 27.9475 31.8076 28.2525 31.7659C28.557 31.7243 28.7989 31.5966 28.9807 31.4512C29.1595 31.3081 29.2821 31.1466 29.3592 31.025C29.3984 30.9633 29.4276 30.909 29.4478 30.8681C29.458 30.8476 29.466 30.8302 29.472 30.8167L29.4796 30.7993L29.4822 30.7928L29.4833 30.7902ZM18.1352 24.875C18.1019 24.7486 18.1542 24.6153 18.2644 24.5452L28.1865 18.2443C28.1865 18.2443 28.77 17.89 28.7492 18.2443C28.7492 18.2443 28.8533 18.3069 28.5406 18.5986C28.244 18.8757 21.4689 25.4167 20.7834 26.0786C20.7438 26.1168 20.7202 26.1607 20.7063 26.2139L19.6005 30.4334L18.1352 24.875Z" fill="white"/>
</svg>
