<svg width="12" height="8" viewBox="0 0 12 8" fill="none" xmlns="http://www.w3.org/2000/svg">
<path d="M0.792107 7.65208C0.590768 7.65208 0.38943 7.5779 0.230479 7.41895C-0.0768264 7.11164 -0.0768264 6.603 0.230479 6.2957L3.6214 2.90474C3.79095 2.73519 4.01348 2.65042 4.25721 2.67161C4.49034 2.6928 4.70227 2.81996 4.84003 3.0213L5.99507 4.75917L9.75692 0.997325C10.0642 0.690019 10.5729 0.690019 10.8802 0.997325C11.1875 1.30463 11.1875 1.81327 10.8802 2.12058L6.42954 6.57121C6.25999 6.74076 6.03746 6.82553 5.79374 6.80434C5.56061 6.78315 5.34867 6.65598 5.21092 6.45465L4.05587 4.71678L1.35373 7.41895C1.19478 7.5779 0.993445 7.65208 0.792107 7.65208Z" fill="#53B9EA"/>
<path d="M10.3282 4.47277C9.8937 4.47277 9.53341 4.11249 9.53341 3.67802V2.35343H8.20882C7.77435 2.35343 7.41406 1.99314 7.41406 1.55867C7.41406 1.12421 7.77435 0.763916 8.20882 0.763916H10.3282C10.7626 0.763916 11.1229 1.12421 11.1229 1.55867V3.67802C11.1229 4.11249 10.7626 4.47277 10.3282 4.47277Z" fill="#53B9EA"/>
</svg>
