<svg width="24" height="24" viewBox="0 0 24 24" fill="none" xmlns="http://www.w3.org/2000/svg">
<path d="M16 16L12 12L8 16" stroke="#53B9EA" stroke-width="1.66667" stroke-linecap="round" stroke-linejoin="round"/>
<path d="M12 12V21" stroke="#53B9EA" stroke-width="1.66667" stroke-linecap="round" stroke-linejoin="round"/>
<mask id="path-3-inside-1_1_3165" fill="white">
<path d="M20.39 18.39C21.3653 17.8583 22.1358 17.0169 22.5798 15.9986C23.0239 14.9804 23.1162 13.8432 22.8422 12.7667C22.5682 11.6901 21.9434 10.7355 21.0666 10.0534C20.1898 9.37137 19.1108 9.00072 18 8.99998H16.74C16.4373 7.82923 15.8731 6.74232 15.0899 5.82098C14.3067 4.89964 13.3248 4.16783 12.2181 3.68059C11.1113 3.19335 9.90851 2.96334 8.70008 3.00787C7.49164 3.05239 6.30903 3.37028 5.24114 3.93765C4.17325 4.50501 3.24787 5.30709 2.53458 6.28357C1.82129 7.26004 1.33865 8.38552 1.12294 9.57538C0.90723 10.7652 0.964065 11.9885 1.28917 13.1532C1.61428 14.318 2.1992 15.3938 2.99996 16.3"/>
</mask>
<path d="M19.5922 16.9266C18.784 17.3672 18.486 18.3796 18.9266 19.1878C19.3672 19.9959 20.3795 20.2939 21.1877 19.8533L19.5922 16.9266ZM18 8.99998L18.0011 7.33332H18V8.99998ZM16.74 8.99998L15.1263 9.41716C15.3165 10.1528 15.9802 10.6667 16.74 10.6667V8.99998ZM1.75107 17.4036C2.3606 18.0934 3.41387 18.1584 4.10362 17.5489C4.79336 16.9393 4.85838 15.8861 4.24885 15.1963L1.75107 17.4036ZM21.1877 19.8533C22.4882 19.1443 23.5155 18.0225 24.1076 16.6648L21.0521 15.3324C20.7561 16.0112 20.2424 16.5722 19.5922 16.9266L21.1877 19.8533ZM24.1076 16.6648C24.6996 15.3071 24.8227 13.791 24.4573 12.3556L21.227 13.1778C21.4097 13.8955 21.3481 14.6536 21.0521 15.3324L24.1076 16.6648ZM24.4573 12.3556C24.092 10.9202 23.259 9.64733 22.09 8.73791L20.0433 11.3689C20.6279 11.8237 21.0443 12.4601 21.227 13.1778L24.4573 12.3556ZM22.09 8.73791C20.9209 7.82849 19.4822 7.3343 18.0011 7.33332L17.9989 10.6667C18.7394 10.6671 19.4588 10.9142 20.0433 11.3689L22.09 8.73791ZM18 7.33332H16.74V10.6667H18V7.33332ZM18.3536 8.58281C17.9878 7.16814 17.3061 5.85479 16.3598 4.74151L13.8201 6.90045C14.4401 7.62984 14.8867 8.49031 15.1263 9.41716L18.3536 8.58281ZM16.3598 4.74151C15.4134 3.62822 14.2269 2.74396 12.8896 2.15521L11.5465 5.20598C12.4227 5.59171 13.2 6.17105 13.8201 6.90045L16.3598 4.74151ZM12.8896 2.15521C11.5523 1.56645 10.0989 1.28853 8.63871 1.34233L8.76144 4.6734C9.71812 4.63816 10.6703 4.82024 11.5465 5.20598L12.8896 2.15521ZM8.63871 1.34233C7.17852 1.39613 5.74953 1.78025 4.45916 2.46582L6.02311 5.40948C6.86853 4.96032 7.80477 4.70865 8.76144 4.6734L8.63871 1.34233ZM4.45916 2.46582C3.16879 3.15138 2.05063 4.12055 1.18874 5.30047L3.88043 7.26666C4.44511 6.49362 5.1777 5.85865 6.02311 5.40948L4.45916 2.46582ZM1.18874 5.30047C0.326848 6.48038 -0.256345 7.84033 -0.516995 9.27807L2.76288 9.87268C2.93365 8.93071 3.31574 8.03971 3.88043 7.26666L1.18874 5.30047ZM-0.516995 9.27807C-0.777645 10.7158 -0.708969 12.1939 -0.31613 13.6013L2.89448 12.7052C2.6371 11.7831 2.5921 10.8147 2.76288 9.87268L-0.516995 9.27807ZM-0.31613 13.6013C0.0767093 15.0087 0.783488 16.3087 1.75107 17.4036L4.24885 15.1963C3.61492 14.479 3.15185 13.6272 2.89448 12.7052L-0.31613 13.6013Z" fill="#53B9EA" mask="url(#path-3-inside-1_1_3165)"/>
<path d="M16 16L12 12L8 16" stroke="#53B9EA" stroke-width="1.66667" stroke-linecap="round" stroke-linejoin="round"/>
</svg>
