<svg xmlns="http://www.w3.org/2000/svg">
  <symbol id="drawer-arrow" viewBox="0 0 24 24">
    <path opacity="0.5" d="M14.2657 11.4343L18.45 7.25C18.8642 6.83579 18.8642 6.16421 18.45 5.75C18.0358 5.33579 17.3642 5.33579 16.95 5.75L11.4071 11.2929C11.0166 11.6834 11.0166 12.3166 11.4071 12.7071L16.95 18.25C17.3642 18.6642 18.0358 18.6642 18.45 18.25C18.8642 17.8358 18.8642 17.1642 18.45 16.75L14.2657 12.5657C13.9533 12.2533 13.9533 11.7467 14.2657 11.4343Z" fill="currentColor"></path>
    <path d="M8.2657 11.4343L12.45 7.25C12.8642 6.83579 12.8642 6.16421 12.45 5.75C12.0358 5.33579 11.3642 5.33579 10.95 5.75L5.40712 11.2929C5.01659 11.6834 5.01659 12.3166 5.40712 12.7071L10.95 18.25C11.3642 18.6642 12.0358 18.6642 12.45 18.25C12.8642 17.8358 12.8642 17.1642 12.45 16.75L8.2657 12.5657C7.95328 12.2533 7.95328 11.7467 8.2657 11.4343Z" fill="currentColor"></path>
  </symbol>

  <symbol id="dashboard" viewBox="0 0 24 24">
    <path d="M21.5177 15.1121C20.2199 19.1089 16.4493 21.9999 12 21.9999C6.47715 21.9999 2 17.5455 2 12.0508C2 7.62415 4.90575 3.87272 8.92308 2.58154" stroke="white" stroke-width="2" stroke-linecap="round"/>
    <path d="M21.7842 9.19894C21.0131 5.71699 18.256 2.97639 14.7548 2.21293C13.9283 2.03269 13.515 1.94257 13.1423 2.24277C12.7695 2.54298 12.7695 3.02865 12.7695 4V9.18379C12.7695 10.1266 12.7695 10.598 13.0624 10.8909C13.3553 11.1838 13.8267 11.1838 14.7695 11.1838H20.0003C20.9718 11.1838 21.4576 11.1838 21.7578 10.8098C22.058 10.4358 21.9667 10.0235 21.7842 9.19894Z" stroke="white" stroke-width="2" stroke-linejoin="round"/>
  </symbol>

  <symbol id="circle" viewBox="0 0 24 24">
    <circle cx="12" cy="12" r="3" fill="currentColor" />
  </symbol>

  <symbol id="generalledger" viewBox="0 0 24 24">
      <g clip-path="url(#clip0_1_7893)">
      <path d="M17.0001 22.9999C20.3138 22.9999 23.0001 20.045 23.0001 16.3998C23.0001 12.7547 20.3138 9.7998 17.0001 9.7998C13.6863 9.7998 11 12.7547 11 16.3998C11 20.045 13.6863 22.9999 17.0001 22.9999Z" stroke="#335471" stroke-width="2" stroke-miterlimit="10"/>
      <path d="M12.5251 20.8006H1V15.8506H11.0188" stroke="#335471" stroke-width="2" stroke-miterlimit="10"/>
      <path d="M2.5 15.8504V10.9004H13.6814" stroke="#335471" stroke-width="2" stroke-miterlimit="10"/>
      <path d="M17.5001 5.95003V1H2V5.95003H4.00002" stroke="#335471" stroke-width="2" stroke-miterlimit="10"/>
      <path d="M4 10.9002V5.9502H19.5001V10.3984" stroke="#335471" stroke-width="2" stroke-miterlimit="10"/>
      <path d="M17 21.3502V19.7002" stroke="#335471" stroke-width="1.5" stroke-miterlimit="10"/>
      <path d="M17 11.4502V13.1002" stroke="#335471" stroke-width="1.5" stroke-miterlimit="10"/>
      <path d="M19.5 15.3006V14.7506C19.5 14.313 19.342 13.8933 19.0607 13.5839C18.7794 13.2744 18.3979 13.1006 18 13.1006H16C15.6022 13.1006 15.2207 13.2744 14.9393 13.5839C14.658 13.8933 14.5 14.313 14.5 14.7506C14.5 15.1882 14.658 15.6079 14.9393 15.9173C15.2207 16.2268 15.6022 16.4006 16 16.4006H18C18.3979 16.4006 18.7794 16.5744 19.0607 16.8839C19.342 17.1933 19.5 17.613 19.5 18.0506C19.5 18.4882 19.342 18.9079 19.0607 19.2174C18.7794 19.5268 18.3979 19.7006 18 19.7006H16C15.6022 19.7006 15.2207 19.5268 14.9393 19.2174C14.658 18.9079 14.5 18.4882 14.5 18.0506V17.5006" stroke="#335471" stroke-width="1.5" stroke-miterlimit="10"/>
      </g>
      <defs>
      <clipPath id="clip0_1_7893">
      <rect width="24" height="24" fill="white" transform="translate(0 0.5)"/>
      </clipPath>
      </defs>
  </symbol>

  <symbol id="invoice" width="24" height="24" viewBox="0 0 24 24" fill="none">
    <path d="M22 7H2V11H22V7Z" fill="currentColor"></path>
    <path opacity="0.3" d="M21 19H3C2.4 19 2 18.6 2 18V6C2 5.4 2.4 5 3 5H21C21.6 5 22 5.4 22 6V18C22 18.6 21.6 19 21 19ZM14 14C14 13.4 13.6 13 13 13H5C4.4 13 4 13.4 4 14C4 14.6 4.4 15 5 15H13C13.6 15 14 14.6 14 14ZM16 15.5C16 16.3 16.7 17 17.5 17H18.5C19.3 17 20 16.3 20 15.5C20 14.7 19.3 14 18.5 14H17.5C16.7 14 16 14.7 16 15.5Z" fill="currentColor"></path>
  </symbol>

  <symbol id="stats" width="24" height="24" viewBox="0 0 24 24" fill="none">
    <path d="M13 5.91517C15.8 6.41517 18 8.81519 18 11.8152C18 12.5152 17.9 13.2152 17.6 13.9152L20.1 15.3152C20.6 15.6152 21.4 15.4152 21.6 14.8152C21.9 13.9152 22.1 12.9152 22.1 11.8152C22.1 7.01519 18.8 3.11521 14.3 2.01521C13.7 1.91521 13.1 2.31521 13.1 3.01521V5.91517H13Z" fill="currentColor"></path>
    <path opacity="0.3" d="M19.1 17.0152C19.7 17.3152 19.8 18.1152 19.3 18.5152C17.5 20.5152 14.9 21.7152 12 21.7152C9.1 21.7152 6.50001 20.5152 4.70001 18.5152C4.30001 18.0152 4.39999 17.3152 4.89999 17.0152L7.39999 15.6152C8.49999 16.9152 10.2 17.8152 12 17.8152C13.8 17.8152 15.5 17.0152 16.6 15.6152L19.1 17.0152ZM6.39999 13.9151C6.19999 13.2151 6 12.5152 6 11.8152C6 8.81517 8.2 6.41515 11 5.91515V3.01519C11 2.41519 10.4 1.91519 9.79999 2.01519C5.29999 3.01519 2 7.01517 2 11.8152C2 12.8152 2.2 13.8152 2.5 14.8152C2.7 15.4152 3.4 15.7152 4 15.3152L6.39999 13.9151Z" fill="currentColor"></path>
  </symbol>

  <symbol id="auth" width="24" height="24" viewBox="0 0 24 24" fill="none">
    <path opacity="0.3" d="M20.5543 4.37824L12.1798 2.02473C12.0626 1.99176 11.9376 1.99176 11.8203 2.02473L3.44572 4.37824C3.18118 4.45258 3 4.6807 3 4.93945V13.569C3 14.6914 3.48509 15.8404 4.4417 16.984C5.17231 17.8575 6.18314 18.7345 7.446 19.5909C9.56752 21.0295 11.6566 21.912 11.7445 21.9488C11.8258 21.9829 11.9129 22 12.0001 22C12.0872 22 12.1744 21.983 12.2557 21.9488C12.3435 21.912 14.4326 21.0295 16.5541 19.5909C17.8169 18.7345 18.8277 17.8575 19.5584 16.984C20.515 15.8404 21 14.6914 21 13.569V4.93945C21 4.6807 20.8189 4.45258 20.5543 4.37824Z" fill="currentColor"></path>
    <path d="M14.854 11.321C14.7568 11.2282 14.6388 11.1818 14.4998 11.1818H14.3333V10.2272C14.3333 9.61741 14.1041 9.09378 13.6458 8.65628C13.1875 8.21876 12.639 8 12 8C11.361 8 10.8124 8.21876 10.3541 8.65626C9.89574 9.09378 9.66663 9.61739 9.66663 10.2272V11.1818H9.49999C9.36115 11.1818 9.24306 11.2282 9.14583 11.321C9.0486 11.4138 9 11.5265 9 11.6591V14.5227C9 14.6553 9.04862 14.768 9.14583 14.8609C9.24306 14.9536 9.36115 15 9.49999 15H14.5C14.6389 15 14.7569 14.9536 14.8542 14.8609C14.9513 14.768 15 14.6553 15 14.5227V11.6591C15.0001 11.5265 14.9513 11.4138 14.854 11.321ZM13.3333 11.1818H10.6666V10.2272C10.6666 9.87594 10.7969 9.57597 11.0573 9.32743C11.3177 9.07886 11.6319 8.9546 12 8.9546C12.3681 8.9546 12.6823 9.07884 12.9427 9.32743C13.2031 9.57595 13.3333 9.87594 13.3333 10.2272V11.1818Z" fill="currentColor"></path>
  </symbol>

  <symbol id="user" width="24" height="24" viewBox="0 0 24 24" fill="none">
    <path d="M6.28548 15.0861C7.34369 13.1814 9.35142 12 11.5304 12H12.4696C14.6486 12 16.6563 13.1814 17.7145 15.0861L19.3493 18.0287C20.0899 19.3618 19.1259 21 17.601 21H6.39903C4.87406 21 3.91012 19.3618 4.65071 18.0287L6.28548 15.0861Z" fill="currentColor"></path>
    <rect opacity="0.3" x="8" y="3" width="8" height="8" rx="4" fill="currentColor"></rect>
  </symbol>

  <symbol id="home" width="24" height="24" viewBox="0 0 24 24" fill="none">
    <path d="M11 2.375L2 9.575V20.575C2 21.175 2.4 21.575 3 21.575H9C9.6 21.575 10 21.175 10 20.575V14.575C10 13.975 10.4 13.575 11 13.575H13C13.6 13.575 14 13.975 14 14.575V20.575C14 21.175 14.4 21.575 15 21.575H21C21.6 21.575 22 21.175 22 20.575V9.575L13 2.375C12.4 1.875 11.6 1.875 11 2.375Z" fill="currentColor"/>
  </symbol>

  <symbol id="sa" width="24" height="24" viewBox="0 0 24 24" fill="none">
    <path d="M19.0963 4.92704C20.0963 5.92704 20.8963 7.12705 21.2963 8.32705L17.6963 11.927L8.39633 2.62705C11.8963 1.32705 16.1963 2.02704 19.0963 4.92704ZM2.69633 15.627C3.19633 16.827 3.89634 18.027 4.89634 19.027C7.79634 21.927 11.9963 22.627 15.5963 21.227L6.29634 11.927L2.69633 15.627Z" fill="currentColor"/>
    <path opacity="0.3" d="M8.39634 2.72705L11.9963 6.32706L2.69634 15.6271C1.29634 12.0271 1.99634 7.82705 4.89634 4.92705C5.89634 3.92705 7.09634 3.22705 8.39634 2.72705ZM11.9963 17.7271L15.5963 21.3271C16.7963 20.8271 17.9963 20.1271 18.9963 19.1271C21.8963 16.2271 22.5963 12.027 21.1963 8.42705L11.9963 17.7271Z" fill="currentColor"/>
  </symbol>

  <symbol id="ea" width="24" height="24" viewBox="0 0 24 24" fill="none">
    <path d="M17.302 11.35L12.002 20.55H21.202C21.802 20.55 22.202 19.85 21.902 19.35L17.302 11.35Z" fill="currentColor"/>
    <path opacity="0.3" d="M12.002 20.55H2.802C2.202 20.55 1.80202 19.85 2.10202 19.35L6.70203 11.45L12.002 20.55ZM11.302 3.45L6.70203 11.35H17.302L12.702 3.45C12.402 2.85 11.602 2.85 11.302 3.45Z" fill="currentColor"/>
  </symbol>

  <symbol id="reservations" width="24" height="24" viewBox="0 0 24 24" fill="none">
    <path d="M10.0813 3.7242C10.8849 2.16438 13.1151 2.16438 13.9187 3.7242V3.7242C14.4016 4.66147 15.4909 5.1127 16.4951 4.79139V4.79139C18.1663 4.25668 19.7433 5.83365 19.2086 7.50485V7.50485C18.8873 8.50905 19.3385 9.59842 20.2758 10.0813V10.0813C21.8356 10.8849 21.8356 13.1151 20.2758 13.9187V13.9187C19.3385 14.4016 18.8873 15.491 19.2086 16.4951V16.4951C19.7433 18.1663 18.1663 19.7433 16.4951 19.2086V19.2086C15.491 18.8873 14.4016 19.3385 13.9187 20.2758V20.2758C13.1151 21.8356 10.8849 21.8356 10.0813 20.2758V20.2758C9.59842 19.3385 8.50905 18.8873 7.50485 19.2086V19.2086C5.83365 19.7433 4.25668 18.1663 4.79139 16.4951V16.4951C5.1127 15.491 4.66147 14.4016 3.7242 13.9187V13.9187C2.16438 13.1151 2.16438 10.8849 3.7242 10.0813V10.0813C4.66147 9.59842 5.1127 8.50905 4.79139 7.50485V7.50485C4.25668 5.83365 5.83365 4.25668 7.50485 4.79139V4.79139C8.50905 5.1127 9.59842 4.66147 10.0813 3.7242V3.7242Z" fill="currentColor"/>
    <path class="permanent" d="M14.8563 9.1903C15.0606 8.94984 15.3771 8.9385 15.6175 9.14289C15.858 9.34728 15.8229 9.66433 15.6185 9.9048L11.863 14.6558C11.6554 14.9001 11.2876 14.9258 11.048 14.7128L8.47656 12.4271C8.24068 12.2174 8.21944 11.8563 8.42911 11.6204C8.63877 11.3845 8.99996 11.3633 9.23583 11.5729L11.3706 13.4705L14.8563 9.1903Z" fill="white"/>
  </symbol>

  <symbol id="file" width="24" height="24" viewBox="0 0 24 24" fill="none">
    <path opacity="0.3" d="M19 22H5C4.4 22 4 21.6 4 21V3C4 2.4 4.4 2 5 2H14L20 8V21C20 21.6 19.6 22 19 22ZM12.5 18C12.5 17.4 12.6 17.5 12 17.5H8.5C7.9 17.5 8 17.4 8 18C8 18.6 7.9 18.5 8.5 18.5L12 18C12.6 18 12.5 18.6 12.5 18ZM16.5 13C16.5 12.4 16.6 12.5 16 12.5H8.5C7.9 12.5 8 12.4 8 13C8 13.6 7.9 13.5 8.5 13.5H15.5C16.1 13.5 16.5 13.6 16.5 13ZM12.5 8C12.5 7.4 12.6 7.5 12 7.5H8C7.4 7.5 7.5 7.4 7.5 8C7.5 8.6 7.4 8.5 8 8.5H12C12.6 8.5 12.5 8.6 12.5 8Z" fill="currentColor"/>
    <rect x="7" y="17" width="6" height="2" rx="1" fill="currentColor"/>
    <rect x="7" y="12" width="10" height="2" rx="1" fill="currentColor"/>
    <rect x="7" y="7" width="6" height="2" rx="1" fill="currentColor"/>
    <path d="M15 8H20L14 2V7C14 7.6 14.4 8 15 8Z" fill="currentColor"/>
  </symbol>

  <symbol id="share" width="24" height="24" viewBox="0 0 24 24" fill="none">
    <rect opacity="0.3" x="12.75" y="4.25" width="12" height="2" rx="1" transform="rotate(90 12.75 4.25)" fill="currentColor"/>
    <path d="M12.0573 6.11875L13.5203 7.87435C13.9121 8.34457 14.6232 8.37683 15.056 7.94401C15.4457 7.5543 15.4641 6.92836 15.0979 6.51643L12.4974 3.59084C12.0996 3.14332 11.4004 3.14332 11.0026 3.59084L8.40206 6.51643C8.0359 6.92836 8.0543 7.5543 8.44401 7.94401C8.87683 8.37683 9.58785 8.34458 9.9797 7.87435L11.4427 6.11875C11.6026 5.92684 11.8974 5.92684 12.0573 6.11875Z" fill="currentColor"/>
    <path d="M18.75 8.25H17.75C17.1977 8.25 16.75 8.69772 16.75 9.25C16.75 9.80228 17.1977 10.25 17.75 10.25C18.3023 10.25 18.75 10.6977 18.75 11.25V18.25C18.75 18.8023 18.3023 19.25 17.75 19.25H5.75C5.19772 19.25 4.75 18.8023 4.75 18.25V11.25C4.75 10.6977 5.19771 10.25 5.75 10.25C6.30229 10.25 6.75 9.80228 6.75 9.25C6.75 8.69772 6.30229 8.25 5.75 8.25H4.75C3.64543 8.25 2.75 9.14543 2.75 10.25V19.25C2.75 20.3546 3.64543 21.25 4.75 21.25H18.75C19.8546 21.25 20.75 20.3546 20.75 19.25V10.25C20.75 9.14543 19.8546 8.25 18.75 8.25Z" fill="#C4C4C4"/>
  </symbol>

  <symbol id="cog" width="24" height="24" viewBox="0 0 24 24" fill="none">
    <path opacity="0.3" d="M22.0318 8.59998C22.0318 10.4 21.4318 12.2 20.0318 13.5C18.4318 15.1 16.3318 15.7 14.2318 15.4C13.3318 15.3 12.3318 15.6 11.7318 16.3L6.93177 21.1C5.73177 22.3 3.83179 22.2 2.73179 21C1.63179 19.8 1.83177 18 2.93177 16.9L7.53178 12.3C8.23178 11.6 8.53177 10.7 8.43177 9.80005C8.13177 7.80005 8.73176 5.6 10.3318 4C11.7318 2.6 13.5318 2 15.2318 2C16.1318 2 16.6318 3.20005 15.9318 3.80005L13.0318 6.70007C12.5318 7.20007 12.4318 7.9 12.7318 8.5C13.3318 9.7 14.2318 10.6001 15.4318 11.2001C16.0318 11.5001 16.7318 11.3 17.2318 10.9L20.1318 8C20.8318 7.2 22.0318 7.59998 22.0318 8.59998Z" fill="currentColor"/>
    <path d="M4.23179 19.7C3.83179 19.3 3.83179 18.7 4.23179 18.3L9.73179 12.8C10.1318 12.4 10.7318 12.4 11.1318 12.8C11.5318 13.2 11.5318 13.8 11.1318 14.2L5.63179 19.7C5.23179 20.1 4.53179 20.1 4.23179 19.7Z" fill="currentColor"/>
  </symbol>

  <symbol id="paper" width="24" height="24" viewBox="0 0 24 24" fill="none">
    <path opacity="0.3" d="M18 22C19.7 22 21 20.7 21 19C21 18.5 20.9 18.1 20.7 17.7L15.3 6.30005C15.1 5.90005 15 5.5 15 5C15 3.3 16.3 2 18 2H6C4.3 2 3 3.3 3 5C3 5.5 3.1 5.90005 3.3 6.30005L8.7 17.7C8.9 18.1 9 18.5 9 19C9 20.7 7.7 22 6 22H18Z" fill="currentColor"/>
    <path d="M18 2C19.7 2 21 3.3 21 5H9C9 3.3 7.7 2 6 2H18Z" fill="currentColor"/>
    <path d="M9 19C9 20.7 7.7 22 6 22C4.3 22 3 20.7 3 19H9Z" fill="currentColor"/>
  </symbol>

  <symbol id="logout" width="24" height="24" viewBox="0 0 24 24" fill="none">
    <rect opacity="0.3" x="4" y="11" width="12" height="2" rx="1" fill="currentColor"/>
    <path d="M5.86875 11.6927L7.62435 10.2297C8.09457 9.83785 8.12683 9.12683 7.69401 8.69401C7.3043 8.3043 6.67836 8.28591 6.26643 8.65206L3.34084 11.2526C2.89332 11.6504 2.89332 12.3496 3.34084 12.7474L6.26643 15.3479C6.67836 15.7141 7.3043 15.6957 7.69401 15.306C8.12683 14.8732 8.09458 14.1621 7.62435 13.7703L5.86875 12.3073C5.67684 12.1474 5.67684 11.8526 5.86875 11.6927Z" fill="currentColor"/>
    <path d="M8 5V6C8 6.55228 8.44772 7 9 7C9.55228 7 10 6.55228 10 6C10 5.44772 10.4477 5 11 5H18C18.5523 5 19 5.44772 19 6V18C19 18.5523 18.5523 19 18 19H11C10.4477 19 10 18.5523 10 18C10 17.4477 9.55228 17 9 17C8.44772 17 8 17.4477 8 18V19C8 20.1046 8.89543 21 10 21H19C20.1046 21 21 20.1046 21 19V5C21 3.89543 20.1046 3 19 3H10C8.89543 3 8 3.89543 8 5Z" fill="#C4C4C4"/>
  </symbol>

  <symbol id="wallet" width="24" height="24" viewBox="0 0 24 24" fill="none">
    <path opacity="0.3" d="M3.20001 5.91897L16.9 3.01895C17.4 2.91895 18 3.219 18.1 3.819L19.2 9.01895L3.20001 5.91897Z" fill="currentColor"/>
    <path opacity="0.3" d="M13 13.9189C13 12.2189 14.3 10.9189 16 10.9189H21C21.6 10.9189 22 11.3189 22 11.9189V15.9189C22 16.5189 21.6 16.9189 21 16.9189H16C14.3 16.9189 13 15.6189 13 13.9189ZM16 12.4189C15.2 12.4189 14.5 13.1189 14.5 13.9189C14.5 14.7189 15.2 15.4189 16 15.4189C16.8 15.4189 17.5 14.7189 17.5 13.9189C17.5 13.1189 16.8 12.4189 16 12.4189Z" fill="currentColor"/>
    <path d="M13 13.9189C13 12.2189 14.3 10.9189 16 10.9189H21V7.91895C21 6.81895 20.1 5.91895 19 5.91895H3C2.4 5.91895 2 6.31895 2 6.91895V20.9189C2 21.5189 2.4 21.9189 3 21.9189H19C20.1 21.9189 21 21.0189 21 19.9189V16.9189H16C14.3 16.9189 13 15.6189 13 13.9189Z" fill="currentColor"/>
  </symbol>

  <symbol id="calendar" width="24" height="24" viewBox="0 0 24 24" fill="none">
    <path opacity="0.3" d="M21 22H3C2.4 22 2 21.6 2 21V5C2 4.4 2.4 4 3 4H21C21.6 4 22 4.4 22 5V21C22 21.6 21.6 22 21 22Z" fill="currentColor"/>
    <path d="M6 6C5.4 6 5 5.6 5 5V3C5 2.4 5.4 2 6 2C6.6 2 7 2.4 7 3V5C7 5.6 6.6 6 6 6ZM11 5V3C11 2.4 10.6 2 10 2C9.4 2 9 2.4 9 3V5C9 5.6 9.4 6 10 6C10.6 6 11 5.6 11 5ZM15 5V3C15 2.4 14.6 2 14 2C13.4 2 13 2.4 13 3V5C13 5.6 13.4 6 14 6C14.6 6 15 5.6 15 5ZM19 5V3C19 2.4 18.6 2 18 2C17.4 2 17 2.4 17 3V5C17 5.6 17.4 6 18 6C18.6 6 19 5.6 19 5Z" fill="currentColor"/>
    <path d="M8.8 13.1C9.2 13.1 9.5 13 9.7 12.8C9.9 12.6 10.1 12.3 10.1 11.9C10.1 11.6 10 11.3 9.8 11.1C9.6 10.9 9.3 10.8 9 10.8C8.8 10.8 8.59999 10.8 8.39999 10.9C8.19999 11 8.1 11.1 8 11.2C7.9 11.3 7.8 11.4 7.7 11.6C7.6 11.8 7.5 11.9 7.5 12.1C7.5 12.2 7.4 12.2 7.3 12.3C7.2 12.4 7.09999 12.4 6.89999 12.4C6.69999 12.4 6.6 12.3 6.5 12.2C6.4 12.1 6.3 11.9 6.3 11.7C6.3 11.5 6.4 11.3 6.5 11.1C6.6 10.9 6.8 10.7 7 10.5C7.2 10.3 7.49999 10.1 7.89999 10C8.29999 9.90003 8.60001 9.80003 9.10001 9.80003C9.50001 9.80003 9.80001 9.90003 10.1 10C10.4 10.1 10.7 10.3 10.9 10.4C11.1 10.5 11.3 10.8 11.4 11.1C11.5 11.4 11.6 11.6 11.6 11.9C11.6 12.3 11.5 12.6 11.3 12.9C11.1 13.2 10.9 13.5 10.6 13.7C10.9 13.9 11.2 14.1 11.4 14.3C11.6 14.5 11.8 14.7 11.9 15C12 15.3 12.1 15.5 12.1 15.8C12.1 16.2 12 16.5 11.9 16.8C11.8 17.1 11.5 17.4 11.3 17.7C11.1 18 10.7 18.2 10.3 18.3C9.9 18.4 9.5 18.5 9 18.5C8.5 18.5 8.1 18.4 7.7 18.2C7.3 18 7 17.8 6.8 17.6C6.6 17.4 6.4 17.1 6.3 16.8C6.2 16.5 6.10001 16.3 6.10001 16.1C6.10001 15.9 6.2 15.7 6.3 15.6C6.4 15.5 6.6 15.4 6.8 15.4C6.9 15.4 7.00001 15.4 7.10001 15.5C7.20001 15.6 7.3 15.6 7.3 15.7C7.5 16.2 7.7 16.6 8 16.9C8.3 17.2 8.6 17.3 9 17.3C9.2 17.3 9.5 17.2 9.7 17.1C9.9 17 10.1 16.8 10.3 16.6C10.5 16.4 10.5 16.1 10.5 15.8C10.5 15.3 10.4 15 10.1 14.7C9.80001 14.4 9.50001 14.3 9.10001 14.3C9.00001 14.3 8.9 14.3 8.7 14.3C8.5 14.3 8.39999 14.3 8.39999 14.3C8.19999 14.3 7.99999 14.2 7.89999 14.1C7.79999 14 7.7 13.8 7.7 13.7C7.7 13.5 7.79999 13.4 7.89999 13.2C7.99999 13 8.2 13 8.5 13H8.8V13.1ZM15.3 17.5V12.2C14.3 13 13.6 13.3 13.3 13.3C13.1 13.3 13 13.2 12.9 13.1C12.8 13 12.7 12.8 12.7 12.6C12.7 12.4 12.8 12.3 12.9 12.2C13 12.1 13.2 12 13.6 11.8C14.1 11.6 14.5 11.3 14.7 11.1C14.9 10.9 15.2 10.6 15.5 10.3C15.8 10 15.9 9.80003 15.9 9.70003C15.9 9.60003 16.1 9.60004 16.3 9.60004C16.5 9.60004 16.7 9.70003 16.8 9.80003C16.9 9.90003 17 10.2 17 10.5V17.2C17 18 16.7 18.4 16.2 18.4C16 18.4 15.8 18.3 15.6 18.2C15.4 18.1 15.3 17.8 15.3 17.5Z" fill="currentColor"/>
  </symbol>

  <symbol id="role" width="24" height="24" viewBox="0 0 24 24" fill="none">
    <path opacity="0.3" d="M20.5543 4.37824L12.1798 2.02473C12.0626 1.99176 11.9376 1.99176 11.8203 2.02473L3.44572 4.37824C3.18118 4.45258 3 4.6807 3 4.93945V13.569C3 14.6914 3.48509 15.8404 4.4417 16.984C5.17231 17.8575 6.18314 18.7345 7.446 19.5909C9.56752 21.0295 11.6566 21.912 11.7445 21.9488C11.8258 21.9829 11.9129 22 12.0001 22C12.0872 22 12.1744 21.983 12.2557 21.9488C12.3435 21.912 14.4326 21.0295 16.5541 19.5909C17.8169 18.7345 18.8277 17.8575 19.5584 16.984C20.515 15.8404 21 14.6914 21 13.569V4.93945C21 4.6807 20.8189 4.45258 20.5543 4.37824Z" fill="currentColor"/>
    <path d="M10.5606 11.3042L9.57283 10.3018C9.28174 10.0065 8.80522 10.0065 8.51412 10.3018C8.22897 10.5912 8.22897 11.0559 8.51412 11.3452L10.4182 13.2773C10.8099 13.6747 11.451 13.6747 11.8427 13.2773L15.4859 9.58051C15.771 9.29117 15.771 8.82648 15.4859 8.53714C15.1948 8.24176 14.7183 8.24176 14.4272 8.53714L11.7002 11.3042C11.3869 11.6221 10.874 11.6221 10.5606 11.3042Z" fill="currentColor"/>
  </symbol>

  <symbol id="add" width="24" height="24" viewBox="0 0 24 24" fill="none">
    <rect opacity="0.5" x="11.364" y="20.364" width="16" height="2" rx="1" transform="rotate(-90 11.364 20.364)" fill="currentColor"/>
    <rect x="4.36396" y="11.364" width="16" height="2" rx="1" fill="currentColor"/>
  </symbol>

  <symbol id="pilgrim" width="30" height="30" viewBox="0 0 24 24" fill="none">
    <path d="M8.184 7.107H7.136a.215.215 0 0 1-.216-.216v-.475a2.69 2.69 0 0 0 1.32-2.327V2.605A2.608 2.608 0 0 0 5.633 0a2.61 2.61 0 0 0-2.607 2.607V4.16c0 .923.483 1.787 1.32 2.265v.467a.213.213 0 0 1-.216.216H3.082A3.087 3.087 0 0 0 0 10.192v1.538c0 .124.11.27.27.27h10.729a.27.27 0 0 0 .27-.27v-1.538a3.09 3.09 0 0 0-3.085-3.085zM3.598 4.513a2.61 2.61 0 0 0 2.213.974 2.554 2.554 0 0 0 1.852-.996c-.173.94-.94 1.668-1.887 1.73a2.065 2.065 0 0 1-2.178-1.708zM.54 10.192a2.546 2.546 0 0 1 2.542-2.546H4.13a.754.754 0 0 0 .756-.755v-.235c.297.089.61.127.926.105.197-.013.389-.051.57-.108v.238c0 .418.34.755.755.755h.502C6.186 9.417 3.854 10.645.54 11.393v-1.201z" fill="currentColor"/>
  </symbol>

  <symbol id="room" width="24" height="24" viewBox="0 0 24 24" fill="none">
    <path d="M12.809 2.778 4.167 9.259v12.963H21.45V9.26l-8.642-6.481zm-2.43 10.262a1.35 1.35 0 1 1-.002 2.702 1.35 1.35 0 0 1 .001-2.702zm7.83 5.941h-1.08v-1.62H8.489v1.62h-1.08V11.42h1.08v4.86h3.78V12.5h3.781c1.189 0 2.16.972 2.16 2.16v4.321z" fill="currentColor" />
  </symbol>
</svg>
