<svg width="26" height="28" viewBox="0 0 24 24" fill="none" xmlns="http://www.w3.org/2000/svg">
<path fill-rule="evenodd" clip-rule="evenodd" d="M16.0001 12.8449C16.0001 12.8249 16.0001 12.805 16.0001 12.7852L16.0001 10.7916C16.0001 10.7718 16.0001 10.7519 16.0001 10.7319C15.9996 10.4926 15.9992 10.2375 16.0608 9.99171C16.1416 9.66927 16.3009 9.37178 16.5243 9.12565C16.6946 8.93806 16.9071 8.79691 17.1065 8.66454C17.1232 8.65347 17.1398 8.64246 17.1562 8.63149L19.4915 7.07461C19.8554 6.832 20.1693 6.62273 20.4321 6.47523C20.6942 6.32814 21.0162 6.17605 21.3834 6.15829C22.1272 6.12234 22.8305 6.49869 23.2131 7.13753C23.4021 7.45296 23.4541 7.80518 23.4771 8.10485C23.5002 8.40535 23.5002 8.78262 23.5001 9.21995L23.5001 14.3569C23.5002 14.7942 23.5002 15.1715 23.4771 15.472C23.4541 15.7716 23.4021 16.1239 23.2131 16.4393C22.8305 17.0781 22.1272 17.4545 21.3834 17.4185C21.0162 17.4008 20.6942 17.2487 20.4321 17.1016C20.1693 16.9541 19.8554 16.7448 19.4915 16.5022L17.1562 14.9453C17.1398 14.9344 17.1232 14.9234 17.1065 14.9123C16.9072 14.7799 16.6946 14.6388 16.5243 14.4512C16.3009 14.205 16.1416 13.9076 16.0608 13.5851C15.9992 13.3394 15.9996 13.0842 16.0001 12.8449ZM17.7396 13.1641C17.7396 13.1643 17.7395 13.164 17.7396 13.1641ZM17.7397 10.4122C17.7389 10.4165 17.7363 10.434 17.7343 10.4764C17.7311 10.544 17.7309 10.6334 17.7309 10.7916L17.7309 12.7852C17.7309 12.9434 17.7311 13.0328 17.7343 13.1004C17.7363 13.1424 17.7388 13.1596 17.7396 13.1641C17.7511 13.2099 17.7738 13.2525 17.8055 13.2875C17.8056 13.2876 17.8054 13.2874 17.8055 13.2875C17.8088 13.2907 17.822 13.3026 17.8559 13.3276C17.9104 13.3677 17.9847 13.4175 18.1163 13.5053L20.424 15.0437C20.8233 15.31 21.0814 15.4813 21.2792 15.5923C21.4058 15.6633 21.4662 15.6847 21.4824 15.6901C21.4773 15.6901 21.4721 15.69 21.467 15.6898C21.4797 15.6904 21.4869 15.6919 21.487 15.6917C21.487 15.6916 21.4855 15.6912 21.4824 15.6901C21.5778 15.6896 21.6668 15.642 21.7201 15.5629C21.7192 15.5661 21.7188 15.5676 21.7189 15.5676C21.7191 15.5677 21.7218 15.5608 21.7284 15.5499C21.7257 15.5543 21.723 15.5586 21.7201 15.5629C21.7246 15.5464 21.7403 15.4844 21.7514 15.3395C21.7688 15.1134 21.7694 14.8036 21.7694 14.3237L21.7694 9.25316C21.7694 8.77319 21.7688 8.46338 21.7514 8.23731C21.7403 8.09247 21.7246 8.03041 21.7201 8.01393C21.723 8.01818 21.7257 8.02251 21.7284 8.02693C21.7218 8.01601 21.7191 8.00915 21.7189 8.00922C21.7188 8.00925 21.7192 8.01073 21.7201 8.01393C21.6668 7.93484 21.5778 7.88718 21.4824 7.88671C21.4855 7.88566 21.487 7.88521 21.487 7.88512C21.4869 7.88492 21.4797 7.88643 21.467 7.88704C21.4721 7.88679 21.4773 7.88668 21.4824 7.88671C21.4662 7.89211 21.4058 7.91348 21.2792 7.98457C21.0814 8.09553 20.8233 8.26688 20.424 8.53311L18.1163 10.0716C17.9847 10.1593 17.9104 10.2091 17.8559 10.2492C17.822 10.2742 17.8088 10.2861 17.8055 10.2893C17.8054 10.2894 17.8056 10.2892 17.8055 10.2893C17.7737 10.3244 17.7512 10.3663 17.7397 10.4122C17.7397 10.412 17.7397 10.4123 17.7397 10.4122Z" fill="#53B9EA"/>
<path fill-rule="evenodd" clip-rule="evenodd" d="M7.02696 4H11.7038C12.4842 3.99999 13.1137 3.99999 13.626 4.03494C14.1528 4.07089 14.6186 4.14666 15.0597 4.32937C16.1199 4.76852 16.9622 5.61086 17.4014 6.67108C17.5841 7.11217 17.6599 7.57799 17.6958 8.10478C17.7308 8.61709 17.7308 9.24658 17.7308 10.0269V13.55C17.7308 14.3303 17.7308 14.9598 17.6958 15.4721C17.6599 15.9989 17.5841 16.4647 17.4014 16.9058C16.9622 17.966 16.1199 18.8084 15.0597 19.2475C14.6186 19.4302 14.1528 19.506 13.626 19.542C13.1137 19.5769 12.4842 19.5769 11.7038 19.5769H7.02695C6.24658 19.5769 5.61709 19.5769 5.10478 19.542C4.57799 19.506 4.11217 19.4302 3.67108 19.2475C2.61086 18.8084 1.76852 17.966 1.32937 16.9058C1.14666 16.4647 1.07089 15.9989 1.03494 15.4721C0.999989 14.9598 0.999994 14.3303 1 13.55V10.027C0.999994 9.24659 0.999989 8.6171 1.03494 8.10478C1.07089 7.57799 1.14666 7.11217 1.32937 6.67108C1.76852 5.61086 2.61086 4.76852 3.67108 4.32937C4.11217 4.14666 4.57799 4.07089 5.10478 4.03494C5.6171 3.99999 6.24659 3.99999 7.02696 4ZM5.2226 5.7617C4.78392 5.79163 4.52846 5.8476 4.33342 5.92839C3.69729 6.19188 3.19188 6.69729 2.92839 7.33342C2.8476 7.52846 2.79163 7.78392 2.7617 8.2226C2.73124 8.66904 2.73077 9.23941 2.73077 10.0577V13.5192C2.73077 14.3375 2.73124 14.9079 2.7617 15.3543C2.79163 15.793 2.8476 16.0485 2.92839 16.2435C3.19188 16.8796 3.69729 17.385 4.33342 17.6485C4.52846 17.7293 4.78392 17.7853 5.2226 17.8152C5.66904 17.8457 6.23941 17.8461 7.05769 17.8461H11.6731C12.4913 17.8461 13.0617 17.8457 13.5082 17.8152C13.9468 17.7853 14.2023 17.7293 14.3973 17.6485C15.0335 17.385 15.5389 16.8796 15.8024 16.2435C15.8832 16.0485 15.9391 15.793 15.9691 15.3543C15.9995 14.9079 16 14.3375 16 13.5192V10.0577C16 9.23941 15.9995 8.66904 15.9691 8.2226C15.9391 7.78392 15.8832 7.52846 15.8024 7.33342C15.5389 6.69729 15.0335 6.19188 14.3973 5.92839C14.2023 5.8476 13.9468 5.79163 13.5082 5.7617C13.0617 5.73124 12.4913 5.73077 11.6731 5.73077H7.05769C6.23941 5.73077 5.66904 5.73124 5.2226 5.7617Z" fill="#53B9EA"/>
</svg>
