<svg width="20" height="22" viewBox="0 0 24 25" fill="none" xmlns="http://www.w3.org/2000/svg">
<g clip-path="url(#clip0_1_8000)">
<path d="M4.34811 6.00162C5.40465 6.00162 6.26115 5.10627 6.26115 4.00179C6.26115 2.89731 5.40465 2.00195 4.34811 2.00195C3.29156 2.00195 2.43506 2.89731 2.43506 4.00179C2.43506 5.10627 3.29156 6.00162 4.34811 6.00162Z" stroke="#335471" stroke-width="2" stroke-miterlimit="10"/>
<path d="M1 11.5007V9.75083C1 9.28674 1.17636 8.84166 1.49028 8.5135C1.8042 8.18534 2.22997 8.00098 2.67392 8.00098H6.02175C6.4657 8.00098 6.89146 8.18534 7.20538 8.5135C7.5193 8.84166 7.69566 9.28674 7.69566 9.75083V11.5007" stroke="#335471" stroke-width="2" stroke-miterlimit="10"/>
<path d="M19.6523 6.00162C20.7088 6.00162 21.5653 5.10627 21.5653 4.00179C21.5653 2.89731 20.7088 2.00195 19.6523 2.00195C18.5958 2.00195 17.7393 2.89731 17.7393 4.00179C17.7393 5.10627 18.5958 6.00162 19.6523 6.00162Z" stroke="#335471" stroke-width="2" stroke-miterlimit="10"/>
<path d="M16.3047 11.5007V9.75083C16.3047 9.28674 16.481 8.84166 16.795 8.5135C17.1089 8.18534 17.5347 8.00098 17.9786 8.00098H21.3264C21.7704 8.00098 22.1962 8.18534 22.5101 8.5135C22.824 8.84166 23.0004 9.28674 23.0004 9.75083V11.5007" stroke="#335471" stroke-width="2" stroke-miterlimit="10"/>
<path d="M12 18.0006C13.0565 18.0006 13.913 17.1053 13.913 16.0008C13.913 14.8963 13.0565 14.001 12 14.001C10.9434 14.001 10.0869 14.8963 10.0869 16.0008C10.0869 17.1053 10.9434 18.0006 12 18.0006Z" stroke="#335471" stroke-width="2" stroke-miterlimit="10"/>
<path d="M8.65234 23.4997V21.7499C8.65234 21.2858 8.8287 20.8407 9.14262 20.5125C9.45654 20.1844 9.88231 20 10.3263 20H13.6741C14.118 20 14.5438 20.1844 14.8577 20.5125C15.1716 20.8407 15.348 21.2858 15.348 21.7499V23.4997" stroke="#335471" stroke-width="2" stroke-miterlimit="10"/>
<path d="M15.6585 2.25786C13.3192 1.24955 10.6938 1.2473 8.35303 2.25161" stroke="#335471" stroke-width="2" stroke-miterlimit="10"/>
<path d="M16.9443 20.0625C18.1327 19.3127 19.1509 18.3017 19.9282 17.0995C20.7055 15.8974 21.2234 14.5328 21.446 13.1006" stroke="#335471" stroke-width="2" stroke-miterlimit="10"/>
<path d="M7.05633 20.0625C5.86794 19.3127 4.84979 18.3017 4.07246 17.0995C3.29513 15.8974 2.77724 14.5328 2.55469 13.1006" stroke="#335471" stroke-width="2" stroke-miterlimit="10"/>
</g>
<defs>
<clipPath id="clip0_1_8000">
<rect width="24" height="24" fill="white" transform="translate(0 0.5)"/>
</clipPath>
</defs>
</svg>
