<svg width="47" height="47" viewBox="0 0 47 47" fill="none" xmlns="http://www.w3.org/2000/svg">
<rect y="0.120117" width="46.1267" height="46.1267" rx="23.0634" fill="#EDF4FC"/>
<rect x="3.98975" y="4.13574" width="37.8793" height="38.4204" rx="18.9396" fill="#45B020"/>
<path d="M30.1558 24.9939C29.9609 24.9948 29.7701 24.9379 29.6076 24.8303C29.4451 24.7227 29.3182 24.5693 29.243 24.3895C29.1678 24.2097 29.1476 24.0116 29.185 23.8204C29.2225 23.6291 29.3159 23.4533 29.4534 23.3151C29.5908 23.177 29.7662 23.0828 29.9573 23.0444C30.1484 23.0061 30.3465 23.0253 30.5267 23.0996C30.7068 23.174 30.8609 23.3002 30.9692 23.4622C31.0776 23.6241 31.1354 23.8146 31.1355 24.0095C31.1364 24.1387 31.1117 24.2667 31.0629 24.3862C31.014 24.5058 30.942 24.6145 30.8509 24.706C30.7598 24.7975 30.6514 24.8701 30.5321 24.9195C30.4128 24.9689 30.2849 24.9942 30.1558 24.9939V24.9939ZM25.3665 24.9939C25.1717 24.9948 24.9809 24.9379 24.8184 24.8303C24.6559 24.7227 24.529 24.5693 24.4538 24.3895C24.3785 24.2097 24.3584 24.0116 24.3958 23.8204C24.4333 23.6291 24.5267 23.4533 24.6641 23.3151C24.8016 23.177 24.977 23.0828 25.1681 23.0444C25.3592 23.0061 25.5573 23.0253 25.7375 23.0996C25.9176 23.174 26.0716 23.3002 26.18 23.4622C26.2884 23.6241 26.3462 23.8146 26.3462 24.0095C26.3472 24.1387 26.3226 24.2667 26.2738 24.3863C26.2249 24.5059 26.1529 24.6146 26.0618 24.7061C25.9707 24.7977 25.8623 24.8703 25.743 24.9196C25.6236 24.969 25.4957 24.9943 25.3665 24.9939V24.9939ZM32.4958 30.5655C34.0197 29.4728 34.9994 27.8345 34.9994 25.9773C34.9994 22.6455 31.7884 19.9141 27.7614 19.9141C23.7344 19.9141 20.5229 22.6455 20.5229 25.9773C20.5229 29.3092 23.7339 32.0402 27.7614 32.0402C28.5775 32.0402 29.394 31.9309 30.1014 31.712C30.2181 31.6717 30.2645 31.6572 30.3189 31.6572C30.4532 31.6604 30.5845 31.6981 30.7 31.7669L32.2806 32.6955C32.3317 32.7223 32.3868 32.7408 32.4437 32.7503C32.5004 32.7465 32.5537 32.7222 32.5937 32.682C32.6338 32.6419 32.658 32.5885 32.6617 32.5319C32.6581 32.4702 32.6459 32.4093 32.6256 32.3509C32.6064 32.2825 32.3912 31.6009 32.2806 31.1664C32.2705 31.1128 32.2653 31.0583 32.2651 31.0037C32.2658 30.9172 32.2874 30.8321 32.3283 30.7557C32.3691 30.6794 32.4279 30.6141 32.4995 30.5655" fill="white"/>
<path d="M22.5373 19.3686C22.2331 19.3686 21.9414 19.2478 21.7263 19.0327C21.5112 18.8176 21.3903 18.5258 21.3903 18.2216C21.3903 17.9174 21.5112 17.6256 21.7263 17.4105C21.9414 17.1954 22.2331 17.0746 22.5373 17.0746C23.1359 17.0746 23.6802 17.6207 23.6802 18.2216C23.7345 18.8225 23.1903 19.3686 22.5373 19.3686ZM16.7689 19.3686C16.5419 19.3695 16.3198 19.303 16.1307 19.1775C15.9416 19.0521 15.7939 18.8733 15.7064 18.6639C15.6188 18.4545 15.5954 18.2238 15.6391 18.0011C15.6827 17.7784 15.7914 17.5736 15.9515 17.4127C16.1115 17.2518 16.3157 17.142 16.5382 17.0972C16.7607 17.0523 16.9915 17.0745 17.2014 17.161C17.4112 17.2474 17.5908 17.3941 17.7172 17.5825C17.8437 17.771 17.9113 17.9928 17.9117 18.2197C17.9105 18.5228 17.7898 18.8132 17.5759 19.028C17.362 19.2427 17.072 19.3644 16.7689 19.3668V19.3686ZM19.6531 13.251C14.8639 13.251 11 16.4736 11 20.5166C11 22.7014 12.1428 24.6679 13.993 25.9789C14.1566 26.0872 14.1875 26.3291 14.1875 26.4229C14.1914 26.4944 14.1809 26.566 14.1566 26.6333C13.993 27.1794 13.7844 28.0635 13.7755 28.1104C13.7666 28.1572 13.7211 28.2744 13.7211 28.3288C13.7188 28.3652 13.7242 28.4016 13.737 28.4357C13.7499 28.4698 13.7698 28.5008 13.7955 28.5267C13.8212 28.5525 13.8521 28.5726 13.8861 28.5856C13.9202 28.5986 13.9566 28.6042 13.993 28.6021C14.0514 28.5984 14.1078 28.5795 14.1566 28.5472L16.0625 27.4541C16.2261 27.3449 16.3348 27.3449 16.498 27.3449C16.5913 27.3463 16.6836 27.3647 16.7703 27.3993C17.6408 27.6725 18.6205 27.7818 19.6002 27.7818H20.09C19.9116 27.1975 19.8198 26.5903 19.8177 25.9794C19.8177 22.3194 23.3553 19.37 27.7091 19.37H28.1989C27.5984 15.9275 24.0069 13.251 19.6531 13.251Z" fill="white"/>
</svg>
