<svg width="47" height="47" viewBox="0 0 47 47" fill="none" xmlns="http://www.w3.org/2000/svg">
<rect width="46.1267" height="46.1267" rx="23.0634" fill="#EDF4FC"/>
<rect x="4" y="4" width="37.8793" height="38.4204" rx="18.9396" fill="#45B020"/>
<path fill-rule="evenodd" clip-rule="evenodd" d="M30.439 15.5506C29.4683 14.5794 28.315 13.8098 27.0456 13.2861C25.7762 12.7624 24.4158 12.4949 23.0426 12.4991C17.2798 12.4991 12.5885 17.1669 12.5862 22.9053C12.5836 24.7326 13.0653 26.5279 13.9821 28.1084L12.4985 33.4991L18.0415 32.052C19.5758 32.8832 21.2934 33.3183 23.0384 33.3177H23.0426C28.8049 33.3177 33.4957 28.6494 33.4985 22.9114C33.502 21.5429 33.2333 20.1874 32.7081 18.9237C32.1828 17.6601 31.4115 16.5134 30.439 15.5506V15.5506ZM23.0426 31.5613H23.0388C21.4832 31.5617 19.9559 31.1454 18.6157 30.3556L18.2984 30.1681L15.0092 31.0269L15.8871 27.8352L15.6804 27.507C14.8106 26.1299 14.3497 24.5341 14.3515 22.9053C14.3515 18.1367 18.252 14.2569 23.0459 14.2569C25.3456 14.2528 27.5527 15.1623 29.1819 16.7854C30.811 18.4085 31.7288 20.6122 31.7332 22.9119C31.7313 27.6809 27.8328 31.5613 23.0426 31.5613ZM27.8093 25.0836C27.5482 24.9533 26.2624 24.3242 26.0243 24.2375C25.7862 24.1508 25.6104 24.1072 25.4365 24.3678C25.2626 24.6284 24.7615 25.2116 24.6092 25.3874C24.4568 25.5631 24.3045 25.5824 24.0434 25.452C23.7823 25.3217 22.9399 25.0475 21.942 24.1616C21.1653 23.472 20.6412 22.6208 20.4888 22.3606C20.3365 22.1005 20.4724 21.9594 20.6032 21.83C20.7209 21.7133 20.8643 21.5263 20.9951 21.3744C21.1259 21.2225 21.1695 21.1138 21.2562 20.9403C21.3429 20.7669 21.2998 20.615 21.2346 20.4852C21.1695 20.3553 20.6468 19.0752 20.4293 18.5544C20.217 18.0472 20.0018 18.1161 19.8415 18.1081C19.6892 18.1006 19.5134 18.0988 19.3404 18.0988C19.2082 18.1022 19.0781 18.1329 18.9582 18.1888C18.8384 18.2448 18.7314 18.3249 18.6438 18.4241C18.4043 18.6847 17.7293 19.3147 17.7293 20.5934C17.7293 21.8722 18.6668 23.1097 18.7962 23.2831C18.9256 23.4566 20.6384 26.083 23.2592 27.2094C23.7458 27.4178 24.2431 27.6005 24.7488 27.7569C25.3746 27.9547 25.9442 27.927 26.3942 27.86C26.8962 27.7855 27.941 27.2309 28.1581 26.6234C28.3751 26.0159 28.3756 25.4956 28.3104 25.3874C28.2453 25.2791 28.0709 25.2134 27.8093 25.0836Z" fill="white"/>
</svg>
